<?xml version="1.0" encoding="UTF-8" standalone="no"?>
<!DOCTYPE svg PUBLIC "-//W3C//DTD SVG 1.1//EN"
 "http://www.w3.org/Graphics/SVG/1.1/DTD/svg11.dtd">
<!-- Generated by graphviz version 2.30.1 (20180420.1509)
 -->
<!-- Title: snakemake_dag Pages: 1 -->
<svg width="1134pt" height="1340pt"
 viewBox="0.00 0.00 1134.00 1340.00" xmlns="http://www.w3.org/2000/svg" xmlns:xlink="http://www.w3.org/1999/xlink">
<g id="graph0" class="graph" transform="scale(1 1) rotate(0) translate(4 1336)">
<title>snakemake_dag</title>
<polygon fill="white" stroke="white" points="-4,5 -4,-1336 1131,-1336 1131,5 -4,5"/>
<!-- 0 -->
<g id="node1" class="node"><title>0</title>
<path fill="none" stroke="#5663d8" stroke-width="2" d="M490,-36C490,-36 460,-36 460,-36 454,-36 448,-30 448,-24 448,-24 448,-12 448,-12 448,-6 454,-0 460,-0 460,-0 490,-0 490,-0 496,-0 502,-6 502,-12 502,-12 502,-24 502,-24 502,-30 496,-36 490,-36"/>
<text text-anchor="middle" x="475" y="-15.5" font-family="sans" font-size="10.00">all</text>
</g>
<!-- 1 -->
<g id="node2" class="node"><title>1</title>
<path fill="none" stroke="#5692d8" stroke-width="2" d="M490,-108C490,-108 460,-108 460,-108 454,-108 448,-102 448,-96 448,-96 448,-84 448,-84 448,-78 454,-72 460,-72 460,-72 490,-72 490,-72 496,-72 502,-78 502,-84 502,-84 502,-96 502,-96 502,-102 496,-108 490,-108"/>
<text text-anchor="middle" x="475" y="-87.5" font-family="sans" font-size="10.00">finish</text>
</g>
<!-- 1&#45;&gt;0 -->
<g id="edge1" class="edge"><title>1&#45;&gt;0</title>
<path fill="none" stroke="grey" stroke-width="2" d="M475,-71.6966C475,-63.9827 475,-54.7125 475,-46.1124"/>
<polygon fill="grey" stroke="grey" points="478.5,-46.1043 475,-36.1043 471.5,-46.1044 478.5,-46.1043"/>
</g>
<!-- 2 -->
<g id="node3" class="node"><title>2</title>
<path fill="none" stroke="#d8ac56" stroke-width="2" d="M92,-180C92,-180 12,-180 12,-180 6,-180 0,-174 0,-168 0,-168 0,-156 0,-156 0,-150 6,-144 12,-144 12,-144 92,-144 92,-144 98,-144 104,-150 104,-156 104,-156 104,-168 104,-168 104,-174 98,-180 92,-180"/>
<text text-anchor="middle" x="52" y="-159.5" font-family="sans" font-size="10.00">export_run_config</text>
</g>
<!-- 2&#45;&gt;1 -->
<g id="edge2" class="edge"><title>2&#45;&gt;1</title>
<path fill="none" stroke="grey" stroke-width="2" d="M104.136,-146.003C107.126,-145.289 110.096,-144.615 113,-144 230.138,-119.206 371.048,-102.189 437.207,-94.9393"/>
<polygon fill="grey" stroke="grey" points="437.979,-98.3762 447.544,-93.8197 437.225,-91.4169 437.979,-98.3762"/>
</g>
<!-- 3 -->
<g id="node4" class="node"><title>3</title>
<path fill="none" stroke="#78d856" stroke-width="2" d="M188,-180C188,-180 134,-180 134,-180 128,-180 122,-174 122,-168 122,-168 122,-156 122,-156 122,-150 128,-144 134,-144 134,-144 188,-144 188,-144 194,-144 200,-150 200,-156 200,-156 200,-168 200,-168 200,-174 194,-180 188,-180"/>
<text text-anchor="middle" x="161" y="-159.5" font-family="sans" font-size="10.00">list_samples</text>
</g>
<!-- 3&#45;&gt;1 -->
<g id="edge3" class="edge"><title>3&#45;&gt;1</title>
<path fill="none" stroke="grey" stroke-width="2" d="M200.167,-146.883C203.476,-145.852 206.785,-144.875 210,-144 290.049,-122.218 385.94,-105.241 437.601,-96.8233"/>
<polygon fill="grey" stroke="grey" points="438.314,-100.254 447.629,-95.2065 437.199,-93.3429 438.314,-100.254"/>
</g>
<!-- 4 -->
<g id="node5" class="node"><title>4</title>
<path fill="none" stroke="#d88d56" stroke-width="2" d="M291.25,-180C291.25,-180 230.75,-180 230.75,-180 224.75,-180 218.75,-174 218.75,-168 218.75,-168 218.75,-156 218.75,-156 218.75,-150 224.75,-144 230.75,-144 230.75,-144 291.25,-144 291.25,-144 297.25,-144 303.25,-150 303.25,-156 303.25,-156 303.25,-168 303.25,-168 303.25,-174 297.25,-180 291.25,-180"/>
<text text-anchor="middle" x="261" y="-159.5" font-family="sans" font-size="10.00">run_fastqc_all</text>
</g>
<!-- 4&#45;&gt;1 -->
<g id="edge4" class="edge"><title>4&#45;&gt;1</title>
<path fill="none" stroke="grey" stroke-width="2" d="M303.28,-147.17C342.639,-134.296 400.714,-115.299 438.204,-103.036"/>
<polygon fill="grey" stroke="grey" points="439.317,-106.354 447.734,-99.9189 437.141,-99.7013 439.317,-106.354"/>
</g>
<!-- 5 -->
<g id="node6" class="node"><title>5</title>
<path fill="none" stroke="#56d85b" stroke-width="2" d="M434.25,-180C434.25,-180 333.75,-180 333.75,-180 327.75,-180 321.75,-174 321.75,-168 321.75,-168 321.75,-156 321.75,-156 321.75,-150 327.75,-144 333.75,-144 333.75,-144 434.25,-144 434.25,-144 440.25,-144 446.25,-150 446.25,-156 446.25,-156 446.25,-168 446.25,-168 446.25,-174 440.25,-180 434.25,-180"/>
<text text-anchor="middle" x="384" y="-165" font-family="sans" font-size="10.00">run_fastqc_persample</text>
<text text-anchor="middle" x="384" y="-154" font-family="sans" font-size="10.00">sample: Sample_01</text>
</g>
<!-- 5&#45;&gt;1 -->
<g id="edge5" class="edge"><title>5&#45;&gt;1</title>
<path fill="none" stroke="grey" stroke-width="2" d="M406.494,-143.697C417.955,-134.881 432.058,-124.032 444.484,-114.474"/>
<polygon fill="grey" stroke="grey" points="446.972,-116.976 452.764,-108.104 442.704,-111.427 446.972,-116.976"/>
</g>
<!-- 6 -->
<g id="node7" class="node"><title>6</title>
<path fill="none" stroke="#56d873" stroke-width="2" d="M521,-1044C521,-1044 441,-1044 441,-1044 435,-1044 429,-1038 429,-1032 429,-1032 429,-1020 429,-1020 429,-1014 435,-1008 441,-1008 441,-1008 521,-1008 521,-1008 527,-1008 533,-1014 533,-1020 533,-1020 533,-1032 533,-1032 533,-1038 527,-1044 521,-1044"/>
<text text-anchor="middle" x="481" y="-1023.5" font-family="sans" font-size="10.00">samtools_flagstat</text>
</g>
<!-- 6&#45;&gt;1 -->
<g id="edge6" class="edge"><title>6&#45;&gt;1</title>
<path fill="none" stroke="grey" stroke-width="2" d="M479.815,-1007.96C478.066,-981.315 475,-928.155 475,-883 475,-883 475,-883 475,-233 475,-192.996 475,-146.653 475,-118.08"/>
<polygon fill="grey" stroke="grey" points="478.5,-118.049 475,-108.049 471.5,-118.049 478.5,-118.049"/>
</g>
<!-- 7 -->
<g id="node8" class="node"><title>7</title>
<path fill="none" stroke="#d85656" stroke-width="2" d="M655.25,-1188C655.25,-1188 566.75,-1188 566.75,-1188 560.75,-1188 554.75,-1182 554.75,-1176 554.75,-1176 554.75,-1164 554.75,-1164 554.75,-1158 560.75,-1152 566.75,-1152 566.75,-1152 655.25,-1152 655.25,-1152 661.25,-1152 667.25,-1158 667.25,-1164 667.25,-1164 667.25,-1176 667.25,-1176 667.25,-1182 661.25,-1188 655.25,-1188"/>
<text text-anchor="middle" x="611" y="-1173" font-family="sans" font-size="10.00">align_reads</text>
<text text-anchor="middle" x="611" y="-1162" font-family="sans" font-size="10.00">sample: Sample_01</text>
</g>
<!-- 7&#45;&gt;6 -->
<g id="edge11" class="edge"><title>7&#45;&gt;6</title>
<path fill="none" stroke="grey" stroke-width="2" d="M554.647,-1153.15C535.043,-1145.01 514.583,-1133.09 501,-1116 487.182,-1098.61 482.502,-1073.56 481.094,-1054.46"/>
<polygon fill="grey" stroke="grey" points="484.581,-1054.1 480.605,-1044.28 477.589,-1054.44 484.581,-1054.1"/>
</g>
<!-- 10 -->
<g id="node11" class="node"><title>10</title>
<path fill="none" stroke="#59d856" stroke-width="2" d="M614.25,-1116C614.25,-1116 521.75,-1116 521.75,-1116 515.75,-1116 509.75,-1110 509.75,-1104 509.75,-1104 509.75,-1092 509.75,-1092 509.75,-1086 515.75,-1080 521.75,-1080 521.75,-1080 614.25,-1080 614.25,-1080 620.25,-1080 626.25,-1086 626.25,-1092 626.25,-1092 626.25,-1104 626.25,-1104 626.25,-1110 620.25,-1116 614.25,-1116"/>
<text text-anchor="middle" x="568" y="-1095.5" font-family="sans" font-size="10.00">samtools_index_one</text>
</g>
<!-- 7&#45;&gt;10 -->
<g id="edge15" class="edge"><title>7&#45;&gt;10</title>
<path fill="none" stroke="grey" stroke-width="2" d="M600.371,-1151.7C595.372,-1143.56 589.309,-1133.69 583.788,-1124.7"/>
<polygon fill="grey" stroke="grey" points="586.723,-1122.79 578.507,-1116.1 580.759,-1126.46 586.723,-1122.79"/>
</g>
<!-- 20 -->
<g id="node21" class="node"><title>20</title>
<path fill="none" stroke="#567bd8" stroke-width="2" d="M675,-1044C675,-1044 587,-1044 587,-1044 581,-1044 575,-1038 575,-1032 575,-1032 575,-1020 575,-1020 575,-1014 581,-1008 587,-1008 587,-1008 675,-1008 675,-1008 681,-1008 687,-1014 687,-1020 687,-1020 687,-1032 687,-1032 687,-1038 681,-1044 675,-1044"/>
<text text-anchor="middle" x="631" y="-1023.5" font-family="sans" font-size="10.00">picard_mark_dupes</text>
</g>
<!-- 7&#45;&gt;20 -->
<g id="edge35" class="edge"><title>7&#45;&gt;20</title>
<path fill="none" stroke="grey" stroke-width="2" d="M620.954,-1151.98C626.272,-1141.89 632.272,-1128.64 635,-1116 639.399,-1095.62 638.057,-1072.03 635.8,-1054.26"/>
<polygon fill="grey" stroke="grey" points="639.252,-1053.68 634.36,-1044.28 632.324,-1054.68 639.252,-1053.68"/>
</g>
<!-- 8 -->
<g id="node9" class="node"><title>8</title>
<path fill="none" stroke="#bed856" stroke-width="2" d="M676.25,-1260C676.25,-1260 595.75,-1260 595.75,-1260 589.75,-1260 583.75,-1254 583.75,-1248 583.75,-1248 583.75,-1236 583.75,-1236 583.75,-1230 589.75,-1224 595.75,-1224 595.75,-1224 676.25,-1224 676.25,-1224 682.25,-1224 688.25,-1230 688.25,-1236 688.25,-1236 688.25,-1248 688.25,-1248 688.25,-1254 682.25,-1260 676.25,-1260"/>
<text text-anchor="middle" x="636" y="-1239.5" font-family="sans" font-size="10.00">create_bwa_index</text>
</g>
<!-- 8&#45;&gt;7 -->
<g id="edge13" class="edge"><title>8&#45;&gt;7</title>
<path fill="none" stroke="grey" stroke-width="2" d="M629.82,-1223.7C627.005,-1215.81 623.609,-1206.3 620.481,-1197.55"/>
<polygon fill="grey" stroke="grey" points="623.768,-1196.34 617.109,-1188.1 617.176,-1198.7 623.768,-1196.34"/>
</g>
<!-- 9 -->
<g id="node10" class="node"><title>9</title>
<path fill="none" stroke="#568ad8" stroke-width="2" d="M833,-1332C833,-1332 787,-1332 787,-1332 781,-1332 775,-1326 775,-1320 775,-1320 775,-1308 775,-1308 775,-1302 781,-1296 787,-1296 787,-1296 833,-1296 833,-1296 839,-1296 845,-1302 845,-1308 845,-1308 845,-1320 845,-1320 845,-1326 839,-1332 833,-1332"/>
<text text-anchor="middle" x="810" y="-1311.5" font-family="sans" font-size="10.00">copy_fasta</text>
</g>
<!-- 9&#45;&gt;8 -->
<g id="edge14" class="edge"><title>9&#45;&gt;8</title>
<path fill="none" stroke="grey" stroke-width="2" d="M774.789,-1298.83C749.916,-1288.83 716.165,-1275.25 688.174,-1263.99"/>
<polygon fill="grey" stroke="grey" points="689.121,-1260.6 678.537,-1260.11 686.508,-1267.09 689.121,-1260.6"/>
</g>
<!-- 17 -->
<g id="node18" class="node"><title>17</title>
<path fill="none" stroke="#56d8a9" stroke-width="2" d="M788,-756C788,-756 700,-756 700,-756 694,-756 688,-750 688,-744 688,-744 688,-732 688,-732 688,-726 694,-720 700,-720 700,-720 788,-720 788,-720 794,-720 800,-726 800,-732 800,-732 800,-744 800,-744 800,-750 794,-756 788,-756"/>
<text text-anchor="middle" x="744" y="-735.5" font-family="sans" font-size="10.00">gatk_realign_indels</text>
</g>
<!-- 9&#45;&gt;17 -->
<g id="edge25" class="edge"><title>9&#45;&gt;17</title>
<path fill="none" stroke="grey" stroke-width="2" d="M842.469,-1295.94C880.974,-1273.09 940,-1228.66 940,-1171 940,-1171 940,-1171 940,-881 940,-815.261 866.798,-776.838 809.866,-756.896"/>
<polygon fill="grey" stroke="grey" points="810.76,-753.504 800.166,-753.619 808.519,-760.135 810.76,-753.504"/>
</g>
<!-- 18 -->
<g id="node19" class="node"><title>18</title>
<path fill="none" stroke="#56d892" stroke-width="2" d="M794.25,-828C794.25,-828 701.75,-828 701.75,-828 695.75,-828 689.75,-822 689.75,-816 689.75,-816 689.75,-804 689.75,-804 689.75,-798 695.75,-792 701.75,-792 701.75,-792 794.25,-792 794.25,-792 800.25,-792 806.25,-798 806.25,-804 806.25,-804 806.25,-816 806.25,-816 806.25,-822 800.25,-828 794.25,-828"/>
<text text-anchor="middle" x="748" y="-807.5" font-family="sans" font-size="10.00">gatk_realign_targets</text>
</g>
<!-- 9&#45;&gt;18 -->
<g id="edge29" class="edge"><title>9&#45;&gt;18</title>
<path fill="none" stroke="grey" stroke-width="2" d="M811.611,-1295.53C818.058,-1222.67 840.003,-943.136 805,-864 800.004,-852.704 791.309,-842.718 782.193,-834.546"/>
<polygon fill="grey" stroke="grey" points="784.425,-831.85 774.509,-828.12 779.934,-837.22 784.425,-831.85"/>
</g>
<!-- 21 -->
<g id="node22" class="node"><title>21</title>
<path fill="none" stroke="#d89556" stroke-width="2" d="M774.25,-1116C774.25,-1116 709.75,-1116 709.75,-1116 703.75,-1116 697.75,-1110 697.75,-1104 697.75,-1104 697.75,-1092 697.75,-1092 697.75,-1086 703.75,-1080 709.75,-1080 709.75,-1080 774.25,-1080 774.25,-1080 780.25,-1080 786.25,-1086 786.25,-1092 786.25,-1092 786.25,-1104 786.25,-1104 786.25,-1110 780.25,-1116 774.25,-1116"/>
<text text-anchor="middle" x="742" y="-1095.5" font-family="sans" font-size="10.00">create_ref_dict</text>
</g>
<!-- 9&#45;&gt;21 -->
<g id="edge38" class="edge"><title>9&#45;&gt;21</title>
<path fill="none" stroke="grey" stroke-width="2" d="M804.55,-1295.85C792.738,-1258.68 764.7,-1170.44 750.522,-1125.82"/>
<polygon fill="grey" stroke="grey" points="753.84,-1124.7 747.476,-1116.23 747.169,-1126.82 753.84,-1124.7"/>
</g>
<!-- 24 -->
<g id="node25" class="node"><title>24</title>
<path fill="none" stroke="#56b1d8" stroke-width="2" d="M900,-1188C900,-1188 850,-1188 850,-1188 844,-1188 838,-1182 838,-1176 838,-1176 838,-1164 838,-1164 838,-1158 844,-1152 850,-1152 850,-1152 900,-1152 900,-1152 906,-1152 912,-1158 912,-1164 912,-1164 912,-1176 912,-1176 912,-1182 906,-1188 900,-1188"/>
<text text-anchor="middle" x="875" y="-1167.5" font-family="sans" font-size="10.00">index_fasta</text>
</g>
<!-- 9&#45;&gt;24 -->
<g id="edge40" class="edge"><title>9&#45;&gt;24</title>
<path fill="none" stroke="grey" stroke-width="2" d="M817.841,-1295.87C829.016,-1271.46 849.629,-1226.43 862.808,-1197.64"/>
<polygon fill="grey" stroke="grey" points="866.152,-1198.74 867.132,-1188.19 859.787,-1195.83 866.152,-1198.74"/>
</g>
<!-- 10&#45;&gt;6 -->
<g id="edge12" class="edge"><title>10&#45;&gt;6</title>
<path fill="none" stroke="grey" stroke-width="2" d="M546.494,-1079.7C535.537,-1070.88 522.054,-1060.03 510.175,-1050.47"/>
<polygon fill="grey" stroke="grey" points="512.244,-1047.65 502.258,-1044.1 507.855,-1053.1 512.244,-1047.65"/>
</g>
<!-- 10&#45;&gt;20 -->
<g id="edge36" class="edge"><title>10&#45;&gt;20</title>
<path fill="none" stroke="grey" stroke-width="2" d="M583.573,-1079.7C591.202,-1071.22 600.523,-1060.86 608.876,-1051.58"/>
<polygon fill="grey" stroke="grey" points="611.518,-1053.88 615.606,-1044.1 606.315,-1049.2 611.518,-1053.88"/>
</g>
<!-- 11 -->
<g id="node12" class="node"><title>11</title>
<path fill="none" stroke="#a7d856" stroke-width="2" d="M843,-180C843,-180 757,-180 757,-180 751,-180 745,-174 745,-168 745,-168 745,-156 745,-156 745,-150 751,-144 757,-144 757,-144 843,-144 843,-144 849,-144 855,-150 855,-156 855,-156 855,-168 855,-168 855,-174 849,-180 843,-180"/>
<text text-anchor="middle" x="800" y="-159.5" font-family="sans" font-size="10.00">annotate_samtools</text>
</g>
<!-- 11&#45;&gt;1 -->
<g id="edge7" class="edge"><title>11&#45;&gt;1</title>
<path fill="none" stroke="grey" stroke-width="2" d="M744.894,-146.14C741.89,-145.4 738.91,-144.681 736,-144 656.607,-125.412 562.742,-107.283 512.018,-97.8009"/>
<polygon fill="grey" stroke="grey" points="512.64,-94.3565 502.168,-95.967 511.358,-101.238 512.64,-94.3565"/>
</g>
<!-- 12 -->
<g id="node13" class="node"><title>12</title>
<path fill="none" stroke="#8fd856" stroke-width="2" d="M821.25,-252C821.25,-252 756.75,-252 756.75,-252 750.75,-252 744.75,-246 744.75,-240 744.75,-240 744.75,-228 744.75,-228 744.75,-222 750.75,-216 756.75,-216 756.75,-216 821.25,-216 821.25,-216 827.25,-216 833.25,-222 833.25,-228 833.25,-228 833.25,-240 833.25,-240 833.25,-246 827.25,-252 821.25,-252"/>
<text text-anchor="middle" x="789" y="-231.5" font-family="sans" font-size="10.00">filter_samtools</text>
</g>
<!-- 12&#45;&gt;11 -->
<g id="edge16" class="edge"><title>12&#45;&gt;11</title>
<path fill="none" stroke="grey" stroke-width="2" d="M791.719,-215.697C792.931,-207.983 794.388,-198.712 795.739,-190.112"/>
<polygon fill="grey" stroke="grey" points="799.217,-190.526 797.312,-180.104 792.302,-189.44 799.217,-190.526"/>
</g>
<!-- 13 -->
<g id="node14" class="node"><title>13</title>
<path fill="none" stroke="#56d8b9" stroke-width="2" d="M939,-324C939,-324 829,-324 829,-324 823,-324 817,-318 817,-312 817,-312 817,-300 817,-300 817,-294 823,-288 829,-288 829,-288 939,-288 939,-288 945,-288 951,-294 951,-300 951,-300 951,-312 951,-312 951,-318 945,-324 939,-324"/>
<text text-anchor="middle" x="884" y="-303.5" font-family="sans" font-size="10.00">bcftools_filter_samtools</text>
</g>
<!-- 13&#45;&gt;12 -->
<g id="edge17" class="edge"><title>13&#45;&gt;12</title>
<path fill="none" stroke="grey" stroke-width="2" d="M860.517,-287.697C848.437,-278.796 833.546,-267.823 820.484,-258.199"/>
<polygon fill="grey" stroke="grey" points="822.34,-255.219 812.213,-252.104 818.187,-260.854 822.34,-255.219"/>
</g>
<!-- 14 -->
<g id="node15" class="node"><title>14</title>
<path fill="none" stroke="#68d856" stroke-width="2" d="M928,-396C928,-396 840,-396 840,-396 834,-396 828,-390 828,-384 828,-384 828,-372 828,-372 828,-366 834,-360 840,-360 840,-360 928,-360 928,-360 934,-360 940,-366 940,-372 940,-372 940,-384 940,-384 940,-390 934,-396 928,-396"/>
<text text-anchor="middle" x="884" y="-375.5" font-family="sans" font-size="10.00">anc_filter_samtools</text>
</g>
<!-- 14&#45;&gt;13 -->
<g id="edge20" class="edge"><title>14&#45;&gt;13</title>
<path fill="none" stroke="grey" stroke-width="2" d="M884,-359.697C884,-351.983 884,-342.712 884,-334.112"/>
<polygon fill="grey" stroke="grey" points="887.5,-334.104 884,-324.104 880.5,-334.104 887.5,-334.104"/>
</g>
<!-- 36 -->
<g id="node37" class="node"><title>36</title>
<path fill="none" stroke="#b6d856" stroke-width="2" d="M1114.25,-324C1114.25,-324 981.75,-324 981.75,-324 975.75,-324 969.75,-318 969.75,-312 969.75,-312 969.75,-300 969.75,-300 969.75,-294 975.75,-288 981.75,-288 981.75,-288 1114.25,-288 1114.25,-288 1120.25,-288 1126.25,-294 1126.25,-300 1126.25,-300 1126.25,-312 1126.25,-312 1126.25,-318 1120.25,-324 1114.25,-324"/>
<text text-anchor="middle" x="1048" y="-303.5" font-family="sans" font-size="10.00">bcftools_filter_samtools_two</text>
</g>
<!-- 14&#45;&gt;36 -->
<g id="edge54" class="edge"><title>14&#45;&gt;36</title>
<path fill="none" stroke="grey" stroke-width="2" d="M924.119,-359.876C946.638,-350.264 974.918,-338.193 998.771,-328.013"/>
<polygon fill="grey" stroke="grey" points="1000.19,-331.213 1008.01,-324.068 997.44,-324.775 1000.19,-331.213"/>
</g>
<!-- 15 -->
<g id="node16" class="node"><title>15</title>
<path fill="none" stroke="#5673d8" stroke-width="2" d="M902.25,-540C902.25,-540 835.75,-540 835.75,-540 829.75,-540 823.75,-534 823.75,-528 823.75,-528 823.75,-516 823.75,-516 823.75,-510 829.75,-504 835.75,-504 835.75,-504 902.25,-504 902.25,-504 908.25,-504 914.25,-510 914.25,-516 914.25,-516 914.25,-528 914.25,-528 914.25,-534 908.25,-540 902.25,-540"/>
<text text-anchor="middle" x="869" y="-519.5" font-family="sans" font-size="10.00">bcftools_pileup</text>
</g>
<!-- 15&#45;&gt;14 -->
<g id="edge21" class="edge"><title>15&#45;&gt;14</title>
<path fill="none" stroke="grey" stroke-width="2" d="M870.809,-503.871C873.366,-479.67 878.062,-435.211 881.106,-406.393"/>
<polygon fill="grey" stroke="grey" points="884.614,-406.502 882.184,-396.189 877.653,-405.766 884.614,-406.502"/>
</g>
<!-- 16 -->
<g id="node17" class="node"><title>16</title>
<path fill="none" stroke="#56d86b" stroke-width="2" d="M790,-684C790,-684 698,-684 698,-684 692,-684 686,-678 686,-672 686,-672 686,-660 686,-660 686,-654 692,-648 698,-648 698,-648 790,-648 790,-648 796,-648 802,-654 802,-660 802,-660 802,-672 802,-672 802,-678 796,-684 790,-684"/>
<text text-anchor="middle" x="744" y="-663.5" font-family="sans" font-size="10.00">samtools_sort_three</text>
</g>
<!-- 16&#45;&gt;15 -->
<g id="edge22" class="edge"><title>16&#45;&gt;15</title>
<path fill="none" stroke="grey" stroke-width="2" d="M779.979,-647.909C795.942,-638.954 814.01,-626.759 827,-612 842.979,-593.844 854.129,-568.554 860.904,-549.571"/>
<polygon fill="grey" stroke="grey" points="864.244,-550.619 864.136,-540.025 857.614,-548.375 864.244,-550.619"/>
</g>
<!-- 25 -->
<g id="node26" class="node"><title>25</title>
<path fill="none" stroke="#d86656" stroke-width="2" d="M790.25,-612C790.25,-612 689.75,-612 689.75,-612 683.75,-612 677.75,-606 677.75,-600 677.75,-600 677.75,-588 677.75,-588 677.75,-582 683.75,-576 689.75,-576 689.75,-576 790.25,-576 790.25,-576 796.25,-576 802.25,-582 802.25,-588 802.25,-588 802.25,-600 802.25,-600 802.25,-606 796.25,-612 790.25,-612"/>
<text text-anchor="middle" x="740" y="-591.5" font-family="sans" font-size="10.00">samtools_index_three</text>
</g>
<!-- 16&#45;&gt;25 -->
<g id="edge41" class="edge"><title>16&#45;&gt;25</title>
<path fill="none" stroke="grey" stroke-width="2" d="M743.011,-647.697C742.57,-639.983 742.041,-630.712 741.549,-622.112"/>
<polygon fill="grey" stroke="grey" points="745.042,-621.888 740.977,-612.104 738.054,-622.288 745.042,-621.888"/>
</g>
<!-- 28 -->
<g id="node29" class="node"><title>28</title>
<path fill="none" stroke="#56d8c1" stroke-width="2" d="M760.25,-540C760.25,-540 719.75,-540 719.75,-540 713.75,-540 707.75,-534 707.75,-528 707.75,-528 707.75,-516 707.75,-516 707.75,-510 713.75,-504 719.75,-504 719.75,-504 760.25,-504 760.25,-504 766.25,-504 772.25,-510 772.25,-516 772.25,-516 772.25,-528 772.25,-528 772.25,-534 766.25,-540 760.25,-540"/>
<text text-anchor="middle" x="740" y="-519.5" font-family="sans" font-size="10.00">freebayes</text>
</g>
<!-- 16&#45;&gt;28 -->
<g id="edge44" class="edge"><title>16&#45;&gt;28</title>
<path fill="none" stroke="grey" stroke-width="2" d="M776.527,-647.984C789.789,-639.18 803.699,-627.085 811,-612 817.971,-597.598 818.172,-590.303 811,-576 804.453,-562.944 792.995,-552.281 781.17,-544.033"/>
<polygon fill="grey" stroke="grey" points="782.855,-540.955 772.559,-538.454 779.049,-546.829 782.855,-540.955"/>
</g>
<!-- 32 -->
<g id="node33" class="node"><title>32</title>
<path fill="none" stroke="#56d8d8" stroke-width="2" d="M645,-540C645,-540 615,-540 615,-540 609,-540 603,-534 603,-528 603,-528 603,-516 603,-516 603,-510 609,-504 615,-504 615,-504 645,-504 645,-504 651,-504 657,-510 657,-516 657,-516 657,-528 657,-528 657,-534 651,-540 645,-540"/>
<text text-anchor="middle" x="630" y="-519.5" font-family="sans" font-size="10.00">lofreq</text>
</g>
<!-- 16&#45;&gt;32 -->
<g id="edge49" class="edge"><title>16&#45;&gt;32</title>
<path fill="none" stroke="grey" stroke-width="2" d="M712.107,-647.877C697.471,-638.767 680.792,-626.454 669,-612 654.064,-593.691 643.797,-568.776 637.561,-549.963"/>
<polygon fill="grey" stroke="grey" points="640.838,-548.716 634.508,-540.22 634.159,-550.809 640.838,-548.716"/>
</g>
<!-- 17&#45;&gt;16 -->
<g id="edge24" class="edge"><title>17&#45;&gt;16</title>
<path fill="none" stroke="grey" stroke-width="2" d="M744,-719.697C744,-711.983 744,-702.712 744,-694.112"/>
<polygon fill="grey" stroke="grey" points="747.5,-694.104 744,-684.104 740.5,-694.104 747.5,-694.104"/>
</g>
<!-- 18&#45;&gt;17 -->
<g id="edge26" class="edge"><title>18&#45;&gt;17</title>
<path fill="none" stroke="grey" stroke-width="2" d="M747.011,-791.697C746.57,-783.983 746.041,-774.712 745.549,-766.112"/>
<polygon fill="grey" stroke="grey" points="749.042,-765.888 744.977,-756.104 742.054,-766.288 749.042,-765.888"/>
</g>
<!-- 19 -->
<g id="node20" class="node"><title>19</title>
<path fill="none" stroke="#56b9d8" stroke-width="2" d="M671,-972C671,-972 583,-972 583,-972 577,-972 571,-966 571,-960 571,-960 571,-948 571,-948 571,-942 577,-936 583,-936 583,-936 671,-936 671,-936 677,-936 683,-942 683,-948 683,-948 683,-960 683,-960 683,-966 677,-972 671,-972"/>
<text text-anchor="middle" x="627" y="-951.5" font-family="sans" font-size="10.00">picard_read_groups</text>
</g>
<!-- 19&#45;&gt;17 -->
<g id="edge27" class="edge"><title>19&#45;&gt;17</title>
<path fill="none" stroke="grey" stroke-width="2" d="M575.352,-935.965C558.86,-927.803 542.45,-916.177 533,-900 524.929,-886.185 525.42,-878.091 533,-864 562.75,-808.694 628.26,-775.624 678.448,-757.526"/>
<polygon fill="grey" stroke="grey" points="679.659,-760.81 687.948,-754.211 677.353,-754.201 679.659,-760.81"/>
</g>
<!-- 19&#45;&gt;18 -->
<g id="edge30" class="edge"><title>19&#45;&gt;18</title>
<path fill="none" stroke="grey" stroke-width="2" d="M641.595,-935.871C662.763,-911.031 702.117,-864.846 726.577,-836.142"/>
<polygon fill="grey" stroke="grey" points="729.531,-838.071 733.353,-828.189 724.203,-833.531 729.531,-838.071"/>
</g>
<!-- 22 -->
<g id="node23" class="node"><title>22</title>
<path fill="none" stroke="#80d856" stroke-width="2" d="M646.25,-900C646.25,-900 553.75,-900 553.75,-900 547.75,-900 541.75,-894 541.75,-888 541.75,-888 541.75,-876 541.75,-876 541.75,-870 547.75,-864 553.75,-864 553.75,-864 646.25,-864 646.25,-864 652.25,-864 658.25,-870 658.25,-876 658.25,-876 658.25,-888 658.25,-888 658.25,-894 652.25,-900 646.25,-900"/>
<text text-anchor="middle" x="600" y="-879.5" font-family="sans" font-size="10.00">samtools_index_two</text>
</g>
<!-- 19&#45;&gt;22 -->
<g id="edge39" class="edge"><title>19&#45;&gt;22</title>
<path fill="none" stroke="grey" stroke-width="2" d="M620.326,-935.697C617.285,-927.813 613.617,-918.304 610.239,-909.546"/>
<polygon fill="grey" stroke="grey" points="613.462,-908.175 606.597,-900.104 606.931,-910.694 613.462,-908.175"/>
</g>
<!-- 20&#45;&gt;19 -->
<g id="edge34" class="edge"><title>20&#45;&gt;19</title>
<path fill="none" stroke="grey" stroke-width="2" d="M630.011,-1007.7C629.57,-999.983 629.041,-990.712 628.549,-982.112"/>
<polygon fill="grey" stroke="grey" points="632.042,-981.888 627.977,-972.104 625.054,-982.288 632.042,-981.888"/>
</g>
<!-- 21&#45;&gt;20 -->
<g id="edge37" class="edge"><title>21&#45;&gt;20</title>
<path fill="none" stroke="grey" stroke-width="2" d="M714.846,-1079.88C700.467,-1070.81 682.619,-1059.55 667.09,-1049.76"/>
<polygon fill="grey" stroke="grey" points="668.584,-1046.56 658.258,-1044.19 664.85,-1052.48 668.584,-1046.56"/>
</g>
<!-- 22&#45;&gt;17 -->
<g id="edge28" class="edge"><title>22&#45;&gt;17</title>
<path fill="none" stroke="grey" stroke-width="2" d="M614.296,-863.981C630.008,-845.597 656.304,-815.752 681,-792 691.426,-781.973 703.454,-771.591 714.189,-762.701"/>
<polygon fill="grey" stroke="grey" points="716.578,-765.269 722.097,-756.225 712.143,-759.853 716.578,-765.269"/>
</g>
<!-- 22&#45;&gt;18 -->
<g id="edge31" class="edge"><title>22&#45;&gt;18</title>
<path fill="none" stroke="grey" stroke-width="2" d="M636.205,-863.876C656.258,-854.392 681.372,-842.513 702.714,-832.419"/>
<polygon fill="grey" stroke="grey" points="704.369,-835.508 711.913,-828.068 701.376,-829.18 704.369,-835.508"/>
</g>
<!-- 23 -->
<g id="node24" class="node"><title>23</title>
<path fill="none" stroke="#56c9d8" stroke-width="2" d="M784.25,-900C784.25,-900 727.75,-900 727.75,-900 721.75,-900 715.75,-894 715.75,-888 715.75,-888 715.75,-876 715.75,-876 715.75,-870 721.75,-864 727.75,-864 727.75,-864 784.25,-864 784.25,-864 790.25,-864 796.25,-870 796.25,-876 796.25,-876 796.25,-888 796.25,-888 796.25,-894 790.25,-900 784.25,-900"/>
<text text-anchor="middle" x="756" y="-879.5" font-family="sans" font-size="10.00">gatk_register</text>
</g>
<!-- 23&#45;&gt;18 -->
<g id="edge32" class="edge"><title>23&#45;&gt;18</title>
<path fill="none" stroke="grey" stroke-width="2" d="M754.022,-863.697C753.141,-855.983 752.081,-846.712 751.099,-838.112"/>
<polygon fill="grey" stroke="grey" points="754.568,-837.642 749.955,-828.104 747.613,-838.437 754.568,-837.642"/>
</g>
<!-- 24&#45;&gt;18 -->
<g id="edge33" class="edge"><title>24&#45;&gt;18</title>
<path fill="none" stroke="grey" stroke-width="2" d="M872.629,-1151.99C869.132,-1125.38 863,-1072.28 863,-1027 863,-1027 863,-1027 863,-953 863,-912.031 863.904,-896.53 839,-864 829.245,-851.258 815.482,-841.023 801.605,-833.074"/>
<polygon fill="grey" stroke="grey" points="802.975,-829.837 792.511,-828.177 799.656,-836 802.975,-829.837"/>
</g>
<!-- 25&#45;&gt;15 -->
<g id="edge23" class="edge"><title>25&#45;&gt;15</title>
<path fill="none" stroke="grey" stroke-width="2" d="M771.557,-575.876C788.658,-566.596 809.982,-555.025 828.319,-545.075"/>
<polygon fill="grey" stroke="grey" points="830.202,-548.035 837.322,-540.19 826.863,-541.883 830.202,-548.035"/>
</g>
<!-- 25&#45;&gt;28 -->
<g id="edge45" class="edge"><title>25&#45;&gt;28</title>
<path fill="none" stroke="grey" stroke-width="2" d="M740,-575.697C740,-567.983 740,-558.712 740,-550.112"/>
<polygon fill="grey" stroke="grey" points="743.5,-550.104 740,-540.104 736.5,-550.104 743.5,-550.104"/>
</g>
<!-- 25&#45;&gt;32 -->
<g id="edge50" class="edge"><title>25&#45;&gt;32</title>
<path fill="none" stroke="grey" stroke-width="2" d="M713.091,-575.876C698.842,-566.808 681.154,-555.552 665.764,-545.759"/>
<polygon fill="grey" stroke="grey" points="667.328,-542.606 657.012,-540.19 663.57,-548.511 667.328,-542.606"/>
</g>
<!-- 26 -->
<g id="node27" class="node"><title>26</title>
<path fill="none" stroke="#56d8d0" stroke-width="2" d="M786.25,-324C786.25,-324 673.75,-324 673.75,-324 667.75,-324 661.75,-318 661.75,-312 661.75,-312 661.75,-300 661.75,-300 661.75,-294 667.75,-288 673.75,-288 673.75,-288 786.25,-288 786.25,-288 792.25,-288 798.25,-294 798.25,-300 798.25,-300 798.25,-312 798.25,-312 798.25,-318 792.25,-324 786.25,-324"/>
<text text-anchor="middle" x="730" y="-303.5" font-family="sans" font-size="10.00">bcftools_filter_freebayes</text>
</g>
<!-- 26&#45;&gt;12 -->
<g id="edge18" class="edge"><title>26&#45;&gt;12</title>
<path fill="none" stroke="grey" stroke-width="2" d="M744.584,-287.697C751.658,-279.305 760.283,-269.07 768.045,-259.861"/>
<polygon fill="grey" stroke="grey" points="770.815,-262.006 774.583,-252.104 765.463,-257.495 770.815,-262.006"/>
</g>
<!-- 38 -->
<g id="node39" class="node"><title>38</title>
<path fill="none" stroke="#56d89a" stroke-width="2" d="M704.25,-252C704.25,-252 635.75,-252 635.75,-252 629.75,-252 623.75,-246 623.75,-240 623.75,-240 623.75,-228 623.75,-228 623.75,-222 629.75,-216 635.75,-216 635.75,-216 704.25,-216 704.25,-216 710.25,-216 716.25,-222 716.25,-228 716.25,-228 716.25,-240 716.25,-240 716.25,-246 710.25,-252 704.25,-252"/>
<text text-anchor="middle" x="670" y="-231.5" font-family="sans" font-size="10.00">filter_freebayes</text>
</g>
<!-- 26&#45;&gt;38 -->
<g id="edge56" class="edge"><title>26&#45;&gt;38</title>
<path fill="none" stroke="grey" stroke-width="2" d="M715.169,-287.697C707.975,-279.305 699.203,-269.07 691.31,-259.861"/>
<polygon fill="grey" stroke="grey" points="693.826,-257.419 684.661,-252.104 688.511,-261.975 693.826,-257.419"/>
</g>
<!-- 27 -->
<g id="node28" class="node"><title>27</title>
<path fill="none" stroke="#d8cb56" stroke-width="2" d="M784,-468C784,-468 692,-468 692,-468 686,-468 680,-462 680,-456 680,-456 680,-444 680,-444 680,-438 686,-432 692,-432 692,-432 784,-432 784,-432 790,-432 796,-438 796,-444 796,-444 796,-456 796,-456 796,-462 790,-468 784,-468"/>
<text text-anchor="middle" x="738" y="-447.5" font-family="sans" font-size="10.00">anc_filter_freebayes</text>
</g>
<!-- 27&#45;&gt;26 -->
<g id="edge42" class="edge"><title>27&#45;&gt;26</title>
<path fill="none" stroke="grey" stroke-width="2" d="M737.035,-431.871C735.672,-407.67 733.167,-363.211 731.543,-334.393"/>
<polygon fill="grey" stroke="grey" points="735.025,-333.977 730.968,-324.189 728.037,-334.37 735.025,-333.977"/>
</g>
<!-- 28&#45;&gt;27 -->
<g id="edge43" class="edge"><title>28&#45;&gt;27</title>
<path fill="none" stroke="grey" stroke-width="2" d="M739.506,-503.697C739.285,-495.983 739.02,-486.712 738.775,-478.112"/>
<polygon fill="grey" stroke="grey" points="742.273,-478 738.489,-468.104 735.276,-478.2 742.273,-478"/>
</g>
<!-- 29 -->
<g id="node30" class="node"><title>29</title>
<path fill="none" stroke="#d87d56" stroke-width="2" d="M631.25,-324C631.25,-324 538.75,-324 538.75,-324 532.75,-324 526.75,-318 526.75,-312 526.75,-312 526.75,-300 526.75,-300 526.75,-294 532.75,-288 538.75,-288 538.75,-288 631.25,-288 631.25,-288 637.25,-288 643.25,-294 643.25,-300 643.25,-300 643.25,-312 643.25,-312 643.25,-318 637.25,-324 631.25,-324"/>
<text text-anchor="middle" x="585" y="-303.5" font-family="sans" font-size="10.00">bcftools_filter_lofreq</text>
</g>
<!-- 29&#45;&gt;12 -->
<g id="edge19" class="edge"><title>29&#45;&gt;12</title>
<path fill="none" stroke="grey" stroke-width="2" d="M634.643,-287.966C664.973,-277.558 703.777,-264.243 734.89,-253.567"/>
<polygon fill="grey" stroke="grey" points="736.378,-256.757 744.701,-250.201 734.107,-250.136 736.378,-256.757"/>
</g>
<!-- 29&#45;&gt;38 -->
<g id="edge57" class="edge"><title>29&#45;&gt;38</title>
<path fill="none" stroke="grey" stroke-width="2" d="M606.011,-287.697C616.716,-278.881 629.89,-268.032 641.496,-258.474"/>
<polygon fill="grey" stroke="grey" points="643.736,-261.163 649.23,-252.104 639.286,-255.76 643.736,-261.163"/>
</g>
<!-- 40 -->
<g id="node41" class="node"><title>40</title>
<path fill="none" stroke="#9fd856" stroke-width="2" d="M589,-252C589,-252 519,-252 519,-252 513,-252 507,-246 507,-240 507,-240 507,-228 507,-228 507,-222 513,-216 519,-216 519,-216 589,-216 589,-216 595,-216 601,-222 601,-228 601,-228 601,-240 601,-240 601,-246 595,-252 589,-252"/>
<text text-anchor="middle" x="554" y="-231.5" font-family="sans" font-size="10.00">annotate_lofreq</text>
</g>
<!-- 29&#45;&gt;40 -->
<g id="edge59" class="edge"><title>29&#45;&gt;40</title>
<path fill="none" stroke="grey" stroke-width="2" d="M577.337,-287.697C573.808,-279.728 569.544,-270.1 565.631,-261.264"/>
<polygon fill="grey" stroke="grey" points="568.824,-259.831 561.575,-252.104 562.424,-262.665 568.824,-259.831"/>
</g>
<!-- 30 -->
<g id="node31" class="node"><title>30</title>
<path fill="none" stroke="#d86e56" stroke-width="2" d="M631.25,-396C631.25,-396 560.75,-396 560.75,-396 554.75,-396 548.75,-390 548.75,-384 548.75,-384 548.75,-372 548.75,-372 548.75,-366 554.75,-360 560.75,-360 560.75,-360 631.25,-360 631.25,-360 637.25,-360 643.25,-366 643.25,-372 643.25,-372 643.25,-384 643.25,-384 643.25,-390 637.25,-396 631.25,-396"/>
<text text-anchor="middle" x="596" y="-375.5" font-family="sans" font-size="10.00">anc_filter_lofreq</text>
</g>
<!-- 30&#45;&gt;29 -->
<g id="edge46" class="edge"><title>30&#45;&gt;29</title>
<path fill="none" stroke="grey" stroke-width="2" d="M593.281,-359.697C592.069,-351.983 590.612,-342.712 589.261,-334.112"/>
<polygon fill="grey" stroke="grey" points="592.698,-333.44 587.688,-324.104 585.783,-334.526 592.698,-333.44"/>
</g>
<!-- 31 -->
<g id="node32" class="node"><title>31</title>
<path fill="none" stroke="#d8d356" stroke-width="2" d="M637.25,-468C637.25,-468 584.75,-468 584.75,-468 578.75,-468 572.75,-462 572.75,-456 572.75,-456 572.75,-444 572.75,-444 572.75,-438 578.75,-432 584.75,-432 584.75,-432 637.25,-432 637.25,-432 643.25,-432 649.25,-438 649.25,-444 649.25,-444 649.25,-456 649.25,-456 649.25,-462 643.25,-468 637.25,-468"/>
<text text-anchor="middle" x="611" y="-447.5" font-family="sans" font-size="10.00">unzip_lofreq</text>
</g>
<!-- 31&#45;&gt;30 -->
<g id="edge47" class="edge"><title>31&#45;&gt;30</title>
<path fill="none" stroke="grey" stroke-width="2" d="M607.292,-431.697C605.639,-423.983 603.653,-414.712 601.81,-406.112"/>
<polygon fill="grey" stroke="grey" points="605.183,-405.149 599.665,-396.104 598.338,-406.616 605.183,-405.149"/>
</g>
<!-- 32&#45;&gt;31 -->
<g id="edge48" class="edge"><title>32&#45;&gt;31</title>
<path fill="none" stroke="grey" stroke-width="2" d="M625.303,-503.697C623.187,-495.898 620.638,-486.509 618.282,-477.829"/>
<polygon fill="grey" stroke="grey" points="621.64,-476.838 615.643,-468.104 614.884,-478.672 621.64,-476.838"/>
</g>
<!-- 33 -->
<g id="node34" class="node"><title>33</title>
<path fill="none" stroke="#d8a456" stroke-width="2" d="M609,-612C609,-612 515,-612 515,-612 509,-612 503,-606 503,-600 503,-600 503,-588 503,-588 503,-582 509,-576 515,-576 515,-576 609,-576 609,-576 615,-576 621,-582 621,-588 621,-588 621,-600 621,-600 621,-606 615,-612 609,-612"/>
<text text-anchor="middle" x="562" y="-591.5" font-family="sans" font-size="10.00">index_ancestor_bam</text>
</g>
<!-- 33&#45;&gt;32 -->
<g id="edge51" class="edge"><title>33&#45;&gt;32</title>
<path fill="none" stroke="grey" stroke-width="2" d="M578.809,-575.697C587.126,-567.135 597.305,-556.656 606.39,-547.304"/>
<polygon fill="grey" stroke="grey" points="608.927,-549.716 613.384,-540.104 603.906,-544.838 608.927,-549.716"/>
</g>
<!-- 34 -->
<g id="node35" class="node"><title>34</title>
<path fill="none" stroke="#ced856" stroke-width="2" d="M607,-684C607,-684 517,-684 517,-684 511,-684 505,-678 505,-672 505,-672 505,-660 505,-660 505,-654 511,-648 517,-648 517,-648 607,-648 607,-648 613,-648 619,-654 619,-660 619,-660 619,-672 619,-672 619,-678 613,-684 607,-684"/>
<text text-anchor="middle" x="562" y="-663.5" font-family="sans" font-size="10.00">copy_ancestor_bam</text>
</g>
<!-- 34&#45;&gt;33 -->
<g id="edge52" class="edge"><title>34&#45;&gt;33</title>
<path fill="none" stroke="grey" stroke-width="2" d="M562,-647.697C562,-639.983 562,-630.712 562,-622.112"/>
<polygon fill="grey" stroke="grey" points="565.5,-622.104 562,-612.104 558.5,-622.104 565.5,-622.104"/>
</g>
<!-- 35 -->
<g id="node36" class="node"><title>35</title>
<path fill="none" stroke="#d8bc56" stroke-width="2" d="M1038,-252C1038,-252 928,-252 928,-252 922,-252 916,-246 916,-240 916,-240 916,-228 916,-228 916,-222 922,-216 928,-216 928,-216 1038,-216 1038,-216 1044,-216 1050,-222 1050,-228 1050,-228 1050,-240 1050,-240 1050,-246 1044,-252 1038,-252"/>
<text text-anchor="middle" x="983" y="-231.5" font-family="sans" font-size="10.00">annotate_samtools_two</text>
</g>
<!-- 35&#45;&gt;1 -->
<g id="edge8" class="edge"><title>35&#45;&gt;1</title>
<path fill="none" stroke="grey" stroke-width="2" d="M966.234,-215.975C944.665,-195.214 905.062,-160.82 864,-144 800.566,-118.015 596.658,-100.144 512.188,-93.6782"/>
<polygon fill="grey" stroke="grey" points="512.261,-90.1738 502.026,-92.9114 511.734,-97.1539 512.261,-90.1738"/>
</g>
<!-- 36&#45;&gt;35 -->
<g id="edge53" class="edge"><title>36&#45;&gt;35</title>
<path fill="none" stroke="grey" stroke-width="2" d="M1031.93,-287.697C1024.06,-279.22 1014.44,-268.864 1005.83,-259.583"/>
<polygon fill="grey" stroke="grey" points="1008.25,-257.051 998.883,-252.104 1003.12,-261.814 1008.25,-257.051"/>
</g>
<!-- 37 -->
<g id="node38" class="node"><title>37</title>
<path fill="none" stroke="#56d882" stroke-width="2" d="M715,-180C715,-180 625,-180 625,-180 619,-180 613,-174 613,-168 613,-168 613,-156 613,-156 613,-150 619,-144 625,-144 625,-144 715,-144 715,-144 721,-144 727,-150 727,-156 727,-156 727,-168 727,-168 727,-174 721,-180 715,-180"/>
<text text-anchor="middle" x="670" y="-159.5" font-family="sans" font-size="10.00">annotate_freebayes</text>
</g>
<!-- 37&#45;&gt;1 -->
<g id="edge9" class="edge"><title>37&#45;&gt;1</title>
<path fill="none" stroke="grey" stroke-width="2" d="M622.298,-143.876C588.214,-131.641 543.032,-115.422 511.738,-104.188"/>
<polygon fill="grey" stroke="grey" points="512.692,-100.812 502.097,-100.727 510.327,-107.4 512.692,-100.812"/>
</g>
<!-- 38&#45;&gt;37 -->
<g id="edge55" class="edge"><title>38&#45;&gt;37</title>
<path fill="none" stroke="grey" stroke-width="2" d="M670,-215.697C670,-207.983 670,-198.712 670,-190.112"/>
<polygon fill="grey" stroke="grey" points="673.5,-190.104 670,-180.104 666.5,-190.104 673.5,-190.104"/>
</g>
<!-- 39 -->
<g id="node40" class="node"><title>39</title>
<path fill="none" stroke="#56a2d8" stroke-width="2" d="M583,-180C583,-180 515,-180 515,-180 509,-180 503,-174 503,-168 503,-168 503,-156 503,-156 503,-150 509,-144 515,-144 515,-144 583,-144 583,-144 589,-144 595,-150 595,-156 595,-156 595,-168 595,-168 595,-174 589,-180 583,-180"/>
<text text-anchor="middle" x="549" y="-159.5" font-family="sans" font-size="10.00">lofreq_columns</text>
</g>
<!-- 39&#45;&gt;1 -->
<g id="edge10" class="edge"><title>39&#45;&gt;1</title>
<path fill="none" stroke="grey" stroke-width="2" d="M530.708,-143.697C521.567,-135.05 510.36,-124.449 500.4,-115.027"/>
<polygon fill="grey" stroke="grey" points="502.752,-112.434 493.082,-108.104 497.941,-117.519 502.752,-112.434"/>
</g>
<!-- 40&#45;&gt;39 -->
<g id="edge58" class="edge"><title>40&#45;&gt;39</title>
<path fill="none" stroke="grey" stroke-width="2" d="M552.764,-215.697C552.213,-207.983 551.551,-198.712 550.937,-190.112"/>
<polygon fill="grey" stroke="grey" points="554.425,-189.83 550.222,-180.104 547.443,-190.328 554.425,-189.83"/>
</g>
</g>
</svg>
