<?xml version="1.0" encoding="UTF-8" standalone="no"?>
<!DOCTYPE svg PUBLIC "-//W3C//DTD SVG 1.1//EN"
 "http://www.w3.org/Graphics/SVG/1.1/DTD/svg11.dtd">
<!-- Generated by graphviz version 2.30.1 (20180420.1509)
 -->
<!-- Title: snakemake_dag Pages: 1 -->
<svg width="1134pt" height="1412pt"
 viewBox="0.00 0.00 1134.00 1412.00" xmlns="http://www.w3.org/2000/svg" xmlns:xlink="http://www.w3.org/1999/xlink">
<g id="graph0" class="graph" transform="scale(1 1) rotate(0) translate(4 1408)">
<title>snakemake_dag</title>
<polygon fill="white" stroke="white" points="-4,5 -4,-1408 1131,-1408 1131,5 -4,5"/>
<!-- 0 -->
<g id="node1" class="node"><title>0</title>
<path fill="none" stroke="#56d8b9" stroke-width="2" d="M490,-36C490,-36 460,-36 460,-36 454,-36 448,-30 448,-24 448,-24 448,-12 448,-12 448,-6 454,-0 460,-0 460,-0 490,-0 490,-0 496,-0 502,-6 502,-12 502,-12 502,-24 502,-24 502,-30 496,-36 490,-36"/>
<text text-anchor="middle" x="475" y="-15.5" font-family="sans" font-size="10.00">all</text>
</g>
<!-- 1 -->
<g id="node2" class="node"><title>1</title>
<path fill="none" stroke="#d86e56" stroke-width="2" d="M490,-108C490,-108 460,-108 460,-108 454,-108 448,-102 448,-96 448,-96 448,-84 448,-84 448,-78 454,-72 460,-72 460,-72 490,-72 490,-72 496,-72 502,-78 502,-84 502,-84 502,-96 502,-96 502,-102 496,-108 490,-108"/>
<text text-anchor="middle" x="475" y="-87.5" font-family="sans" font-size="10.00">finish</text>
</g>
<!-- 1&#45;&gt;0 -->
<g id="edge1" class="edge"><title>1&#45;&gt;0</title>
<path fill="none" stroke="grey" stroke-width="2" d="M475,-71.6966C475,-63.9827 475,-54.7125 475,-46.1124"/>
<polygon fill="grey" stroke="grey" points="478.5,-46.1043 475,-36.1043 471.5,-46.1044 478.5,-46.1043"/>
</g>
<!-- 2 -->
<g id="node3" class="node"><title>2</title>
<path fill="none" stroke="#56d8a9" stroke-width="2" d="M92,-180C92,-180 12,-180 12,-180 6,-180 0,-174 0,-168 0,-168 0,-156 0,-156 0,-150 6,-144 12,-144 12,-144 92,-144 92,-144 98,-144 104,-150 104,-156 104,-156 104,-168 104,-168 104,-174 98,-180 92,-180"/>
<text text-anchor="middle" x="52" y="-159.5" font-family="sans" font-size="10.00">export_run_config</text>
</g>
<!-- 2&#45;&gt;1 -->
<g id="edge2" class="edge"><title>2&#45;&gt;1</title>
<path fill="none" stroke="grey" stroke-width="2" d="M104.136,-146.003C107.126,-145.289 110.096,-144.615 113,-144 230.138,-119.206 371.048,-102.189 437.207,-94.9393"/>
<polygon fill="grey" stroke="grey" points="437.979,-98.3762 447.544,-93.8197 437.225,-91.4169 437.979,-98.3762"/>
</g>
<!-- 3 -->
<g id="node4" class="node"><title>3</title>
<path fill="none" stroke="#56d88a" stroke-width="2" d="M188,-180C188,-180 134,-180 134,-180 128,-180 122,-174 122,-168 122,-168 122,-156 122,-156 122,-150 128,-144 134,-144 134,-144 188,-144 188,-144 194,-144 200,-150 200,-156 200,-156 200,-168 200,-168 200,-174 194,-180 188,-180"/>
<text text-anchor="middle" x="161" y="-159.5" font-family="sans" font-size="10.00">list_samples</text>
</g>
<!-- 3&#45;&gt;1 -->
<g id="edge3" class="edge"><title>3&#45;&gt;1</title>
<path fill="none" stroke="grey" stroke-width="2" d="M200.167,-146.883C203.476,-145.852 206.785,-144.875 210,-144 290.049,-122.218 385.94,-105.241 437.601,-96.8233"/>
<polygon fill="grey" stroke="grey" points="438.314,-100.254 447.629,-95.2065 437.199,-93.3429 438.314,-100.254"/>
</g>
<!-- 4 -->
<g id="node5" class="node"><title>4</title>
<path fill="none" stroke="#d8bc56" stroke-width="2" d="M291.25,-180C291.25,-180 230.75,-180 230.75,-180 224.75,-180 218.75,-174 218.75,-168 218.75,-168 218.75,-156 218.75,-156 218.75,-150 224.75,-144 230.75,-144 230.75,-144 291.25,-144 291.25,-144 297.25,-144 303.25,-150 303.25,-156 303.25,-156 303.25,-168 303.25,-168 303.25,-174 297.25,-180 291.25,-180"/>
<text text-anchor="middle" x="261" y="-159.5" font-family="sans" font-size="10.00">run_fastqc_all</text>
</g>
<!-- 4&#45;&gt;1 -->
<g id="edge4" class="edge"><title>4&#45;&gt;1</title>
<path fill="none" stroke="grey" stroke-width="2" d="M303.28,-147.17C342.639,-134.296 400.714,-115.299 438.204,-103.036"/>
<polygon fill="grey" stroke="grey" points="439.317,-106.354 447.734,-99.9189 437.141,-99.7013 439.317,-106.354"/>
</g>
<!-- 5 -->
<g id="node6" class="node"><title>5</title>
<path fill="none" stroke="#c6d856" stroke-width="2" d="M434.25,-180C434.25,-180 333.75,-180 333.75,-180 327.75,-180 321.75,-174 321.75,-168 321.75,-168 321.75,-156 321.75,-156 321.75,-150 327.75,-144 333.75,-144 333.75,-144 434.25,-144 434.25,-144 440.25,-144 446.25,-150 446.25,-156 446.25,-156 446.25,-168 446.25,-168 446.25,-174 440.25,-180 434.25,-180"/>
<text text-anchor="middle" x="384" y="-165" font-family="sans" font-size="10.00">run_fastqc_persample</text>
<text text-anchor="middle" x="384" y="-154" font-family="sans" font-size="10.00">sample: Sample_01</text>
</g>
<!-- 5&#45;&gt;1 -->
<g id="edge5" class="edge"><title>5&#45;&gt;1</title>
<path fill="none" stroke="grey" stroke-width="2" d="M406.494,-143.697C417.955,-134.881 432.058,-124.032 444.484,-114.474"/>
<polygon fill="grey" stroke="grey" points="446.972,-116.976 452.764,-108.104 442.704,-111.427 446.972,-116.976"/>
</g>
<!-- 6 -->
<g id="node7" class="node"><title>6</title>
<path fill="none" stroke="#d87d56" stroke-width="2" d="M517,-1116C517,-1116 437,-1116 437,-1116 431,-1116 425,-1110 425,-1104 425,-1104 425,-1092 425,-1092 425,-1086 431,-1080 437,-1080 437,-1080 517,-1080 517,-1080 523,-1080 529,-1086 529,-1092 529,-1092 529,-1104 529,-1104 529,-1110 523,-1116 517,-1116"/>
<text text-anchor="middle" x="477" y="-1095.5" font-family="sans" font-size="10.00">samtools_flagstat</text>
</g>
<!-- 6&#45;&gt;1 -->
<g id="edge6" class="edge"><title>6&#45;&gt;1</title>
<path fill="none" stroke="grey" stroke-width="2" d="M476.605,-1079.95C476.022,-1053.29 475,-1000.12 475,-955 475,-955 475,-955 475,-233 475,-192.996 475,-146.653 475,-118.08"/>
<polygon fill="grey" stroke="grey" points="478.5,-118.049 475,-108.049 471.5,-118.049 478.5,-118.049"/>
</g>
<!-- 7 -->
<g id="node8" class="node"><title>7</title>
<path fill="none" stroke="#5673d8" stroke-width="2" d="M651.25,-1260C651.25,-1260 562.75,-1260 562.75,-1260 556.75,-1260 550.75,-1254 550.75,-1248 550.75,-1248 550.75,-1236 550.75,-1236 550.75,-1230 556.75,-1224 562.75,-1224 562.75,-1224 651.25,-1224 651.25,-1224 657.25,-1224 663.25,-1230 663.25,-1236 663.25,-1236 663.25,-1248 663.25,-1248 663.25,-1254 657.25,-1260 651.25,-1260"/>
<text text-anchor="middle" x="607" y="-1245" font-family="sans" font-size="10.00">align_reads</text>
<text text-anchor="middle" x="607" y="-1234" font-family="sans" font-size="10.00">sample: Sample_01</text>
</g>
<!-- 7&#45;&gt;6 -->
<g id="edge11" class="edge"><title>7&#45;&gt;6</title>
<path fill="none" stroke="grey" stroke-width="2" d="M550.647,-1225.15C531.043,-1217.01 510.583,-1205.09 497,-1188 483.182,-1170.61 478.502,-1145.56 477.094,-1126.46"/>
<polygon fill="grey" stroke="grey" points="480.581,-1126.1 476.605,-1116.28 473.589,-1126.44 480.581,-1126.1"/>
</g>
<!-- 10 -->
<g id="node11" class="node"><title>10</title>
<path fill="none" stroke="#56a9d8" stroke-width="2" d="M610.25,-1188C610.25,-1188 517.75,-1188 517.75,-1188 511.75,-1188 505.75,-1182 505.75,-1176 505.75,-1176 505.75,-1164 505.75,-1164 505.75,-1158 511.75,-1152 517.75,-1152 517.75,-1152 610.25,-1152 610.25,-1152 616.25,-1152 622.25,-1158 622.25,-1164 622.25,-1164 622.25,-1176 622.25,-1176 622.25,-1182 616.25,-1188 610.25,-1188"/>
<text text-anchor="middle" x="564" y="-1167.5" font-family="sans" font-size="10.00">samtools_index_one</text>
</g>
<!-- 7&#45;&gt;10 -->
<g id="edge15" class="edge"><title>7&#45;&gt;10</title>
<path fill="none" stroke="grey" stroke-width="2" d="M596.371,-1223.7C591.372,-1215.56 585.309,-1205.69 579.788,-1196.7"/>
<polygon fill="grey" stroke="grey" points="582.723,-1194.79 574.507,-1188.1 576.759,-1198.46 582.723,-1194.79"/>
</g>
<!-- 21 -->
<g id="node22" class="node"><title>21</title>
<path fill="none" stroke="#56d8c9" stroke-width="2" d="M671,-1116C671,-1116 583,-1116 583,-1116 577,-1116 571,-1110 571,-1104 571,-1104 571,-1092 571,-1092 571,-1086 577,-1080 583,-1080 583,-1080 671,-1080 671,-1080 677,-1080 683,-1086 683,-1092 683,-1092 683,-1104 683,-1104 683,-1110 677,-1116 671,-1116"/>
<text text-anchor="middle" x="627" y="-1095.5" font-family="sans" font-size="10.00">picard_mark_dupes</text>
</g>
<!-- 7&#45;&gt;21 -->
<g id="edge36" class="edge"><title>7&#45;&gt;21</title>
<path fill="none" stroke="grey" stroke-width="2" d="M616.954,-1223.98C622.272,-1213.89 628.272,-1200.64 631,-1188 635.399,-1167.62 634.057,-1144.03 631.8,-1126.26"/>
<polygon fill="grey" stroke="grey" points="635.252,-1125.68 630.36,-1116.28 628.324,-1126.68 635.252,-1125.68"/>
</g>
<!-- 8 -->
<g id="node9" class="node"><title>8</title>
<path fill="none" stroke="#b6d856" stroke-width="2" d="M667.25,-1332C667.25,-1332 586.75,-1332 586.75,-1332 580.75,-1332 574.75,-1326 574.75,-1320 574.75,-1320 574.75,-1308 574.75,-1308 574.75,-1302 580.75,-1296 586.75,-1296 586.75,-1296 667.25,-1296 667.25,-1296 673.25,-1296 679.25,-1302 679.25,-1308 679.25,-1308 679.25,-1320 679.25,-1320 679.25,-1326 673.25,-1332 667.25,-1332"/>
<text text-anchor="middle" x="627" y="-1311.5" font-family="sans" font-size="10.00">create_bwa_index</text>
</g>
<!-- 8&#45;&gt;7 -->
<g id="edge13" class="edge"><title>8&#45;&gt;7</title>
<path fill="none" stroke="grey" stroke-width="2" d="M622.056,-1295.7C619.828,-1287.9 617.145,-1278.51 614.665,-1269.83"/>
<polygon fill="grey" stroke="grey" points="618,-1268.76 611.887,-1260.1 611.269,-1270.68 618,-1268.76"/>
</g>
<!-- 9 -->
<g id="node10" class="node"><title>9</title>
<path fill="none" stroke="#d89556" stroke-width="2" d="M822,-1404C822,-1404 776,-1404 776,-1404 770,-1404 764,-1398 764,-1392 764,-1392 764,-1380 764,-1380 764,-1374 770,-1368 776,-1368 776,-1368 822,-1368 822,-1368 828,-1368 834,-1374 834,-1380 834,-1380 834,-1392 834,-1392 834,-1398 828,-1404 822,-1404"/>
<text text-anchor="middle" x="799" y="-1383.5" font-family="sans" font-size="10.00">copy_fasta</text>
</g>
<!-- 9&#45;&gt;8 -->
<g id="edge14" class="edge"><title>9&#45;&gt;8</title>
<path fill="none" stroke="grey" stroke-width="2" d="M763.778,-1370.67C739.161,-1360.65 705.897,-1347.11 678.336,-1335.89"/>
<polygon fill="grey" stroke="grey" points="679.431,-1332.56 668.849,-1332.03 676.792,-1339.04 679.431,-1332.56"/>
</g>
<!-- 17 -->
<g id="node18" class="node"><title>17</title>
<path fill="none" stroke="#78d856" stroke-width="2" d="M788,-756C788,-756 700,-756 700,-756 694,-756 688,-750 688,-744 688,-744 688,-732 688,-732 688,-726 694,-720 700,-720 700,-720 788,-720 788,-720 794,-720 800,-726 800,-732 800,-732 800,-744 800,-744 800,-750 794,-756 788,-756"/>
<text text-anchor="middle" x="744" y="-735.5" font-family="sans" font-size="10.00">gatk_realign_indels</text>
</g>
<!-- 9&#45;&gt;17 -->
<g id="edge25" class="edge"><title>9&#45;&gt;17</title>
<path fill="none" stroke="grey" stroke-width="2" d="M831.469,-1367.94C869.974,-1345.09 929,-1300.66 929,-1243 929,-1243 929,-1243 929,-881 929,-818.933 862.663,-780.281 809.437,-759.257"/>
<polygon fill="grey" stroke="grey" points="810.599,-755.955 800.008,-755.66 808.103,-762.495 810.599,-755.955"/>
</g>
<!-- 18 -->
<g id="node19" class="node"><title>18</title>
<path fill="none" stroke="#70d856" stroke-width="2" d="M794.25,-828C794.25,-828 701.75,-828 701.75,-828 695.75,-828 689.75,-822 689.75,-816 689.75,-816 689.75,-804 689.75,-804 689.75,-798 695.75,-792 701.75,-792 701.75,-792 794.25,-792 794.25,-792 800.25,-792 806.25,-798 806.25,-804 806.25,-804 806.25,-816 806.25,-816 806.25,-822 800.25,-828 794.25,-828"/>
<text text-anchor="middle" x="748" y="-807.5" font-family="sans" font-size="10.00">gatk_realign_targets</text>
</g>
<!-- 9&#45;&gt;18 -->
<g id="edge29" class="edge"><title>9&#45;&gt;18</title>
<path fill="none" stroke="grey" stroke-width="2" d="M799.289,-1367.82C800.328,-1305.18 803.867,-1083.15 805,-900 805.099,-884 811.391,-878.668 805,-864 800.067,-852.677 791.389,-842.682 782.271,-834.512"/>
<polygon fill="grey" stroke="grey" points="784.499,-831.812 774.58,-828.088 780.011,-837.185 784.499,-831.812"/>
</g>
<!-- 22 -->
<g id="node23" class="node"><title>22</title>
<path fill="none" stroke="#d8d356" stroke-width="2" d="M758.25,-1188C758.25,-1188 693.75,-1188 693.75,-1188 687.75,-1188 681.75,-1182 681.75,-1176 681.75,-1176 681.75,-1164 681.75,-1164 681.75,-1158 687.75,-1152 693.75,-1152 693.75,-1152 758.25,-1152 758.25,-1152 764.25,-1152 770.25,-1158 770.25,-1164 770.25,-1164 770.25,-1176 770.25,-1176 770.25,-1182 764.25,-1188 758.25,-1188"/>
<text text-anchor="middle" x="726" y="-1167.5" font-family="sans" font-size="10.00">create_ref_dict</text>
</g>
<!-- 9&#45;&gt;22 -->
<g id="edge39" class="edge"><title>9&#45;&gt;22</title>
<path fill="none" stroke="grey" stroke-width="2" d="M793.15,-1367.85C780.469,-1330.68 750.369,-1242.44 735.149,-1197.82"/>
<polygon fill="grey" stroke="grey" points="738.42,-1196.57 731.878,-1188.23 731.794,-1198.83 738.42,-1196.57"/>
</g>
<!-- 25 -->
<g id="node26" class="node"><title>25</title>
<path fill="none" stroke="#d85656" stroke-width="2" d="M889,-1260C889,-1260 839,-1260 839,-1260 833,-1260 827,-1254 827,-1248 827,-1248 827,-1236 827,-1236 827,-1230 833,-1224 839,-1224 839,-1224 889,-1224 889,-1224 895,-1224 901,-1230 901,-1236 901,-1236 901,-1248 901,-1248 901,-1254 895,-1260 889,-1260"/>
<text text-anchor="middle" x="864" y="-1239.5" font-family="sans" font-size="10.00">index_fasta</text>
</g>
<!-- 9&#45;&gt;25 -->
<g id="edge41" class="edge"><title>9&#45;&gt;25</title>
<path fill="none" stroke="grey" stroke-width="2" d="M806.841,-1367.87C818.016,-1343.46 838.629,-1298.43 851.808,-1269.64"/>
<polygon fill="grey" stroke="grey" points="855.152,-1270.74 856.132,-1260.19 848.787,-1267.83 855.152,-1270.74"/>
</g>
<!-- 10&#45;&gt;6 -->
<g id="edge12" class="edge"><title>10&#45;&gt;6</title>
<path fill="none" stroke="grey" stroke-width="2" d="M542.494,-1151.7C531.537,-1142.88 518.054,-1132.03 506.175,-1122.47"/>
<polygon fill="grey" stroke="grey" points="508.244,-1119.65 498.258,-1116.1 503.855,-1125.1 508.244,-1119.65"/>
</g>
<!-- 10&#45;&gt;21 -->
<g id="edge37" class="edge"><title>10&#45;&gt;21</title>
<path fill="none" stroke="grey" stroke-width="2" d="M579.573,-1151.7C587.202,-1143.22 596.523,-1132.86 604.876,-1123.58"/>
<polygon fill="grey" stroke="grey" points="607.518,-1125.88 611.606,-1116.1 602.315,-1121.2 607.518,-1125.88"/>
</g>
<!-- 11 -->
<g id="node12" class="node"><title>11</title>
<path fill="none" stroke="#88d856" stroke-width="2" d="M843,-180C843,-180 757,-180 757,-180 751,-180 745,-174 745,-168 745,-168 745,-156 745,-156 745,-150 751,-144 757,-144 757,-144 843,-144 843,-144 849,-144 855,-150 855,-156 855,-156 855,-168 855,-168 855,-174 849,-180 843,-180"/>
<text text-anchor="middle" x="800" y="-159.5" font-family="sans" font-size="10.00">annotate_samtools</text>
</g>
<!-- 11&#45;&gt;1 -->
<g id="edge7" class="edge"><title>11&#45;&gt;1</title>
<path fill="none" stroke="grey" stroke-width="2" d="M744.894,-146.14C741.89,-145.4 738.91,-144.681 736,-144 656.607,-125.412 562.742,-107.283 512.018,-97.8009"/>
<polygon fill="grey" stroke="grey" points="512.64,-94.3565 502.168,-95.967 511.358,-101.238 512.64,-94.3565"/>
</g>
<!-- 12 -->
<g id="node13" class="node"><title>12</title>
<path fill="none" stroke="#59d856" stroke-width="2" d="M821.25,-252C821.25,-252 756.75,-252 756.75,-252 750.75,-252 744.75,-246 744.75,-240 744.75,-240 744.75,-228 744.75,-228 744.75,-222 750.75,-216 756.75,-216 756.75,-216 821.25,-216 821.25,-216 827.25,-216 833.25,-222 833.25,-228 833.25,-228 833.25,-240 833.25,-240 833.25,-246 827.25,-252 821.25,-252"/>
<text text-anchor="middle" x="789" y="-231.5" font-family="sans" font-size="10.00">filter_samtools</text>
</g>
<!-- 12&#45;&gt;11 -->
<g id="edge16" class="edge"><title>12&#45;&gt;11</title>
<path fill="none" stroke="grey" stroke-width="2" d="M791.719,-215.697C792.931,-207.983 794.388,-198.712 795.739,-190.112"/>
<polygon fill="grey" stroke="grey" points="799.217,-190.526 797.312,-180.104 792.302,-189.44 799.217,-190.526"/>
</g>
<!-- 13 -->
<g id="node14" class="node"><title>13</title>
<path fill="none" stroke="#56d892" stroke-width="2" d="M939,-324C939,-324 829,-324 829,-324 823,-324 817,-318 817,-312 817,-312 817,-300 817,-300 817,-294 823,-288 829,-288 829,-288 939,-288 939,-288 945,-288 951,-294 951,-300 951,-300 951,-312 951,-312 951,-318 945,-324 939,-324"/>
<text text-anchor="middle" x="884" y="-303.5" font-family="sans" font-size="10.00">bcftools_filter_samtools</text>
</g>
<!-- 13&#45;&gt;12 -->
<g id="edge17" class="edge"><title>13&#45;&gt;12</title>
<path fill="none" stroke="grey" stroke-width="2" d="M860.517,-287.697C848.437,-278.796 833.546,-267.823 820.484,-258.199"/>
<polygon fill="grey" stroke="grey" points="822.34,-255.219 812.213,-252.104 818.187,-260.854 822.34,-255.219"/>
</g>
<!-- 14 -->
<g id="node15" class="node"><title>14</title>
<path fill="none" stroke="#d6d856" stroke-width="2" d="M928,-396C928,-396 840,-396 840,-396 834,-396 828,-390 828,-384 828,-384 828,-372 828,-372 828,-366 834,-360 840,-360 840,-360 928,-360 928,-360 934,-360 940,-366 940,-372 940,-372 940,-384 940,-384 940,-390 934,-396 928,-396"/>
<text text-anchor="middle" x="884" y="-375.5" font-family="sans" font-size="10.00">anc_filter_samtools</text>
</g>
<!-- 14&#45;&gt;13 -->
<g id="edge20" class="edge"><title>14&#45;&gt;13</title>
<path fill="none" stroke="grey" stroke-width="2" d="M884,-359.697C884,-351.983 884,-342.712 884,-334.112"/>
<polygon fill="grey" stroke="grey" points="887.5,-334.104 884,-324.104 880.5,-334.104 887.5,-334.104"/>
</g>
<!-- 37 -->
<g id="node38" class="node"><title>37</title>
<path fill="none" stroke="#56b9d8" stroke-width="2" d="M1114.25,-324C1114.25,-324 981.75,-324 981.75,-324 975.75,-324 969.75,-318 969.75,-312 969.75,-312 969.75,-300 969.75,-300 969.75,-294 975.75,-288 981.75,-288 981.75,-288 1114.25,-288 1114.25,-288 1120.25,-288 1126.25,-294 1126.25,-300 1126.25,-300 1126.25,-312 1126.25,-312 1126.25,-318 1120.25,-324 1114.25,-324"/>
<text text-anchor="middle" x="1048" y="-303.5" font-family="sans" font-size="10.00">bcftools_filter_samtools_two</text>
</g>
<!-- 14&#45;&gt;37 -->
<g id="edge55" class="edge"><title>14&#45;&gt;37</title>
<path fill="none" stroke="grey" stroke-width="2" d="M924.119,-359.876C946.638,-350.264 974.918,-338.193 998.771,-328.013"/>
<polygon fill="grey" stroke="grey" points="1000.19,-331.213 1008.01,-324.068 997.44,-324.775 1000.19,-331.213"/>
</g>
<!-- 15 -->
<g id="node16" class="node"><title>15</title>
<path fill="none" stroke="#56d0d8" stroke-width="2" d="M902.25,-540C902.25,-540 835.75,-540 835.75,-540 829.75,-540 823.75,-534 823.75,-528 823.75,-528 823.75,-516 823.75,-516 823.75,-510 829.75,-504 835.75,-504 835.75,-504 902.25,-504 902.25,-504 908.25,-504 914.25,-510 914.25,-516 914.25,-516 914.25,-528 914.25,-528 914.25,-534 908.25,-540 902.25,-540"/>
<text text-anchor="middle" x="869" y="-519.5" font-family="sans" font-size="10.00">bcftools_pileup</text>
</g>
<!-- 15&#45;&gt;14 -->
<g id="edge21" class="edge"><title>15&#45;&gt;14</title>
<path fill="none" stroke="grey" stroke-width="2" d="M870.809,-503.871C873.366,-479.67 878.062,-435.211 881.106,-406.393"/>
<polygon fill="grey" stroke="grey" points="884.614,-406.502 882.184,-396.189 877.653,-405.766 884.614,-406.502"/>
</g>
<!-- 16 -->
<g id="node17" class="node"><title>16</title>
<path fill="none" stroke="#56d873" stroke-width="2" d="M790,-684C790,-684 698,-684 698,-684 692,-684 686,-678 686,-672 686,-672 686,-660 686,-660 686,-654 692,-648 698,-648 698,-648 790,-648 790,-648 796,-648 802,-654 802,-660 802,-660 802,-672 802,-672 802,-678 796,-684 790,-684"/>
<text text-anchor="middle" x="744" y="-663.5" font-family="sans" font-size="10.00">samtools_sort_three</text>
</g>
<!-- 16&#45;&gt;15 -->
<g id="edge22" class="edge"><title>16&#45;&gt;15</title>
<path fill="none" stroke="grey" stroke-width="2" d="M779.979,-647.909C795.942,-638.954 814.01,-626.759 827,-612 842.979,-593.844 854.129,-568.554 860.904,-549.571"/>
<polygon fill="grey" stroke="grey" points="864.244,-550.619 864.136,-540.025 857.614,-548.375 864.244,-550.619"/>
</g>
<!-- 26 -->
<g id="node27" class="node"><title>26</title>
<path fill="none" stroke="#56d87b" stroke-width="2" d="M790.25,-612C790.25,-612 689.75,-612 689.75,-612 683.75,-612 677.75,-606 677.75,-600 677.75,-600 677.75,-588 677.75,-588 677.75,-582 683.75,-576 689.75,-576 689.75,-576 790.25,-576 790.25,-576 796.25,-576 802.25,-582 802.25,-588 802.25,-588 802.25,-600 802.25,-600 802.25,-606 796.25,-612 790.25,-612"/>
<text text-anchor="middle" x="740" y="-591.5" font-family="sans" font-size="10.00">samtools_index_three</text>
</g>
<!-- 16&#45;&gt;26 -->
<g id="edge42" class="edge"><title>16&#45;&gt;26</title>
<path fill="none" stroke="grey" stroke-width="2" d="M743.011,-647.697C742.57,-639.983 742.041,-630.712 741.549,-622.112"/>
<polygon fill="grey" stroke="grey" points="745.042,-621.888 740.977,-612.104 738.054,-622.288 745.042,-621.888"/>
</g>
<!-- 29 -->
<g id="node30" class="node"><title>29</title>
<path fill="none" stroke="#afd856" stroke-width="2" d="M760.25,-540C760.25,-540 719.75,-540 719.75,-540 713.75,-540 707.75,-534 707.75,-528 707.75,-528 707.75,-516 707.75,-516 707.75,-510 713.75,-504 719.75,-504 719.75,-504 760.25,-504 760.25,-504 766.25,-504 772.25,-510 772.25,-516 772.25,-516 772.25,-528 772.25,-528 772.25,-534 766.25,-540 760.25,-540"/>
<text text-anchor="middle" x="740" y="-519.5" font-family="sans" font-size="10.00">freebayes</text>
</g>
<!-- 16&#45;&gt;29 -->
<g id="edge45" class="edge"><title>16&#45;&gt;29</title>
<path fill="none" stroke="grey" stroke-width="2" d="M776.527,-647.984C789.789,-639.18 803.699,-627.085 811,-612 817.971,-597.598 818.172,-590.303 811,-576 804.453,-562.944 792.995,-552.281 781.17,-544.033"/>
<polygon fill="grey" stroke="grey" points="782.855,-540.955 772.559,-538.454 779.049,-546.829 782.855,-540.955"/>
</g>
<!-- 33 -->
<g id="node34" class="node"><title>33</title>
<path fill="none" stroke="#9fd856" stroke-width="2" d="M631,-540C631,-540 601,-540 601,-540 595,-540 589,-534 589,-528 589,-528 589,-516 589,-516 589,-510 595,-504 601,-504 601,-504 631,-504 631,-504 637,-504 643,-510 643,-516 643,-516 643,-528 643,-528 643,-534 637,-540 631,-540"/>
<text text-anchor="middle" x="616" y="-519.5" font-family="sans" font-size="10.00">lofreq</text>
</g>
<!-- 16&#45;&gt;33 -->
<g id="edge50" class="edge"><title>16&#45;&gt;33</title>
<path fill="none" stroke="grey" stroke-width="2" d="M713.988,-647.912C699.282,-638.57 681.991,-626.047 669,-612 651.74,-593.336 637.381,-568.147 627.982,-549.33"/>
<polygon fill="grey" stroke="grey" points="631.04,-547.613 623.53,-540.139 624.74,-550.665 631.04,-547.613"/>
</g>
<!-- 17&#45;&gt;16 -->
<g id="edge24" class="edge"><title>17&#45;&gt;16</title>
<path fill="none" stroke="grey" stroke-width="2" d="M744,-719.697C744,-711.983 744,-702.712 744,-694.112"/>
<polygon fill="grey" stroke="grey" points="747.5,-694.104 744,-684.104 740.5,-694.104 747.5,-694.104"/>
</g>
<!-- 18&#45;&gt;17 -->
<g id="edge26" class="edge"><title>18&#45;&gt;17</title>
<path fill="none" stroke="grey" stroke-width="2" d="M747.011,-791.697C746.57,-783.983 746.041,-774.712 745.549,-766.112"/>
<polygon fill="grey" stroke="grey" points="749.042,-765.888 744.977,-756.104 742.054,-766.288 749.042,-765.888"/>
</g>
<!-- 19 -->
<g id="node20" class="node"><title>19</title>
<path fill="none" stroke="#97d856" stroke-width="2" d="M649.25,-972C649.25,-972 564.75,-972 564.75,-972 558.75,-972 552.75,-966 552.75,-960 552.75,-960 552.75,-948 552.75,-948 552.75,-942 558.75,-936 564.75,-936 564.75,-936 649.25,-936 649.25,-936 655.25,-936 661.25,-942 661.25,-948 661.25,-948 661.25,-960 661.25,-960 661.25,-966 655.25,-972 649.25,-972"/>
<text text-anchor="middle" x="607" y="-951.5" font-family="sans" font-size="10.00">samtools_sort_two</text>
</g>
<!-- 19&#45;&gt;17 -->
<g id="edge27" class="edge"><title>19&#45;&gt;17</title>
<path fill="none" stroke="grey" stroke-width="2" d="M569.609,-935.798C555.456,-927.203 540.872,-915.321 533,-900 525.688,-885.769 525.42,-878.091 533,-864 562.75,-808.694 628.26,-775.624 678.448,-757.526"/>
<polygon fill="grey" stroke="grey" points="679.659,-760.81 687.948,-754.211 677.353,-754.201 679.659,-760.81"/>
</g>
<!-- 19&#45;&gt;18 -->
<g id="edge30" class="edge"><title>19&#45;&gt;18</title>
<path fill="none" stroke="grey" stroke-width="2" d="M627.496,-935.864C639.327,-925.736 654.327,-912.486 667,-900 688.037,-879.273 710.537,-854.301 726.471,-836.091"/>
<polygon fill="grey" stroke="grey" points="729.379,-838.082 733.302,-828.24 724.098,-833.488 729.379,-838.082"/>
</g>
<!-- 23 -->
<g id="node24" class="node"><title>23</title>
<path fill="none" stroke="#61d856" stroke-width="2" d="M646.25,-900C646.25,-900 553.75,-900 553.75,-900 547.75,-900 541.75,-894 541.75,-888 541.75,-888 541.75,-876 541.75,-876 541.75,-870 547.75,-864 553.75,-864 553.75,-864 646.25,-864 646.25,-864 652.25,-864 658.25,-870 658.25,-876 658.25,-876 658.25,-888 658.25,-888 658.25,-894 652.25,-900 646.25,-900"/>
<text text-anchor="middle" x="600" y="-879.5" font-family="sans" font-size="10.00">samtools_index_two</text>
</g>
<!-- 19&#45;&gt;23 -->
<g id="edge40" class="edge"><title>19&#45;&gt;23</title>
<path fill="none" stroke="grey" stroke-width="2" d="M605.27,-935.697C604.498,-927.983 603.571,-918.712 602.711,-910.112"/>
<polygon fill="grey" stroke="grey" points="606.188,-909.706 601.71,-900.104 599.223,-910.403 606.188,-909.706"/>
</g>
<!-- 20 -->
<g id="node21" class="node"><title>20</title>
<path fill="none" stroke="#d88556" stroke-width="2" d="M667,-1044C667,-1044 579,-1044 579,-1044 573,-1044 567,-1038 567,-1032 567,-1032 567,-1020 567,-1020 567,-1014 573,-1008 579,-1008 579,-1008 667,-1008 667,-1008 673,-1008 679,-1014 679,-1020 679,-1020 679,-1032 679,-1032 679,-1038 673,-1044 667,-1044"/>
<text text-anchor="middle" x="623" y="-1023.5" font-family="sans" font-size="10.00">picard_read_groups</text>
</g>
<!-- 20&#45;&gt;19 -->
<g id="edge34" class="edge"><title>20&#45;&gt;19</title>
<path fill="none" stroke="grey" stroke-width="2" d="M619.045,-1007.7C617.282,-999.983 615.163,-990.712 613.197,-982.112"/>
<polygon fill="grey" stroke="grey" points="616.55,-981.073 610.91,-972.104 609.726,-982.633 616.55,-981.073"/>
</g>
<!-- 21&#45;&gt;20 -->
<g id="edge35" class="edge"><title>21&#45;&gt;20</title>
<path fill="none" stroke="grey" stroke-width="2" d="M626.011,-1079.7C625.57,-1071.98 625.041,-1062.71 624.549,-1054.11"/>
<polygon fill="grey" stroke="grey" points="628.042,-1053.89 623.977,-1044.1 621.054,-1054.29 628.042,-1053.89"/>
</g>
<!-- 22&#45;&gt;21 -->
<g id="edge38" class="edge"><title>22&#45;&gt;21</title>
<path fill="none" stroke="grey" stroke-width="2" d="M701.782,-1151.88C689.077,-1142.89 673.336,-1131.76 659.577,-1122.03"/>
<polygon fill="grey" stroke="grey" points="661.497,-1119.11 651.311,-1116.19 657.456,-1124.82 661.497,-1119.11"/>
</g>
<!-- 23&#45;&gt;17 -->
<g id="edge28" class="edge"><title>23&#45;&gt;17</title>
<path fill="none" stroke="grey" stroke-width="2" d="M614.296,-863.981C630.008,-845.597 656.304,-815.752 681,-792 691.426,-781.973 703.454,-771.591 714.189,-762.701"/>
<polygon fill="grey" stroke="grey" points="716.578,-765.269 722.097,-756.225 712.143,-759.853 716.578,-765.269"/>
</g>
<!-- 23&#45;&gt;18 -->
<g id="edge31" class="edge"><title>23&#45;&gt;18</title>
<path fill="none" stroke="grey" stroke-width="2" d="M636.205,-863.876C656.258,-854.392 681.372,-842.513 702.714,-832.419"/>
<polygon fill="grey" stroke="grey" points="704.369,-835.508 711.913,-828.068 701.376,-829.18 704.369,-835.508"/>
</g>
<!-- 24 -->
<g id="node25" class="node"><title>24</title>
<path fill="none" stroke="#56a2d8" stroke-width="2" d="M784.25,-900C784.25,-900 727.75,-900 727.75,-900 721.75,-900 715.75,-894 715.75,-888 715.75,-888 715.75,-876 715.75,-876 715.75,-870 721.75,-864 727.75,-864 727.75,-864 784.25,-864 784.25,-864 790.25,-864 796.25,-870 796.25,-876 796.25,-876 796.25,-888 796.25,-888 796.25,-894 790.25,-900 784.25,-900"/>
<text text-anchor="middle" x="756" y="-879.5" font-family="sans" font-size="10.00">gatk_register</text>
</g>
<!-- 24&#45;&gt;18 -->
<g id="edge32" class="edge"><title>24&#45;&gt;18</title>
<path fill="none" stroke="grey" stroke-width="2" d="M754.022,-863.697C753.141,-855.983 752.081,-846.712 751.099,-838.112"/>
<polygon fill="grey" stroke="grey" points="754.568,-837.642 749.955,-828.104 747.613,-838.437 754.568,-837.642"/>
</g>
<!-- 25&#45;&gt;18 -->
<g id="edge33" class="edge"><title>25&#45;&gt;18</title>
<path fill="none" stroke="grey" stroke-width="2" d="M864,-1223.95C864,-1197.29 864,-1144.11 864,-1099 864,-1099 864,-1099 864,-953 864,-911.914 864.146,-896.493 839,-864 829.087,-851.19 815.136,-840.899 801.13,-832.918"/>
<polygon fill="grey" stroke="grey" points="802.427,-829.642 791.96,-828.003 799.121,-835.812 802.427,-829.642"/>
</g>
<!-- 26&#45;&gt;15 -->
<g id="edge23" class="edge"><title>26&#45;&gt;15</title>
<path fill="none" stroke="grey" stroke-width="2" d="M771.557,-575.876C788.658,-566.596 809.982,-555.025 828.319,-545.075"/>
<polygon fill="grey" stroke="grey" points="830.202,-548.035 837.322,-540.19 826.863,-541.883 830.202,-548.035"/>
</g>
<!-- 26&#45;&gt;29 -->
<g id="edge46" class="edge"><title>26&#45;&gt;29</title>
<path fill="none" stroke="grey" stroke-width="2" d="M740,-575.697C740,-567.983 740,-558.712 740,-550.112"/>
<polygon fill="grey" stroke="grey" points="743.5,-550.104 740,-540.104 736.5,-550.104 743.5,-550.104"/>
</g>
<!-- 26&#45;&gt;33 -->
<g id="edge51" class="edge"><title>26&#45;&gt;33</title>
<path fill="none" stroke="grey" stroke-width="2" d="M709.666,-575.876C692.247,-566.042 670.268,-553.635 651.98,-543.311"/>
<polygon fill="grey" stroke="grey" points="653.495,-540.147 643.066,-538.279 650.054,-546.243 653.495,-540.147"/>
</g>
<!-- 27 -->
<g id="node28" class="node"><title>27</title>
<path fill="none" stroke="#d8a456" stroke-width="2" d="M786.25,-324C786.25,-324 673.75,-324 673.75,-324 667.75,-324 661.75,-318 661.75,-312 661.75,-312 661.75,-300 661.75,-300 661.75,-294 667.75,-288 673.75,-288 673.75,-288 786.25,-288 786.25,-288 792.25,-288 798.25,-294 798.25,-300 798.25,-300 798.25,-312 798.25,-312 798.25,-318 792.25,-324 786.25,-324"/>
<text text-anchor="middle" x="730" y="-303.5" font-family="sans" font-size="10.00">bcftools_filter_freebayes</text>
</g>
<!-- 27&#45;&gt;12 -->
<g id="edge18" class="edge"><title>27&#45;&gt;12</title>
<path fill="none" stroke="grey" stroke-width="2" d="M744.584,-287.697C751.658,-279.305 760.283,-269.07 768.045,-259.861"/>
<polygon fill="grey" stroke="grey" points="770.815,-262.006 774.583,-252.104 765.463,-257.495 770.815,-262.006"/>
</g>
<!-- 39 -->
<g id="node40" class="node"><title>39</title>
<path fill="none" stroke="#56d8d0" stroke-width="2" d="M704.25,-252C704.25,-252 635.75,-252 635.75,-252 629.75,-252 623.75,-246 623.75,-240 623.75,-240 623.75,-228 623.75,-228 623.75,-222 629.75,-216 635.75,-216 635.75,-216 704.25,-216 704.25,-216 710.25,-216 716.25,-222 716.25,-228 716.25,-228 716.25,-240 716.25,-240 716.25,-246 710.25,-252 704.25,-252"/>
<text text-anchor="middle" x="670" y="-231.5" font-family="sans" font-size="10.00">filter_freebayes</text>
</g>
<!-- 27&#45;&gt;39 -->
<g id="edge57" class="edge"><title>27&#45;&gt;39</title>
<path fill="none" stroke="grey" stroke-width="2" d="M715.169,-287.697C707.975,-279.305 699.203,-269.07 691.31,-259.861"/>
<polygon fill="grey" stroke="grey" points="693.826,-257.419 684.661,-252.104 688.511,-261.975 693.826,-257.419"/>
</g>
<!-- 28 -->
<g id="node29" class="node"><title>28</title>
<path fill="none" stroke="#56c9d8" stroke-width="2" d="M784,-468C784,-468 692,-468 692,-468 686,-468 680,-462 680,-456 680,-456 680,-444 680,-444 680,-438 686,-432 692,-432 692,-432 784,-432 784,-432 790,-432 796,-438 796,-444 796,-444 796,-456 796,-456 796,-462 790,-468 784,-468"/>
<text text-anchor="middle" x="738" y="-447.5" font-family="sans" font-size="10.00">anc_filter_freebayes</text>
</g>
<!-- 28&#45;&gt;27 -->
<g id="edge43" class="edge"><title>28&#45;&gt;27</title>
<path fill="none" stroke="grey" stroke-width="2" d="M737.035,-431.871C735.672,-407.67 733.167,-363.211 731.543,-334.393"/>
<polygon fill="grey" stroke="grey" points="735.025,-333.977 730.968,-324.189 728.037,-334.37 735.025,-333.977"/>
</g>
<!-- 29&#45;&gt;28 -->
<g id="edge44" class="edge"><title>29&#45;&gt;28</title>
<path fill="none" stroke="grey" stroke-width="2" d="M739.506,-503.697C739.285,-495.983 739.02,-486.712 738.775,-478.112"/>
<polygon fill="grey" stroke="grey" points="742.273,-478 738.489,-468.104 735.276,-478.2 742.273,-478"/>
</g>
<!-- 30 -->
<g id="node31" class="node"><title>30</title>
<path fill="none" stroke="#568ad8" stroke-width="2" d="M631.25,-324C631.25,-324 538.75,-324 538.75,-324 532.75,-324 526.75,-318 526.75,-312 526.75,-312 526.75,-300 526.75,-300 526.75,-294 532.75,-288 538.75,-288 538.75,-288 631.25,-288 631.25,-288 637.25,-288 643.25,-294 643.25,-300 643.25,-300 643.25,-312 643.25,-312 643.25,-318 637.25,-324 631.25,-324"/>
<text text-anchor="middle" x="585" y="-303.5" font-family="sans" font-size="10.00">bcftools_filter_lofreq</text>
</g>
<!-- 30&#45;&gt;12 -->
<g id="edge19" class="edge"><title>30&#45;&gt;12</title>
<path fill="none" stroke="grey" stroke-width="2" d="M634.643,-287.966C664.973,-277.558 703.777,-264.243 734.89,-253.567"/>
<polygon fill="grey" stroke="grey" points="736.378,-256.757 744.701,-250.201 734.107,-250.136 736.378,-256.757"/>
</g>
<!-- 30&#45;&gt;39 -->
<g id="edge58" class="edge"><title>30&#45;&gt;39</title>
<path fill="none" stroke="grey" stroke-width="2" d="M606.011,-287.697C616.716,-278.881 629.89,-268.032 641.496,-258.474"/>
<polygon fill="grey" stroke="grey" points="643.736,-261.163 649.23,-252.104 639.286,-255.76 643.736,-261.163"/>
</g>
<!-- 41 -->
<g id="node42" class="node"><title>41</title>
<path fill="none" stroke="#5692d8" stroke-width="2" d="M589,-252C589,-252 519,-252 519,-252 513,-252 507,-246 507,-240 507,-240 507,-228 507,-228 507,-222 513,-216 519,-216 519,-216 589,-216 589,-216 595,-216 601,-222 601,-228 601,-228 601,-240 601,-240 601,-246 595,-252 589,-252"/>
<text text-anchor="middle" x="554" y="-231.5" font-family="sans" font-size="10.00">annotate_lofreq</text>
</g>
<!-- 30&#45;&gt;41 -->
<g id="edge60" class="edge"><title>30&#45;&gt;41</title>
<path fill="none" stroke="grey" stroke-width="2" d="M577.337,-287.697C573.808,-279.728 569.544,-270.1 565.631,-261.264"/>
<polygon fill="grey" stroke="grey" points="568.824,-259.831 561.575,-252.104 562.424,-262.665 568.824,-259.831"/>
</g>
<!-- 31 -->
<g id="node32" class="node"><title>31</title>
<path fill="none" stroke="#56d863" stroke-width="2" d="M628.25,-396C628.25,-396 557.75,-396 557.75,-396 551.75,-396 545.75,-390 545.75,-384 545.75,-384 545.75,-372 545.75,-372 545.75,-366 551.75,-360 557.75,-360 557.75,-360 628.25,-360 628.25,-360 634.25,-360 640.25,-366 640.25,-372 640.25,-372 640.25,-384 640.25,-384 640.25,-390 634.25,-396 628.25,-396"/>
<text text-anchor="middle" x="593" y="-375.5" font-family="sans" font-size="10.00">anc_filter_lofreq</text>
</g>
<!-- 31&#45;&gt;30 -->
<g id="edge47" class="edge"><title>31&#45;&gt;30</title>
<path fill="none" stroke="grey" stroke-width="2" d="M591.022,-359.697C590.141,-351.983 589.081,-342.712 588.099,-334.112"/>
<polygon fill="grey" stroke="grey" points="591.568,-333.642 586.955,-324.104 584.613,-334.437 591.568,-333.642"/>
</g>
<!-- 32 -->
<g id="node33" class="node"><title>32</title>
<path fill="none" stroke="#56d8a2" stroke-width="2" d="M634.25,-468C634.25,-468 581.75,-468 581.75,-468 575.75,-468 569.75,-462 569.75,-456 569.75,-456 569.75,-444 569.75,-444 569.75,-438 575.75,-432 581.75,-432 581.75,-432 634.25,-432 634.25,-432 640.25,-432 646.25,-438 646.25,-444 646.25,-444 646.25,-456 646.25,-456 646.25,-462 640.25,-468 634.25,-468"/>
<text text-anchor="middle" x="608" y="-447.5" font-family="sans" font-size="10.00">unzip_lofreq</text>
</g>
<!-- 32&#45;&gt;31 -->
<g id="edge48" class="edge"><title>32&#45;&gt;31</title>
<path fill="none" stroke="grey" stroke-width="2" d="M604.292,-431.697C602.639,-423.983 600.653,-414.712 598.81,-406.112"/>
<polygon fill="grey" stroke="grey" points="602.183,-405.149 596.665,-396.104 595.338,-406.616 602.183,-405.149"/>
</g>
<!-- 33&#45;&gt;32 -->
<g id="edge49" class="edge"><title>33&#45;&gt;32</title>
<path fill="none" stroke="grey" stroke-width="2" d="M614.022,-503.697C613.141,-495.983 612.081,-486.712 611.099,-478.112"/>
<polygon fill="grey" stroke="grey" points="614.568,-477.642 609.955,-468.104 607.613,-478.437 614.568,-477.642"/>
</g>
<!-- 34 -->
<g id="node35" class="node"><title>34</title>
<path fill="none" stroke="#d8c356" stroke-width="2" d="M609,-612C609,-612 515,-612 515,-612 509,-612 503,-606 503,-600 503,-600 503,-588 503,-588 503,-582 509,-576 515,-576 515,-576 609,-576 609,-576 615,-576 621,-582 621,-588 621,-588 621,-600 621,-600 621,-606 615,-612 609,-612"/>
<text text-anchor="middle" x="562" y="-591.5" font-family="sans" font-size="10.00">index_ancestor_bam</text>
</g>
<!-- 34&#45;&gt;33 -->
<g id="edge52" class="edge"><title>34&#45;&gt;33</title>
<path fill="none" stroke="grey" stroke-width="2" d="M575.348,-575.697C581.757,-567.389 589.558,-557.277 596.606,-548.141"/>
<polygon fill="grey" stroke="grey" points="599.468,-550.16 602.805,-540.104 593.926,-545.884 599.468,-550.16"/>
</g>
<!-- 35 -->
<g id="node36" class="node"><title>35</title>
<path fill="none" stroke="#5663d8" stroke-width="2" d="M607,-684C607,-684 517,-684 517,-684 511,-684 505,-678 505,-672 505,-672 505,-660 505,-660 505,-654 511,-648 517,-648 517,-648 607,-648 607,-648 613,-648 619,-654 619,-660 619,-660 619,-672 619,-672 619,-678 613,-684 607,-684"/>
<text text-anchor="middle" x="562" y="-663.5" font-family="sans" font-size="10.00">copy_ancestor_bam</text>
</g>
<!-- 35&#45;&gt;34 -->
<g id="edge53" class="edge"><title>35&#45;&gt;34</title>
<path fill="none" stroke="grey" stroke-width="2" d="M562,-647.697C562,-639.983 562,-630.712 562,-622.112"/>
<polygon fill="grey" stroke="grey" points="565.5,-622.104 562,-612.104 558.5,-622.104 565.5,-622.104"/>
</g>
<!-- 36 -->
<g id="node37" class="node"><title>36</title>
<path fill="none" stroke="#567bd8" stroke-width="2" d="M1038,-252C1038,-252 928,-252 928,-252 922,-252 916,-246 916,-240 916,-240 916,-228 916,-228 916,-222 922,-216 928,-216 928,-216 1038,-216 1038,-216 1044,-216 1050,-222 1050,-228 1050,-228 1050,-240 1050,-240 1050,-246 1044,-252 1038,-252"/>
<text text-anchor="middle" x="983" y="-231.5" font-family="sans" font-size="10.00">annotate_samtools_two</text>
</g>
<!-- 36&#45;&gt;1 -->
<g id="edge8" class="edge"><title>36&#45;&gt;1</title>
<path fill="none" stroke="grey" stroke-width="2" d="M966.234,-215.975C944.665,-195.214 905.062,-160.82 864,-144 800.566,-118.015 596.658,-100.144 512.188,-93.6782"/>
<polygon fill="grey" stroke="grey" points="512.261,-90.1738 502.026,-92.9114 511.734,-97.1539 512.261,-90.1738"/>
</g>
<!-- 37&#45;&gt;36 -->
<g id="edge54" class="edge"><title>37&#45;&gt;36</title>
<path fill="none" stroke="grey" stroke-width="2" d="M1031.93,-287.697C1024.06,-279.22 1014.44,-268.864 1005.83,-259.583"/>
<polygon fill="grey" stroke="grey" points="1008.25,-257.051 998.883,-252.104 1003.12,-261.814 1008.25,-257.051"/>
</g>
<!-- 38 -->
<g id="node39" class="node"><title>38</title>
<path fill="none" stroke="#d8ac56" stroke-width="2" d="M715,-180C715,-180 625,-180 625,-180 619,-180 613,-174 613,-168 613,-168 613,-156 613,-156 613,-150 619,-144 625,-144 625,-144 715,-144 715,-144 721,-144 727,-150 727,-156 727,-156 727,-168 727,-168 727,-174 721,-180 715,-180"/>
<text text-anchor="middle" x="670" y="-159.5" font-family="sans" font-size="10.00">annotate_freebayes</text>
</g>
<!-- 38&#45;&gt;1 -->
<g id="edge9" class="edge"><title>38&#45;&gt;1</title>
<path fill="none" stroke="grey" stroke-width="2" d="M622.298,-143.876C588.214,-131.641 543.032,-115.422 511.738,-104.188"/>
<polygon fill="grey" stroke="grey" points="512.692,-100.812 502.097,-100.727 510.327,-107.4 512.692,-100.812"/>
</g>
<!-- 39&#45;&gt;38 -->
<g id="edge56" class="edge"><title>39&#45;&gt;38</title>
<path fill="none" stroke="grey" stroke-width="2" d="M670,-215.697C670,-207.983 670,-198.712 670,-190.112"/>
<polygon fill="grey" stroke="grey" points="673.5,-190.104 670,-180.104 666.5,-190.104 673.5,-190.104"/>
</g>
<!-- 40 -->
<g id="node41" class="node"><title>40</title>
<path fill="none" stroke="#d86656" stroke-width="2" d="M583,-180C583,-180 515,-180 515,-180 509,-180 503,-174 503,-168 503,-168 503,-156 503,-156 503,-150 509,-144 515,-144 515,-144 583,-144 583,-144 589,-144 595,-150 595,-156 595,-156 595,-168 595,-168 595,-174 589,-180 583,-180"/>
<text text-anchor="middle" x="549" y="-159.5" font-family="sans" font-size="10.00">lofreq_columns</text>
</g>
<!-- 40&#45;&gt;1 -->
<g id="edge10" class="edge"><title>40&#45;&gt;1</title>
<path fill="none" stroke="grey" stroke-width="2" d="M530.708,-143.697C521.567,-135.05 510.36,-124.449 500.4,-115.027"/>
<polygon fill="grey" stroke="grey" points="502.752,-112.434 493.082,-108.104 497.941,-117.519 502.752,-112.434"/>
</g>
<!-- 41&#45;&gt;40 -->
<g id="edge59" class="edge"><title>41&#45;&gt;40</title>
<path fill="none" stroke="grey" stroke-width="2" d="M552.764,-215.697C552.213,-207.983 551.551,-198.712 550.937,-190.112"/>
<polygon fill="grey" stroke="grey" points="554.425,-189.83 550.222,-180.104 547.443,-190.328 554.425,-189.83"/>
</g>
</g>
</svg>
