<?xml version="1.0" encoding="UTF-8" standalone="no"?>
<!DOCTYPE svg PUBLIC "-//W3C//DTD SVG 1.1//EN"
 "http://www.w3.org/Graphics/SVG/1.1/DTD/svg11.dtd">
<!-- Generated by graphviz version 2.30.1 (20180420.1509)
 -->
<!-- Title: snakemake_dag Pages: 1 -->
<svg width="1033pt" height="1556pt"
 viewBox="0.00 0.00 1033.00 1556.00" xmlns="http://www.w3.org/2000/svg" xmlns:xlink="http://www.w3.org/1999/xlink">
<g id="graph0" class="graph" transform="scale(1 1) rotate(0) translate(4 1552)">
<title>snakemake_dag</title>
<polygon fill="white" stroke="white" points="-4,5 -4,-1552 1030,-1552 1030,5 -4,5"/>
<!-- 0 -->
<g id="node1" class="node"><title>0</title>
<path fill="none" stroke="#d85656" stroke-width="2" d="M426,-36C426,-36 396,-36 396,-36 390,-36 384,-30 384,-24 384,-24 384,-12 384,-12 384,-6 390,-0 396,-0 396,-0 426,-0 426,-0 432,-0 438,-6 438,-12 438,-12 438,-24 438,-24 438,-30 432,-36 426,-36"/>
<text text-anchor="middle" x="411" y="-15.5" font-family="sans" font-size="10.00">all</text>
</g>
<!-- 1 -->
<g id="node2" class="node"><title>1</title>
<path fill="none" stroke="#568ad8" stroke-width="2" d="M426,-108C426,-108 396,-108 396,-108 390,-108 384,-102 384,-96 384,-96 384,-84 384,-84 384,-78 390,-72 396,-72 396,-72 426,-72 426,-72 432,-72 438,-78 438,-84 438,-84 438,-96 438,-96 438,-102 432,-108 426,-108"/>
<text text-anchor="middle" x="411" y="-87.5" font-family="sans" font-size="10.00">finish</text>
</g>
<!-- 1&#45;&gt;0 -->
<g id="edge1" class="edge"><title>1&#45;&gt;0</title>
<path fill="none" stroke="grey" stroke-width="2" d="M411,-71.6966C411,-63.9827 411,-54.7125 411,-46.1124"/>
<polygon fill="grey" stroke="grey" points="414.5,-46.1043 411,-36.1043 407.5,-46.1044 414.5,-46.1043"/>
</g>
<!-- 2 -->
<g id="node3" class="node"><title>2</title>
<path fill="none" stroke="#d8c356" stroke-width="2" stroke-dasharray="5,2" d="M66,-180C66,-180 12,-180 12,-180 6,-180 0,-174 0,-168 0,-168 0,-156 0,-156 0,-150 6,-144 12,-144 12,-144 66,-144 66,-144 72,-144 78,-150 78,-156 78,-156 78,-168 78,-168 78,-174 72,-180 66,-180"/>
<text text-anchor="middle" x="39" y="-159.5" font-family="sans" font-size="10.00">list_samples</text>
</g>
<!-- 2&#45;&gt;1 -->
<g id="edge2" class="edge"><title>2&#45;&gt;1</title>
<path fill="none" stroke="grey" stroke-width="2" d="M78.1166,-146.506C81.1039,-145.596 84.0886,-144.747 87,-144 189.078,-117.798 312.72,-101.797 373.526,-94.9305"/>
<polygon fill="grey" stroke="grey" points="374.228,-98.3741 383.781,-93.7922 373.456,-91.4169 374.228,-98.3741"/>
</g>
<!-- 3 -->
<g id="node4" class="node"><title>3</title>
<path fill="none" stroke="#56d873" stroke-width="2" d="M169.25,-180C169.25,-180 108.75,-180 108.75,-180 102.75,-180 96.75,-174 96.75,-168 96.75,-168 96.75,-156 96.75,-156 96.75,-150 102.75,-144 108.75,-144 108.75,-144 169.25,-144 169.25,-144 175.25,-144 181.25,-150 181.25,-156 181.25,-156 181.25,-168 181.25,-168 181.25,-174 175.25,-180 169.25,-180"/>
<text text-anchor="middle" x="139" y="-159.5" font-family="sans" font-size="10.00">run_fastqc_all</text>
</g>
<!-- 3&#45;&gt;1 -->
<g id="edge3" class="edge"><title>3&#45;&gt;1</title>
<path fill="none" stroke="grey" stroke-width="2" d="M181.483,-146.807C184.694,-145.827 187.893,-144.881 191,-144 254.687,-125.949 329.842,-108.7 373.781,-99.0172"/>
<polygon fill="grey" stroke="grey" points="374.705,-102.398 383.724,-96.8377 373.207,-95.56 374.705,-102.398"/>
</g>
<!-- 4 -->
<g id="node5" class="node"><title>4</title>
<path fill="none" stroke="#97d856" stroke-width="2" d="M334,-180C334,-180 212,-180 212,-180 206,-180 200,-174 200,-168 200,-168 200,-156 200,-156 200,-150 206,-144 212,-144 212,-144 334,-144 334,-144 340,-144 346,-150 346,-156 346,-156 346,-168 346,-168 346,-174 340,-180 334,-180"/>
<text text-anchor="middle" x="273" y="-165" font-family="sans" font-size="10.00">run_fastqc_persample</text>
<text text-anchor="middle" x="273" y="-154" font-family="sans" font-size="10.00">sample: RBcaff_1blue1_S9</text>
</g>
<!-- 4&#45;&gt;1 -->
<g id="edge4" class="edge"><title>4&#45;&gt;1</title>
<path fill="none" stroke="grey" stroke-width="2" d="M306.759,-143.876C327.333,-133.44 353.622,-120.105 374.652,-109.438"/>
<polygon fill="grey" stroke="grey" points="376.272,-112.54 383.607,-104.895 373.105,-106.298 376.272,-112.54"/>
</g>
<!-- 5 -->
<g id="node6" class="node"><title>5</title>
<path fill="none" stroke="#d89556" stroke-width="2" d="M441,-1116C441,-1116 361,-1116 361,-1116 355,-1116 349,-1110 349,-1104 349,-1104 349,-1092 349,-1092 349,-1086 355,-1080 361,-1080 361,-1080 441,-1080 441,-1080 447,-1080 453,-1086 453,-1092 453,-1092 453,-1104 453,-1104 453,-1110 447,-1116 441,-1116"/>
<text text-anchor="middle" x="401" y="-1095.5" font-family="sans" font-size="10.00">samtools_flagstat</text>
</g>
<!-- 5&#45;&gt;1 -->
<g id="edge5" class="edge"><title>5&#45;&gt;1</title>
<path fill="none" stroke="grey" stroke-width="2" d="M395.536,-1079.71C387.647,-1053.18 374,-1000.67 374,-955 374,-955 374,-955 374,-233 374,-191.705 388.834,-145.774 399.717,-117.634"/>
<polygon fill="grey" stroke="grey" points="403.06,-118.698 403.512,-108.113 396.558,-116.106 403.06,-118.698"/>
</g>
<!-- 6 -->
<g id="node7" class="node"><title>6</title>
<path fill="none" stroke="#56c1d8" stroke-width="2" d="M538.25,-1260C538.25,-1260 453.75,-1260 453.75,-1260 447.75,-1260 441.75,-1254 441.75,-1248 441.75,-1248 441.75,-1236 441.75,-1236 441.75,-1230 447.75,-1224 453.75,-1224 453.75,-1224 538.25,-1224 538.25,-1224 544.25,-1224 550.25,-1230 550.25,-1236 550.25,-1236 550.25,-1248 550.25,-1248 550.25,-1254 544.25,-1260 538.25,-1260"/>
<text text-anchor="middle" x="496" y="-1239.5" font-family="sans" font-size="10.00">samtools_sort_one</text>
</g>
<!-- 6&#45;&gt;5 -->
<g id="edge10" class="edge"><title>6&#45;&gt;5</title>
<path fill="none" stroke="grey" stroke-width="2" d="M461.298,-1223.89C446.783,-1215.07 430.999,-1202.99 421,-1188 408.747,-1169.63 403.908,-1144.88 402.042,-1126.14"/>
<polygon fill="grey" stroke="grey" points="405.531,-1125.86 401.268,-1116.16 398.552,-1126.4 405.531,-1125.86"/>
</g>
<!-- 11 -->
<g id="node12" class="node"><title>11</title>
<path fill="none" stroke="#d8b456" stroke-width="2" d="M534.25,-1188C534.25,-1188 441.75,-1188 441.75,-1188 435.75,-1188 429.75,-1182 429.75,-1176 429.75,-1176 429.75,-1164 429.75,-1164 429.75,-1158 435.75,-1152 441.75,-1152 441.75,-1152 534.25,-1152 534.25,-1152 540.25,-1152 546.25,-1158 546.25,-1164 546.25,-1164 546.25,-1176 546.25,-1176 546.25,-1182 540.25,-1188 534.25,-1188"/>
<text text-anchor="middle" x="488" y="-1167.5" font-family="sans" font-size="10.00">samtools_index_one</text>
</g>
<!-- 6&#45;&gt;11 -->
<g id="edge16" class="edge"><title>6&#45;&gt;11</title>
<path fill="none" stroke="grey" stroke-width="2" d="M494.022,-1223.7C493.141,-1215.98 492.081,-1206.71 491.099,-1198.11"/>
<polygon fill="grey" stroke="grey" points="494.568,-1197.64 489.955,-1188.1 487.613,-1198.44 494.568,-1197.64"/>
</g>
<!-- 22 -->
<g id="node23" class="node"><title>22</title>
<path fill="none" stroke="#d89c56" stroke-width="2" d="M595,-1116C595,-1116 507,-1116 507,-1116 501,-1116 495,-1110 495,-1104 495,-1104 495,-1092 495,-1092 495,-1086 501,-1080 507,-1080 507,-1080 595,-1080 595,-1080 601,-1080 607,-1086 607,-1092 607,-1092 607,-1104 607,-1104 607,-1110 601,-1116 595,-1116"/>
<text text-anchor="middle" x="551" y="-1095.5" font-family="sans" font-size="10.00">picard_mark_dupes</text>
</g>
<!-- 6&#45;&gt;22 -->
<g id="edge37" class="edge"><title>6&#45;&gt;22</title>
<path fill="none" stroke="grey" stroke-width="2" d="M523.8,-1223.87C535.771,-1214.84 548.495,-1202.59 555,-1188 563.636,-1168.63 561.875,-1144.49 558.376,-1126.23"/>
<polygon fill="grey" stroke="grey" points="561.747,-1125.26 556.181,-1116.25 554.91,-1126.76 561.747,-1125.26"/>
</g>
<!-- 7 -->
<g id="node8" class="node"><title>7</title>
<path fill="none" stroke="#5663d8" stroke-width="2" d="M543,-1332C543,-1332 477,-1332 477,-1332 471,-1332 465,-1326 465,-1320 465,-1320 465,-1308 465,-1308 465,-1302 471,-1296 477,-1296 477,-1296 543,-1296 543,-1296 549,-1296 555,-1302 555,-1308 555,-1308 555,-1320 555,-1320 555,-1326 549,-1332 543,-1332"/>
<text text-anchor="middle" x="510" y="-1311.5" font-family="sans" font-size="10.00">samtools_view</text>
</g>
<!-- 7&#45;&gt;6 -->
<g id="edge12" class="edge"><title>7&#45;&gt;6</title>
<path fill="none" stroke="grey" stroke-width="2" d="M506.539,-1295.7C504.997,-1287.98 503.142,-1278.71 501.422,-1270.11"/>
<polygon fill="grey" stroke="grey" points="504.814,-1269.22 499.421,-1260.1 497.95,-1270.6 504.814,-1269.22"/>
</g>
<!-- 8 -->
<g id="node9" class="node"><title>8</title>
<path fill="none" stroke="#d86656" stroke-width="2" d="M584,-1404C584,-1404 462,-1404 462,-1404 456,-1404 450,-1398 450,-1392 450,-1392 450,-1380 450,-1380 450,-1374 456,-1368 462,-1368 462,-1368 584,-1368 584,-1368 590,-1368 596,-1374 596,-1380 596,-1380 596,-1392 596,-1392 596,-1398 590,-1404 584,-1404"/>
<text text-anchor="middle" x="523" y="-1389" font-family="sans" font-size="10.00">align_reads</text>
<text text-anchor="middle" x="523" y="-1378" font-family="sans" font-size="10.00">sample: RBcaff_1blue1_S9</text>
</g>
<!-- 8&#45;&gt;7 -->
<g id="edge13" class="edge"><title>8&#45;&gt;7</title>
<path fill="none" stroke="grey" stroke-width="2" d="M519.787,-1367.7C518.354,-1359.98 516.632,-1350.71 515.035,-1342.11"/>
<polygon fill="grey" stroke="grey" points="518.444,-1341.3 513.177,-1332.1 511.561,-1342.58 518.444,-1341.3"/>
</g>
<!-- 9 -->
<g id="node10" class="node"><title>9</title>
<path fill="none" stroke="#56a9d8" stroke-width="2" stroke-dasharray="5,2" d="M585.25,-1476C585.25,-1476 504.75,-1476 504.75,-1476 498.75,-1476 492.75,-1470 492.75,-1464 492.75,-1464 492.75,-1452 492.75,-1452 492.75,-1446 498.75,-1440 504.75,-1440 504.75,-1440 585.25,-1440 585.25,-1440 591.25,-1440 597.25,-1446 597.25,-1452 597.25,-1452 597.25,-1464 597.25,-1464 597.25,-1470 591.25,-1476 585.25,-1476"/>
<text text-anchor="middle" x="545" y="-1455.5" font-family="sans" font-size="10.00">create_bwa_index</text>
</g>
<!-- 9&#45;&gt;8 -->
<g id="edge14" class="edge"><title>9&#45;&gt;8</title>
<path fill="none" stroke="grey" stroke-width="2" d="M539.562,-1439.7C537.111,-1431.9 534.16,-1422.51 531.432,-1413.83"/>
<polygon fill="grey" stroke="grey" points="534.713,-1412.59 528.376,-1404.1 528.035,-1414.69 534.713,-1412.59"/>
</g>
<!-- 10 -->
<g id="node11" class="node"><title>10</title>
<path fill="none" stroke="#68d856" stroke-width="2" stroke-dasharray="5,2" d="M722,-1548C722,-1548 676,-1548 676,-1548 670,-1548 664,-1542 664,-1536 664,-1536 664,-1524 664,-1524 664,-1518 670,-1512 676,-1512 676,-1512 722,-1512 722,-1512 728,-1512 734,-1518 734,-1524 734,-1524 734,-1536 734,-1536 734,-1542 728,-1548 722,-1548"/>
<text text-anchor="middle" x="699" y="-1527.5" font-family="sans" font-size="10.00">copy_fasta</text>
</g>
<!-- 10&#45;&gt;9 -->
<g id="edge15" class="edge"><title>10&#45;&gt;9</title>
<path fill="none" stroke="grey" stroke-width="2" d="M663.669,-1512.94C642.362,-1503.26 614.964,-1490.8 591.862,-1480.3"/>
<polygon fill="grey" stroke="grey" points="593.138,-1477.04 582.586,-1476.08 590.241,-1483.41 593.138,-1477.04"/>
</g>
<!-- 18 -->
<g id="node19" class="node"><title>18</title>
<path fill="none" stroke="#56d89a" stroke-width="2" d="M687,-756C687,-756 599,-756 599,-756 593,-756 587,-750 587,-744 587,-744 587,-732 587,-732 587,-726 593,-720 599,-720 599,-720 687,-720 687,-720 693,-720 699,-726 699,-732 699,-732 699,-744 699,-744 699,-750 693,-756 687,-756"/>
<text text-anchor="middle" x="643" y="-735.5" font-family="sans" font-size="10.00">gatk_realign_indels</text>
</g>
<!-- 10&#45;&gt;18 -->
<g id="edge26" class="edge"><title>10&#45;&gt;18</title>
<path fill="none" stroke="grey" stroke-width="2" d="M731.469,-1511.94C769.974,-1489.09 829,-1444.66 829,-1387 829,-1387 829,-1387 829,-881 829,-818.625 762.1,-779.993 708.543,-759.059"/>
<polygon fill="grey" stroke="grey" points="709.65,-755.736 699.058,-755.478 707.178,-762.284 709.65,-755.736"/>
</g>
<!-- 19 -->
<g id="node20" class="node"><title>19</title>
<path fill="none" stroke="#56d86b" stroke-width="2" d="M693.25,-828C693.25,-828 600.75,-828 600.75,-828 594.75,-828 588.75,-822 588.75,-816 588.75,-816 588.75,-804 588.75,-804 588.75,-798 594.75,-792 600.75,-792 600.75,-792 693.25,-792 693.25,-792 699.25,-792 705.25,-798 705.25,-804 705.25,-804 705.25,-816 705.25,-816 705.25,-822 699.25,-828 693.25,-828"/>
<text text-anchor="middle" x="647" y="-807.5" font-family="sans" font-size="10.00">gatk_realign_targets</text>
</g>
<!-- 10&#45;&gt;19 -->
<g id="edge30" class="edge"><title>10&#45;&gt;19</title>
<path fill="none" stroke="grey" stroke-width="2" d="M699.185,-1511.99C699.97,-1438.74 703.034,-1142.98 704,-900 704.064,-884 710.391,-878.668 704,-864 699.067,-852.677 690.389,-842.682 681.271,-834.512"/>
<polygon fill="grey" stroke="grey" points="683.499,-831.812 673.58,-828.088 679.011,-837.185 683.499,-831.812"/>
</g>
<!-- 23 -->
<g id="node24" class="node"><title>23</title>
<path fill="none" stroke="#a7d856" stroke-width="2" stroke-dasharray="5,2" d="M657.25,-1332C657.25,-1332 592.75,-1332 592.75,-1332 586.75,-1332 580.75,-1326 580.75,-1320 580.75,-1320 580.75,-1308 580.75,-1308 580.75,-1302 586.75,-1296 592.75,-1296 592.75,-1296 657.25,-1296 657.25,-1296 663.25,-1296 669.25,-1302 669.25,-1308 669.25,-1308 669.25,-1320 669.25,-1320 669.25,-1326 663.25,-1332 657.25,-1332"/>
<text text-anchor="middle" x="625" y="-1311.5" font-family="sans" font-size="10.00">create_ref_dict</text>
</g>
<!-- 10&#45;&gt;23 -->
<g id="edge40" class="edge"><title>10&#45;&gt;23</title>
<path fill="none" stroke="grey" stroke-width="2" d="M693.069,-1511.85C680.215,-1474.68 649.703,-1386.44 634.274,-1341.82"/>
<polygon fill="grey" stroke="grey" points="637.535,-1340.54 630.959,-1332.23 630.919,-1342.83 637.535,-1340.54"/>
</g>
<!-- 26 -->
<g id="node27" class="node"><title>26</title>
<path fill="none" stroke="#bed856" stroke-width="2" stroke-dasharray="5,2" d="M789,-1404C789,-1404 739,-1404 739,-1404 733,-1404 727,-1398 727,-1392 727,-1392 727,-1380 727,-1380 727,-1374 733,-1368 739,-1368 739,-1368 789,-1368 789,-1368 795,-1368 801,-1374 801,-1380 801,-1380 801,-1392 801,-1392 801,-1398 795,-1404 789,-1404"/>
<text text-anchor="middle" x="764" y="-1383.5" font-family="sans" font-size="10.00">index_fasta</text>
</g>
<!-- 10&#45;&gt;26 -->
<g id="edge42" class="edge"><title>10&#45;&gt;26</title>
<path fill="none" stroke="grey" stroke-width="2" d="M706.841,-1511.87C718.016,-1487.46 738.629,-1442.43 751.808,-1413.64"/>
<polygon fill="grey" stroke="grey" points="755.152,-1414.74 756.132,-1404.19 748.787,-1411.83 755.152,-1414.74"/>
</g>
<!-- 11&#45;&gt;5 -->
<g id="edge11" class="edge"><title>11&#45;&gt;5</title>
<path fill="none" stroke="grey" stroke-width="2" d="M466.494,-1151.7C455.537,-1142.88 442.054,-1132.03 430.175,-1122.47"/>
<polygon fill="grey" stroke="grey" points="432.244,-1119.65 422.258,-1116.1 427.855,-1125.1 432.244,-1119.65"/>
</g>
<!-- 11&#45;&gt;22 -->
<g id="edge38" class="edge"><title>11&#45;&gt;22</title>
<path fill="none" stroke="grey" stroke-width="2" d="M503.573,-1151.7C511.202,-1143.22 520.523,-1132.86 528.876,-1123.58"/>
<polygon fill="grey" stroke="grey" points="531.518,-1125.88 535.606,-1116.1 526.315,-1121.2 531.518,-1125.88"/>
</g>
<!-- 12 -->
<g id="node13" class="node"><title>12</title>
<path fill="none" stroke="#d8d356" stroke-width="2" d="M742,-180C742,-180 656,-180 656,-180 650,-180 644,-174 644,-168 644,-168 644,-156 644,-156 644,-150 650,-144 656,-144 656,-144 742,-144 742,-144 748,-144 754,-150 754,-156 754,-156 754,-168 754,-168 754,-174 748,-180 742,-180"/>
<text text-anchor="middle" x="699" y="-159.5" font-family="sans" font-size="10.00">annotate_samtools</text>
</g>
<!-- 12&#45;&gt;1 -->
<g id="edge6" class="edge"><title>12&#45;&gt;1</title>
<path fill="none" stroke="grey" stroke-width="2" d="M643.867,-146.253C640.869,-145.483 637.899,-144.728 635,-144 569.375,-127.524 492.575,-109.659 448.086,-99.4484"/>
<polygon fill="grey" stroke="grey" points="448.828,-96.0277 438.299,-97.2061 447.264,-102.851 448.828,-96.0277"/>
</g>
<!-- 13 -->
<g id="node14" class="node"><title>13</title>
<path fill="none" stroke="#afd856" stroke-width="2" d="M720.25,-252C720.25,-252 655.75,-252 655.75,-252 649.75,-252 643.75,-246 643.75,-240 643.75,-240 643.75,-228 643.75,-228 643.75,-222 649.75,-216 655.75,-216 655.75,-216 720.25,-216 720.25,-216 726.25,-216 732.25,-222 732.25,-228 732.25,-228 732.25,-240 732.25,-240 732.25,-246 726.25,-252 720.25,-252"/>
<text text-anchor="middle" x="688" y="-231.5" font-family="sans" font-size="10.00">filter_samtools</text>
</g>
<!-- 13&#45;&gt;12 -->
<g id="edge17" class="edge"><title>13&#45;&gt;12</title>
<path fill="none" stroke="grey" stroke-width="2" d="M690.719,-215.697C691.931,-207.983 693.388,-198.712 694.739,-190.112"/>
<polygon fill="grey" stroke="grey" points="698.217,-190.526 696.312,-180.104 691.302,-189.44 698.217,-190.526"/>
</g>
<!-- 14 -->
<g id="node15" class="node"><title>14</title>
<path fill="none" stroke="#56d8c1" stroke-width="2" d="M838,-324C838,-324 728,-324 728,-324 722,-324 716,-318 716,-312 716,-312 716,-300 716,-300 716,-294 722,-288 728,-288 728,-288 838,-288 838,-288 844,-288 850,-294 850,-300 850,-300 850,-312 850,-312 850,-318 844,-324 838,-324"/>
<text text-anchor="middle" x="783" y="-303.5" font-family="sans" font-size="10.00">bcftools_filter_samtools</text>
</g>
<!-- 14&#45;&gt;13 -->
<g id="edge18" class="edge"><title>14&#45;&gt;13</title>
<path fill="none" stroke="grey" stroke-width="2" d="M759.517,-287.697C747.437,-278.796 732.546,-267.823 719.484,-258.199"/>
<polygon fill="grey" stroke="grey" points="721.34,-255.219 711.213,-252.104 717.187,-260.854 721.34,-255.219"/>
</g>
<!-- 15 -->
<g id="node16" class="node"><title>15</title>
<path fill="none" stroke="#d87d56" stroke-width="2" d="M827,-396C827,-396 739,-396 739,-396 733,-396 727,-390 727,-384 727,-384 727,-372 727,-372 727,-366 733,-360 739,-360 739,-360 827,-360 827,-360 833,-360 839,-366 839,-372 839,-372 839,-384 839,-384 839,-390 833,-396 827,-396"/>
<text text-anchor="middle" x="783" y="-375.5" font-family="sans" font-size="10.00">anc_filter_samtools</text>
</g>
<!-- 15&#45;&gt;14 -->
<g id="edge21" class="edge"><title>15&#45;&gt;14</title>
<path fill="none" stroke="grey" stroke-width="2" d="M783,-359.697C783,-351.983 783,-342.712 783,-334.112"/>
<polygon fill="grey" stroke="grey" points="786.5,-334.104 783,-324.104 779.5,-334.104 786.5,-334.104"/>
</g>
<!-- 38 -->
<g id="node39" class="node"><title>38</title>
<path fill="none" stroke="#80d856" stroke-width="2" d="M1013.25,-324C1013.25,-324 880.75,-324 880.75,-324 874.75,-324 868.75,-318 868.75,-312 868.75,-312 868.75,-300 868.75,-300 868.75,-294 874.75,-288 880.75,-288 880.75,-288 1013.25,-288 1013.25,-288 1019.25,-288 1025.25,-294 1025.25,-300 1025.25,-300 1025.25,-312 1025.25,-312 1025.25,-318 1019.25,-324 1013.25,-324"/>
<text text-anchor="middle" x="947" y="-303.5" font-family="sans" font-size="10.00">bcftools_filter_samtools_two</text>
</g>
<!-- 15&#45;&gt;38 -->
<g id="edge56" class="edge"><title>15&#45;&gt;38</title>
<path fill="none" stroke="grey" stroke-width="2" d="M823.119,-359.876C845.638,-350.264 873.918,-338.193 897.771,-328.013"/>
<polygon fill="grey" stroke="grey" points="899.188,-331.213 907.011,-324.068 896.44,-324.775 899.188,-331.213"/>
</g>
<!-- 16 -->
<g id="node17" class="node"><title>16</title>
<path fill="none" stroke="#56d882" stroke-width="2" d="M801.25,-540C801.25,-540 734.75,-540 734.75,-540 728.75,-540 722.75,-534 722.75,-528 722.75,-528 722.75,-516 722.75,-516 722.75,-510 728.75,-504 734.75,-504 734.75,-504 801.25,-504 801.25,-504 807.25,-504 813.25,-510 813.25,-516 813.25,-516 813.25,-528 813.25,-528 813.25,-534 807.25,-540 801.25,-540"/>
<text text-anchor="middle" x="768" y="-519.5" font-family="sans" font-size="10.00">bcftools_pileup</text>
</g>
<!-- 16&#45;&gt;15 -->
<g id="edge22" class="edge"><title>16&#45;&gt;15</title>
<path fill="none" stroke="grey" stroke-width="2" d="M769.809,-503.871C772.366,-479.67 777.062,-435.211 780.106,-406.393"/>
<polygon fill="grey" stroke="grey" points="783.614,-406.502 781.184,-396.189 776.653,-405.766 783.614,-406.502"/>
</g>
<!-- 17 -->
<g id="node18" class="node"><title>17</title>
<path fill="none" stroke="#d88556" stroke-width="2" d="M689,-684C689,-684 597,-684 597,-684 591,-684 585,-678 585,-672 585,-672 585,-660 585,-660 585,-654 591,-648 597,-648 597,-648 689,-648 689,-648 695,-648 701,-654 701,-660 701,-660 701,-672 701,-672 701,-678 695,-684 689,-684"/>
<text text-anchor="middle" x="643" y="-663.5" font-family="sans" font-size="10.00">samtools_sort_three</text>
</g>
<!-- 17&#45;&gt;16 -->
<g id="edge23" class="edge"><title>17&#45;&gt;16</title>
<path fill="none" stroke="grey" stroke-width="2" d="M678.979,-647.909C694.942,-638.954 713.01,-626.759 726,-612 741.979,-593.844 753.129,-568.554 759.904,-549.571"/>
<polygon fill="grey" stroke="grey" points="763.244,-550.619 763.136,-540.025 756.614,-548.375 763.244,-550.619"/>
</g>
<!-- 27 -->
<g id="node28" class="node"><title>27</title>
<path fill="none" stroke="#56d8a2" stroke-width="2" d="M689.25,-612C689.25,-612 588.75,-612 588.75,-612 582.75,-612 576.75,-606 576.75,-600 576.75,-600 576.75,-588 576.75,-588 576.75,-582 582.75,-576 588.75,-576 588.75,-576 689.25,-576 689.25,-576 695.25,-576 701.25,-582 701.25,-588 701.25,-588 701.25,-600 701.25,-600 701.25,-606 695.25,-612 689.25,-612"/>
<text text-anchor="middle" x="639" y="-591.5" font-family="sans" font-size="10.00">samtools_index_three</text>
</g>
<!-- 17&#45;&gt;27 -->
<g id="edge43" class="edge"><title>17&#45;&gt;27</title>
<path fill="none" stroke="grey" stroke-width="2" d="M642.011,-647.697C641.57,-639.983 641.041,-630.712 640.549,-622.112"/>
<polygon fill="grey" stroke="grey" points="644.042,-621.888 639.977,-612.104 637.054,-622.288 644.042,-621.888"/>
</g>
<!-- 30 -->
<g id="node31" class="node"><title>30</title>
<path fill="none" stroke="#d6d856" stroke-width="2" d="M659.25,-540C659.25,-540 618.75,-540 618.75,-540 612.75,-540 606.75,-534 606.75,-528 606.75,-528 606.75,-516 606.75,-516 606.75,-510 612.75,-504 618.75,-504 618.75,-504 659.25,-504 659.25,-504 665.25,-504 671.25,-510 671.25,-516 671.25,-516 671.25,-528 671.25,-528 671.25,-534 665.25,-540 659.25,-540"/>
<text text-anchor="middle" x="639" y="-519.5" font-family="sans" font-size="10.00">freebayes</text>
</g>
<!-- 17&#45;&gt;30 -->
<g id="edge46" class="edge"><title>17&#45;&gt;30</title>
<path fill="none" stroke="grey" stroke-width="2" d="M675.527,-647.984C688.789,-639.18 702.699,-627.085 710,-612 716.971,-597.598 717.172,-590.303 710,-576 703.453,-562.944 691.995,-552.281 680.17,-544.033"/>
<polygon fill="grey" stroke="grey" points="681.855,-540.955 671.559,-538.454 678.049,-546.829 681.855,-540.955"/>
</g>
<!-- 34 -->
<g id="node35" class="node"><title>34</title>
<path fill="none" stroke="#8fd856" stroke-width="2" d="M544,-540C544,-540 514,-540 514,-540 508,-540 502,-534 502,-528 502,-528 502,-516 502,-516 502,-510 508,-504 514,-504 514,-504 544,-504 544,-504 550,-504 556,-510 556,-516 556,-516 556,-528 556,-528 556,-534 550,-540 544,-540"/>
<text text-anchor="middle" x="529" y="-519.5" font-family="sans" font-size="10.00">lofreq</text>
</g>
<!-- 17&#45;&gt;34 -->
<g id="edge51" class="edge"><title>17&#45;&gt;34</title>
<path fill="none" stroke="grey" stroke-width="2" d="M611.107,-647.877C596.471,-638.767 579.792,-626.454 568,-612 553.064,-593.691 542.797,-568.776 536.561,-549.963"/>
<polygon fill="grey" stroke="grey" points="539.838,-548.716 533.508,-540.22 533.159,-550.809 539.838,-548.716"/>
</g>
<!-- 18&#45;&gt;17 -->
<g id="edge25" class="edge"><title>18&#45;&gt;17</title>
<path fill="none" stroke="grey" stroke-width="2" d="M643,-719.697C643,-711.983 643,-702.712 643,-694.112"/>
<polygon fill="grey" stroke="grey" points="646.5,-694.104 643,-684.104 639.5,-694.104 646.5,-694.104"/>
</g>
<!-- 19&#45;&gt;18 -->
<g id="edge27" class="edge"><title>19&#45;&gt;18</title>
<path fill="none" stroke="grey" stroke-width="2" d="M646.011,-791.697C645.57,-783.983 645.041,-774.712 644.549,-766.112"/>
<polygon fill="grey" stroke="grey" points="648.042,-765.888 643.977,-756.104 641.054,-766.288 648.042,-765.888"/>
</g>
<!-- 20 -->
<g id="node21" class="node"><title>20</title>
<path fill="none" stroke="#56d85b" stroke-width="2" d="M558.25,-972C558.25,-972 473.75,-972 473.75,-972 467.75,-972 461.75,-966 461.75,-960 461.75,-960 461.75,-948 461.75,-948 461.75,-942 467.75,-936 473.75,-936 473.75,-936 558.25,-936 558.25,-936 564.25,-936 570.25,-942 570.25,-948 570.25,-948 570.25,-960 570.25,-960 570.25,-966 564.25,-972 558.25,-972"/>
<text text-anchor="middle" x="516" y="-951.5" font-family="sans" font-size="10.00">samtools_sort_two</text>
</g>
<!-- 20&#45;&gt;18 -->
<g id="edge28" class="edge"><title>20&#45;&gt;18</title>
<path fill="none" stroke="grey" stroke-width="2" d="M471.927,-935.983C456.445,-927.62 440.743,-915.855 432,-900 424.274,-885.989 424.42,-878.091 432,-864 461.75,-808.694 527.26,-775.624 577.448,-757.526"/>
<polygon fill="grey" stroke="grey" points="578.659,-760.81 586.948,-754.211 576.353,-754.201 578.659,-760.81"/>
</g>
<!-- 20&#45;&gt;19 -->
<g id="edge31" class="edge"><title>20&#45;&gt;19</title>
<path fill="none" stroke="grey" stroke-width="2" d="M532.291,-935.887C542.104,-925.541 554.823,-912.062 566,-900 585.949,-878.471 608.396,-853.769 624.592,-835.86"/>
<polygon fill="grey" stroke="grey" points="627.455,-837.911 631.562,-828.145 622.261,-833.219 627.455,-837.911"/>
</g>
<!-- 24 -->
<g id="node25" class="node"><title>24</title>
<path fill="none" stroke="#56d8d8" stroke-width="2" d="M545.25,-900C545.25,-900 452.75,-900 452.75,-900 446.75,-900 440.75,-894 440.75,-888 440.75,-888 440.75,-876 440.75,-876 440.75,-870 446.75,-864 452.75,-864 452.75,-864 545.25,-864 545.25,-864 551.25,-864 557.25,-870 557.25,-876 557.25,-876 557.25,-888 557.25,-888 557.25,-894 551.25,-900 545.25,-900"/>
<text text-anchor="middle" x="499" y="-879.5" font-family="sans" font-size="10.00">samtools_index_two</text>
</g>
<!-- 20&#45;&gt;24 -->
<g id="edge41" class="edge"><title>20&#45;&gt;24</title>
<path fill="none" stroke="grey" stroke-width="2" d="M511.798,-935.697C509.904,-927.898 507.623,-918.509 505.516,-909.829"/>
<polygon fill="grey" stroke="grey" points="508.915,-908.996 503.154,-900.104 502.113,-910.648 508.915,-908.996"/>
</g>
<!-- 21 -->
<g id="node22" class="node"><title>21</title>
<path fill="none" stroke="#d86e56" stroke-width="2" d="M593,-1044C593,-1044 505,-1044 505,-1044 499,-1044 493,-1038 493,-1032 493,-1032 493,-1020 493,-1020 493,-1014 499,-1008 505,-1008 505,-1008 593,-1008 593,-1008 599,-1008 605,-1014 605,-1020 605,-1020 605,-1032 605,-1032 605,-1038 599,-1044 593,-1044"/>
<text text-anchor="middle" x="549" y="-1023.5" font-family="sans" font-size="10.00">picard_read_groups</text>
</g>
<!-- 21&#45;&gt;20 -->
<g id="edge35" class="edge"><title>21&#45;&gt;20</title>
<path fill="none" stroke="grey" stroke-width="2" d="M540.843,-1007.7C537.086,-999.728 532.547,-990.1 528.382,-981.264"/>
<polygon fill="grey" stroke="grey" points="531.494,-979.657 524.063,-972.104 525.162,-982.642 531.494,-979.657"/>
</g>
<!-- 22&#45;&gt;21 -->
<g id="edge36" class="edge"><title>22&#45;&gt;21</title>
<path fill="none" stroke="grey" stroke-width="2" d="M550.506,-1079.7C550.285,-1071.98 550.02,-1062.71 549.775,-1054.11"/>
<polygon fill="grey" stroke="grey" points="553.273,-1054 549.489,-1044.1 546.276,-1054.2 553.273,-1054"/>
</g>
<!-- 23&#45;&gt;22 -->
<g id="edge39" class="edge"><title>23&#45;&gt;22</title>
<path fill="none" stroke="grey" stroke-width="2" d="M619.757,-1295.97C610.596,-1266.46 590.847,-1204.01 572,-1152 568.849,-1143.31 565.201,-1133.9 561.838,-1125.45"/>
<polygon fill="grey" stroke="grey" points="565.049,-1124.06 558.068,-1116.09 558.555,-1126.67 565.049,-1124.06"/>
</g>
<!-- 24&#45;&gt;18 -->
<g id="edge29" class="edge"><title>24&#45;&gt;18</title>
<path fill="none" stroke="grey" stroke-width="2" d="M513.296,-863.981C529.008,-845.597 555.304,-815.752 580,-792 590.426,-781.973 602.454,-771.591 613.189,-762.701"/>
<polygon fill="grey" stroke="grey" points="615.578,-765.269 621.097,-756.225 611.143,-759.853 615.578,-765.269"/>
</g>
<!-- 24&#45;&gt;19 -->
<g id="edge32" class="edge"><title>24&#45;&gt;19</title>
<path fill="none" stroke="grey" stroke-width="2" d="M535.205,-863.876C555.258,-854.392 580.372,-842.513 601.714,-832.419"/>
<polygon fill="grey" stroke="grey" points="603.369,-835.508 610.913,-828.068 600.376,-829.18 603.369,-835.508"/>
</g>
<!-- 25 -->
<g id="node26" class="node"><title>25</title>
<path fill="none" stroke="#d8ac56" stroke-width="2" stroke-dasharray="5,2" d="M683.25,-900C683.25,-900 626.75,-900 626.75,-900 620.75,-900 614.75,-894 614.75,-888 614.75,-888 614.75,-876 614.75,-876 614.75,-870 620.75,-864 626.75,-864 626.75,-864 683.25,-864 683.25,-864 689.25,-864 695.25,-870 695.25,-876 695.25,-876 695.25,-888 695.25,-888 695.25,-894 689.25,-900 683.25,-900"/>
<text text-anchor="middle" x="655" y="-879.5" font-family="sans" font-size="10.00">gatk_register</text>
</g>
<!-- 25&#45;&gt;19 -->
<g id="edge33" class="edge"><title>25&#45;&gt;19</title>
<path fill="none" stroke="grey" stroke-width="2" d="M653.022,-863.697C652.141,-855.983 651.081,-846.712 650.099,-838.112"/>
<polygon fill="grey" stroke="grey" points="653.568,-837.642 648.955,-828.104 646.613,-838.437 653.568,-837.642"/>
</g>
<!-- 26&#45;&gt;19 -->
<g id="edge34" class="edge"><title>26&#45;&gt;19</title>
<path fill="none" stroke="grey" stroke-width="2" d="M763.802,-1367.95C763.511,-1341.29 763,-1288.12 763,-1243 763,-1243 763,-1243 763,-953 763,-911.914 763.146,-896.493 738,-864 728.087,-851.19 714.136,-840.899 700.13,-832.918"/>
<polygon fill="grey" stroke="grey" points="701.427,-829.642 690.96,-828.003 698.121,-835.812 701.427,-829.642"/>
</g>
<!-- 27&#45;&gt;16 -->
<g id="edge24" class="edge"><title>27&#45;&gt;16</title>
<path fill="none" stroke="grey" stroke-width="2" d="M670.557,-575.876C687.658,-566.596 708.982,-555.025 727.319,-545.075"/>
<polygon fill="grey" stroke="grey" points="729.202,-548.035 736.322,-540.19 725.863,-541.883 729.202,-548.035"/>
</g>
<!-- 27&#45;&gt;30 -->
<g id="edge47" class="edge"><title>27&#45;&gt;30</title>
<path fill="none" stroke="grey" stroke-width="2" d="M639,-575.697C639,-567.983 639,-558.712 639,-550.112"/>
<polygon fill="grey" stroke="grey" points="642.5,-550.104 639,-540.104 635.5,-550.104 642.5,-550.104"/>
</g>
<!-- 27&#45;&gt;34 -->
<g id="edge52" class="edge"><title>27&#45;&gt;34</title>
<path fill="none" stroke="grey" stroke-width="2" d="M612.091,-575.876C597.842,-566.808 580.154,-555.552 564.764,-545.759"/>
<polygon fill="grey" stroke="grey" points="566.328,-542.606 556.012,-540.19 562.57,-548.511 566.328,-542.606"/>
</g>
<!-- 28 -->
<g id="node29" class="node"><title>28</title>
<path fill="none" stroke="#566bd8" stroke-width="2" d="M685.25,-324C685.25,-324 572.75,-324 572.75,-324 566.75,-324 560.75,-318 560.75,-312 560.75,-312 560.75,-300 560.75,-300 560.75,-294 566.75,-288 572.75,-288 572.75,-288 685.25,-288 685.25,-288 691.25,-288 697.25,-294 697.25,-300 697.25,-300 697.25,-312 697.25,-312 697.25,-318 691.25,-324 685.25,-324"/>
<text text-anchor="middle" x="629" y="-303.5" font-family="sans" font-size="10.00">bcftools_filter_freebayes</text>
</g>
<!-- 28&#45;&gt;13 -->
<g id="edge19" class="edge"><title>28&#45;&gt;13</title>
<path fill="none" stroke="grey" stroke-width="2" d="M643.584,-287.697C650.658,-279.305 659.283,-269.07 667.045,-259.861"/>
<polygon fill="grey" stroke="grey" points="669.815,-262.006 673.583,-252.104 664.463,-257.495 669.815,-262.006"/>
</g>
<!-- 40 -->
<g id="node41" class="node"><title>40</title>
<path fill="none" stroke="#56d88a" stroke-width="2" d="M603.25,-252C603.25,-252 534.75,-252 534.75,-252 528.75,-252 522.75,-246 522.75,-240 522.75,-240 522.75,-228 522.75,-228 522.75,-222 528.75,-216 534.75,-216 534.75,-216 603.25,-216 603.25,-216 609.25,-216 615.25,-222 615.25,-228 615.25,-228 615.25,-240 615.25,-240 615.25,-246 609.25,-252 603.25,-252"/>
<text text-anchor="middle" x="569" y="-231.5" font-family="sans" font-size="10.00">filter_freebayes</text>
</g>
<!-- 28&#45;&gt;40 -->
<g id="edge58" class="edge"><title>28&#45;&gt;40</title>
<path fill="none" stroke="grey" stroke-width="2" d="M614.169,-287.697C606.975,-279.305 598.203,-269.07 590.31,-259.861"/>
<polygon fill="grey" stroke="grey" points="592.826,-257.419 583.661,-252.104 587.511,-261.975 592.826,-257.419"/>
</g>
<!-- 29 -->
<g id="node30" class="node"><title>29</title>
<path fill="none" stroke="#567bd8" stroke-width="2" d="M683,-468C683,-468 591,-468 591,-468 585,-468 579,-462 579,-456 579,-456 579,-444 579,-444 579,-438 585,-432 591,-432 591,-432 683,-432 683,-432 689,-432 695,-438 695,-444 695,-444 695,-456 695,-456 695,-462 689,-468 683,-468"/>
<text text-anchor="middle" x="637" y="-447.5" font-family="sans" font-size="10.00">anc_filter_freebayes</text>
</g>
<!-- 29&#45;&gt;28 -->
<g id="edge44" class="edge"><title>29&#45;&gt;28</title>
<path fill="none" stroke="grey" stroke-width="2" d="M636.035,-431.871C634.672,-407.67 632.167,-363.211 630.543,-334.393"/>
<polygon fill="grey" stroke="grey" points="634.025,-333.977 629.968,-324.189 627.037,-334.37 634.025,-333.977"/>
</g>
<!-- 30&#45;&gt;29 -->
<g id="edge45" class="edge"><title>30&#45;&gt;29</title>
<path fill="none" stroke="grey" stroke-width="2" d="M638.506,-503.697C638.285,-495.983 638.02,-486.712 637.775,-478.112"/>
<polygon fill="grey" stroke="grey" points="641.273,-478 637.489,-468.104 634.276,-478.2 641.273,-478"/>
</g>
<!-- 31 -->
<g id="node32" class="node"><title>31</title>
<path fill="none" stroke="#5692d8" stroke-width="2" d="M530.25,-324C530.25,-324 437.75,-324 437.75,-324 431.75,-324 425.75,-318 425.75,-312 425.75,-312 425.75,-300 425.75,-300 425.75,-294 431.75,-288 437.75,-288 437.75,-288 530.25,-288 530.25,-288 536.25,-288 542.25,-294 542.25,-300 542.25,-300 542.25,-312 542.25,-312 542.25,-318 536.25,-324 530.25,-324"/>
<text text-anchor="middle" x="484" y="-303.5" font-family="sans" font-size="10.00">bcftools_filter_lofreq</text>
</g>
<!-- 31&#45;&gt;13 -->
<g id="edge20" class="edge"><title>31&#45;&gt;13</title>
<path fill="none" stroke="grey" stroke-width="2" d="M533.643,-287.966C563.973,-277.558 602.777,-264.243 633.89,-253.567"/>
<polygon fill="grey" stroke="grey" points="635.378,-256.757 643.701,-250.201 633.107,-250.136 635.378,-256.757"/>
</g>
<!-- 31&#45;&gt;40 -->
<g id="edge59" class="edge"><title>31&#45;&gt;40</title>
<path fill="none" stroke="grey" stroke-width="2" d="M505.011,-287.697C515.716,-278.881 528.89,-268.032 540.496,-258.474"/>
<polygon fill="grey" stroke="grey" points="542.736,-261.163 548.23,-252.104 538.286,-255.76 542.736,-261.163"/>
</g>
<!-- 42 -->
<g id="node43" class="node"><title>42</title>
<path fill="none" stroke="#56b9d8" stroke-width="2" d="M488,-252C488,-252 418,-252 418,-252 412,-252 406,-246 406,-240 406,-240 406,-228 406,-228 406,-222 412,-216 418,-216 418,-216 488,-216 488,-216 494,-216 500,-222 500,-228 500,-228 500,-240 500,-240 500,-246 494,-252 488,-252"/>
<text text-anchor="middle" x="453" y="-231.5" font-family="sans" font-size="10.00">annotate_lofreq</text>
</g>
<!-- 31&#45;&gt;42 -->
<g id="edge61" class="edge"><title>31&#45;&gt;42</title>
<path fill="none" stroke="grey" stroke-width="2" d="M476.337,-287.697C472.808,-279.728 468.544,-270.1 464.631,-261.264"/>
<polygon fill="grey" stroke="grey" points="467.824,-259.831 460.575,-252.104 461.424,-262.665 467.824,-259.831"/>
</g>
<!-- 32 -->
<g id="node33" class="node"><title>32</title>
<path fill="none" stroke="#56d8b1" stroke-width="2" d="M530.25,-396C530.25,-396 459.75,-396 459.75,-396 453.75,-396 447.75,-390 447.75,-384 447.75,-384 447.75,-372 447.75,-372 447.75,-366 453.75,-360 459.75,-360 459.75,-360 530.25,-360 530.25,-360 536.25,-360 542.25,-366 542.25,-372 542.25,-372 542.25,-384 542.25,-384 542.25,-390 536.25,-396 530.25,-396"/>
<text text-anchor="middle" x="495" y="-375.5" font-family="sans" font-size="10.00">anc_filter_lofreq</text>
</g>
<!-- 32&#45;&gt;31 -->
<g id="edge48" class="edge"><title>32&#45;&gt;31</title>
<path fill="none" stroke="grey" stroke-width="2" d="M492.281,-359.697C491.069,-351.983 489.612,-342.712 488.261,-334.112"/>
<polygon fill="grey" stroke="grey" points="491.698,-333.44 486.688,-324.104 484.783,-334.526 491.698,-333.44"/>
</g>
<!-- 33 -->
<g id="node34" class="node"><title>33</title>
<path fill="none" stroke="#78d856" stroke-width="2" d="M536.25,-468C536.25,-468 483.75,-468 483.75,-468 477.75,-468 471.75,-462 471.75,-456 471.75,-456 471.75,-444 471.75,-444 471.75,-438 477.75,-432 483.75,-432 483.75,-432 536.25,-432 536.25,-432 542.25,-432 548.25,-438 548.25,-444 548.25,-444 548.25,-456 548.25,-456 548.25,-462 542.25,-468 536.25,-468"/>
<text text-anchor="middle" x="510" y="-447.5" font-family="sans" font-size="10.00">unzip_lofreq</text>
</g>
<!-- 33&#45;&gt;32 -->
<g id="edge49" class="edge"><title>33&#45;&gt;32</title>
<path fill="none" stroke="grey" stroke-width="2" d="M506.292,-431.697C504.639,-423.983 502.653,-414.712 500.81,-406.112"/>
<polygon fill="grey" stroke="grey" points="504.183,-405.149 498.665,-396.104 497.338,-406.616 504.183,-405.149"/>
</g>
<!-- 34&#45;&gt;33 -->
<g id="edge50" class="edge"><title>34&#45;&gt;33</title>
<path fill="none" stroke="grey" stroke-width="2" d="M524.303,-503.697C522.187,-495.898 519.638,-486.509 517.282,-477.829"/>
<polygon fill="grey" stroke="grey" points="520.64,-476.838 514.643,-468.104 513.884,-478.672 520.64,-476.838"/>
</g>
<!-- 35 -->
<g id="node36" class="node"><title>35</title>
<path fill="none" stroke="#56d8c9" stroke-width="2" stroke-dasharray="5,2" d="M508,-612C508,-612 414,-612 414,-612 408,-612 402,-606 402,-600 402,-600 402,-588 402,-588 402,-582 408,-576 414,-576 414,-576 508,-576 508,-576 514,-576 520,-582 520,-588 520,-588 520,-600 520,-600 520,-606 514,-612 508,-612"/>
<text text-anchor="middle" x="461" y="-591.5" font-family="sans" font-size="10.00">index_ancestor_bam</text>
</g>
<!-- 35&#45;&gt;34 -->
<g id="edge53" class="edge"><title>35&#45;&gt;34</title>
<path fill="none" stroke="grey" stroke-width="2" d="M477.809,-575.697C486.126,-567.135 496.305,-556.656 505.39,-547.304"/>
<polygon fill="grey" stroke="grey" points="507.927,-549.716 512.384,-540.104 502.906,-544.838 507.927,-549.716"/>
</g>
<!-- 36 -->
<g id="node37" class="node"><title>36</title>
<path fill="none" stroke="#c6d856" stroke-width="2" stroke-dasharray="5,2" d="M506,-684C506,-684 416,-684 416,-684 410,-684 404,-678 404,-672 404,-672 404,-660 404,-660 404,-654 410,-648 416,-648 416,-648 506,-648 506,-648 512,-648 518,-654 518,-660 518,-660 518,-672 518,-672 518,-678 512,-684 506,-684"/>
<text text-anchor="middle" x="461" y="-663.5" font-family="sans" font-size="10.00">copy_ancestor_bam</text>
</g>
<!-- 36&#45;&gt;35 -->
<g id="edge54" class="edge"><title>36&#45;&gt;35</title>
<path fill="none" stroke="grey" stroke-width="2" d="M461,-647.697C461,-639.983 461,-630.712 461,-622.112"/>
<polygon fill="grey" stroke="grey" points="464.5,-622.104 461,-612.104 457.5,-622.104 464.5,-622.104"/>
</g>
<!-- 37 -->
<g id="node38" class="node"><title>37</title>
<path fill="none" stroke="#56d0d8" stroke-width="2" d="M937,-252C937,-252 827,-252 827,-252 821,-252 815,-246 815,-240 815,-240 815,-228 815,-228 815,-222 821,-216 827,-216 827,-216 937,-216 937,-216 943,-216 949,-222 949,-228 949,-228 949,-240 949,-240 949,-246 943,-252 937,-252"/>
<text text-anchor="middle" x="882" y="-231.5" font-family="sans" font-size="10.00">annotate_samtools_two</text>
</g>
<!-- 37&#45;&gt;1 -->
<g id="edge7" class="edge"><title>37&#45;&gt;1</title>
<path fill="none" stroke="grey" stroke-width="2" d="M864.817,-215.706C843.126,-195.005 803.705,-161.009 763,-144 655.24,-98.9723 514.758,-91.5417 448.588,-90.7372"/>
<polygon fill="grey" stroke="grey" points="448.272,-87.2348 438.246,-90.6591 448.219,-94.2346 448.272,-87.2348"/>
</g>
<!-- 38&#45;&gt;37 -->
<g id="edge55" class="edge"><title>38&#45;&gt;37</title>
<path fill="none" stroke="grey" stroke-width="2" d="M930.933,-287.697C923.061,-279.22 913.445,-268.864 904.827,-259.583"/>
<polygon fill="grey" stroke="grey" points="907.252,-257.051 897.883,-252.104 902.122,-261.814 907.252,-257.051"/>
</g>
<!-- 39 -->
<g id="node40" class="node"><title>39</title>
<path fill="none" stroke="#59d856" stroke-width="2" d="M614,-180C614,-180 524,-180 524,-180 518,-180 512,-174 512,-168 512,-168 512,-156 512,-156 512,-150 518,-144 524,-144 524,-144 614,-144 614,-144 620,-144 626,-150 626,-156 626,-156 626,-168 626,-168 626,-174 620,-180 614,-180"/>
<text text-anchor="middle" x="569" y="-159.5" font-family="sans" font-size="10.00">annotate_freebayes</text>
</g>
<!-- 39&#45;&gt;1 -->
<g id="edge8" class="edge"><title>39&#45;&gt;1</title>
<path fill="none" stroke="grey" stroke-width="2" d="M530.349,-143.876C505.185,-132.728 472.556,-118.272 447.775,-107.293"/>
<polygon fill="grey" stroke="grey" points="448.919,-103.971 438.358,-103.121 446.083,-110.371 448.919,-103.971"/>
</g>
<!-- 40&#45;&gt;39 -->
<g id="edge57" class="edge"><title>40&#45;&gt;39</title>
<path fill="none" stroke="grey" stroke-width="2" d="M569,-215.697C569,-207.983 569,-198.712 569,-190.112"/>
<polygon fill="grey" stroke="grey" points="572.5,-190.104 569,-180.104 565.5,-190.104 572.5,-190.104"/>
</g>
<!-- 41 -->
<g id="node42" class="node"><title>41</title>
<path fill="none" stroke="#56a2d8" stroke-width="2" d="M482,-180C482,-180 414,-180 414,-180 408,-180 402,-174 402,-168 402,-168 402,-156 402,-156 402,-150 408,-144 414,-144 414,-144 482,-144 482,-144 488,-144 494,-150 494,-156 494,-156 494,-168 494,-168 494,-174 488,-180 482,-180"/>
<text text-anchor="middle" x="448" y="-159.5" font-family="sans" font-size="10.00">lofreq_columns</text>
</g>
<!-- 41&#45;&gt;1 -->
<g id="edge9" class="edge"><title>41&#45;&gt;1</title>
<path fill="none" stroke="grey" stroke-width="2" d="M438.854,-143.697C434.597,-135.644 429.444,-125.894 424.734,-116.982"/>
<polygon fill="grey" stroke="grey" points="427.808,-115.31 420.041,-108.104 421.62,-118.581 427.808,-115.31"/>
</g>
<!-- 42&#45;&gt;41 -->
<g id="edge60" class="edge"><title>42&#45;&gt;41</title>
<path fill="none" stroke="grey" stroke-width="2" d="M451.764,-215.697C451.213,-207.983 450.551,-198.712 449.937,-190.112"/>
<polygon fill="grey" stroke="grey" points="453.425,-189.83 449.222,-180.104 446.443,-190.328 453.425,-189.83"/>
</g>
</g>
</svg>
