<?xml version="1.0" encoding="UTF-8" standalone="no"?>
<!DOCTYPE svg PUBLIC "-//W3C//DTD SVG 1.1//EN"
 "http://www.w3.org/Graphics/SVG/1.1/DTD/svg11.dtd">
<!-- Generated by graphviz version 2.30.1 (20180420.1509)
 -->
<!-- Title: snakemake_dag Pages: 1 -->
<svg width="1155pt" height="1412pt"
 viewBox="0.00 0.00 1155.00 1412.00" xmlns="http://www.w3.org/2000/svg" xmlns:xlink="http://www.w3.org/1999/xlink">
<g id="graph0" class="graph" transform="scale(1 1) rotate(0) translate(4 1408)">
<title>snakemake_dag</title>
<polygon fill="white" stroke="white" points="-4,5 -4,-1408 1152,-1408 1152,5 -4,5"/>
<!-- 0 -->
<g id="node1" class="node"><title>0</title>
<path fill="none" stroke="#567bd8" stroke-width="2" d="M511,-36C511,-36 481,-36 481,-36 475,-36 469,-30 469,-24 469,-24 469,-12 469,-12 469,-6 475,-0 481,-0 481,-0 511,-0 511,-0 517,-0 523,-6 523,-12 523,-12 523,-24 523,-24 523,-30 517,-36 511,-36"/>
<text text-anchor="middle" x="496" y="-15.5" font-family="sans" font-size="10.00">all</text>
</g>
<!-- 1 -->
<g id="node2" class="node"><title>1</title>
<path fill="none" stroke="#d88556" stroke-width="2" d="M511,-108C511,-108 481,-108 481,-108 475,-108 469,-102 469,-96 469,-96 469,-84 469,-84 469,-78 475,-72 481,-72 481,-72 511,-72 511,-72 517,-72 523,-78 523,-84 523,-84 523,-96 523,-96 523,-102 517,-108 511,-108"/>
<text text-anchor="middle" x="496" y="-87.5" font-family="sans" font-size="10.00">finish</text>
</g>
<!-- 1&#45;&gt;0 -->
<g id="edge1" class="edge"><title>1&#45;&gt;0</title>
<path fill="none" stroke="grey" stroke-width="2" d="M496,-71.6966C496,-63.9827 496,-54.7125 496,-46.1124"/>
<polygon fill="grey" stroke="grey" points="499.5,-46.1043 496,-36.1043 492.5,-46.1044 499.5,-46.1043"/>
</g>
<!-- 2 -->
<g id="node3" class="node"><title>2</title>
<path fill="none" stroke="#d8c356" stroke-width="2" d="M92,-180C92,-180 12,-180 12,-180 6,-180 0,-174 0,-168 0,-168 0,-156 0,-156 0,-150 6,-144 12,-144 12,-144 92,-144 92,-144 98,-144 104,-150 104,-156 104,-156 104,-168 104,-168 104,-174 98,-180 92,-180"/>
<text text-anchor="middle" x="52" y="-159.5" font-family="sans" font-size="10.00">export_run_config</text>
</g>
<!-- 2&#45;&gt;1 -->
<g id="edge2" class="edge"><title>2&#45;&gt;1</title>
<path fill="none" stroke="grey" stroke-width="2" d="M104.131,-145.976C107.122,-145.268 110.094,-144.603 113,-144 238.4,-117.972 389.62,-101.302 458.52,-94.4982"/>
<polygon fill="grey" stroke="grey" points="459.241,-97.9445 468.854,-93.491 458.562,-90.9775 459.241,-97.9445"/>
</g>
<!-- 3 -->
<g id="node4" class="node"><title>3</title>
<path fill="none" stroke="#56d8d0" stroke-width="2" d="M188,-180C188,-180 134,-180 134,-180 128,-180 122,-174 122,-168 122,-168 122,-156 122,-156 122,-150 128,-144 134,-144 134,-144 188,-144 188,-144 194,-144 200,-150 200,-156 200,-156 200,-168 200,-168 200,-174 194,-180 188,-180"/>
<text text-anchor="middle" x="161" y="-159.5" font-family="sans" font-size="10.00">list_samples</text>
</g>
<!-- 3&#45;&gt;1 -->
<g id="edge3" class="edge"><title>3&#45;&gt;1</title>
<path fill="none" stroke="grey" stroke-width="2" d="M200.154,-146.833C203.466,-145.813 206.779,-144.852 210,-144 298.058,-120.708 404.01,-103.927 458.924,-96.0449"/>
<polygon fill="grey" stroke="grey" points="459.478,-99.5015 468.887,-94.6325 458.495,-92.5708 459.478,-99.5015"/>
</g>
<!-- 4 -->
<g id="node5" class="node"><title>4</title>
<path fill="none" stroke="#56d8c9" stroke-width="2" d="M291.25,-180C291.25,-180 230.75,-180 230.75,-180 224.75,-180 218.75,-174 218.75,-168 218.75,-168 218.75,-156 218.75,-156 218.75,-150 224.75,-144 230.75,-144 230.75,-144 291.25,-144 291.25,-144 297.25,-144 303.25,-150 303.25,-156 303.25,-156 303.25,-168 303.25,-168 303.25,-174 297.25,-180 291.25,-180"/>
<text text-anchor="middle" x="261" y="-159.5" font-family="sans" font-size="10.00">run_fastqc_all</text>
</g>
<!-- 4&#45;&gt;1 -->
<g id="edge4" class="edge"><title>4&#45;&gt;1</title>
<path fill="none" stroke="grey" stroke-width="2" d="M303.53,-146.966C306.73,-145.949 309.914,-144.951 313,-144 363.418,-128.462 422.051,-111.712 459.089,-101.291"/>
<polygon fill="grey" stroke="grey" points="460.257,-104.599 468.938,-98.5263 458.365,-97.8595 460.257,-104.599"/>
</g>
<!-- 5 -->
<g id="node6" class="node"><title>5</title>
<path fill="none" stroke="#56a2d8" stroke-width="2" d="M456,-180C456,-180 334,-180 334,-180 328,-180 322,-174 322,-168 322,-168 322,-156 322,-156 322,-150 328,-144 334,-144 334,-144 456,-144 456,-144 462,-144 468,-150 468,-156 468,-156 468,-168 468,-168 468,-174 462,-180 456,-180"/>
<text text-anchor="middle" x="395" y="-165" font-family="sans" font-size="10.00">run_fastqc_persample</text>
<text text-anchor="middle" x="395" y="-154" font-family="sans" font-size="10.00">sample: RBcaff_1blue1_S9</text>
</g>
<!-- 5&#45;&gt;1 -->
<g id="edge5" class="edge"><title>5&#45;&gt;1</title>
<path fill="none" stroke="grey" stroke-width="2" d="M419.707,-143.876C432.669,-134.893 448.728,-123.763 462.765,-114.034"/>
<polygon fill="grey" stroke="grey" points="464.972,-116.763 471.198,-108.19 460.985,-111.009 464.972,-116.763"/>
</g>
<!-- 6 -->
<g id="node7" class="node"><title>6</title>
<path fill="none" stroke="#d8bc56" stroke-width="2" d="M538,-1116C538,-1116 458,-1116 458,-1116 452,-1116 446,-1110 446,-1104 446,-1104 446,-1092 446,-1092 446,-1086 452,-1080 458,-1080 458,-1080 538,-1080 538,-1080 544,-1080 550,-1086 550,-1092 550,-1092 550,-1104 550,-1104 550,-1110 544,-1116 538,-1116"/>
<text text-anchor="middle" x="498" y="-1095.5" font-family="sans" font-size="10.00">samtools_flagstat</text>
</g>
<!-- 6&#45;&gt;1 -->
<g id="edge6" class="edge"><title>6&#45;&gt;1</title>
<path fill="none" stroke="grey" stroke-width="2" d="M497.605,-1079.95C497.022,-1053.29 496,-1000.12 496,-955 496,-955 496,-955 496,-233 496,-192.996 496,-146.653 496,-118.08"/>
<polygon fill="grey" stroke="grey" points="499.5,-118.049 496,-108.049 492.5,-118.049 499.5,-118.049"/>
</g>
<!-- 7 -->
<g id="node8" class="node"><title>7</title>
<path fill="none" stroke="#56d87b" stroke-width="2" d="M689,-1260C689,-1260 567,-1260 567,-1260 561,-1260 555,-1254 555,-1248 555,-1248 555,-1236 555,-1236 555,-1230 561,-1224 567,-1224 567,-1224 689,-1224 689,-1224 695,-1224 701,-1230 701,-1236 701,-1236 701,-1248 701,-1248 701,-1254 695,-1260 689,-1260"/>
<text text-anchor="middle" x="628" y="-1245" font-family="sans" font-size="10.00">align_reads</text>
<text text-anchor="middle" x="628" y="-1234" font-family="sans" font-size="10.00">sample: RBcaff_1blue1_S9</text>
</g>
<!-- 7&#45;&gt;6 -->
<g id="edge11" class="edge"><title>7&#45;&gt;6</title>
<path fill="none" stroke="grey" stroke-width="2" d="M568.787,-1223.94C550.073,-1215.84 530.924,-1204.27 518,-1188 504.182,-1170.61 499.502,-1145.56 498.094,-1126.46"/>
<polygon fill="grey" stroke="grey" points="501.581,-1126.1 497.605,-1116.28 494.589,-1126.44 501.581,-1126.1"/>
</g>
<!-- 10 -->
<g id="node11" class="node"><title>10</title>
<path fill="none" stroke="#d8ac56" stroke-width="2" d="M631.25,-1188C631.25,-1188 538.75,-1188 538.75,-1188 532.75,-1188 526.75,-1182 526.75,-1176 526.75,-1176 526.75,-1164 526.75,-1164 526.75,-1158 532.75,-1152 538.75,-1152 538.75,-1152 631.25,-1152 631.25,-1152 637.25,-1152 643.25,-1158 643.25,-1164 643.25,-1164 643.25,-1176 643.25,-1176 643.25,-1182 637.25,-1188 631.25,-1188"/>
<text text-anchor="middle" x="585" y="-1167.5" font-family="sans" font-size="10.00">samtools_index_one</text>
</g>
<!-- 7&#45;&gt;10 -->
<g id="edge15" class="edge"><title>7&#45;&gt;10</title>
<path fill="none" stroke="grey" stroke-width="2" d="M617.371,-1223.7C612.372,-1215.56 606.309,-1205.69 600.788,-1196.7"/>
<polygon fill="grey" stroke="grey" points="603.723,-1194.79 595.507,-1188.1 597.759,-1198.46 603.723,-1194.79"/>
</g>
<!-- 21 -->
<g id="node22" class="node"><title>21</title>
<path fill="none" stroke="#56d863" stroke-width="2" d="M692,-1116C692,-1116 604,-1116 604,-1116 598,-1116 592,-1110 592,-1104 592,-1104 592,-1092 592,-1092 592,-1086 598,-1080 604,-1080 604,-1080 692,-1080 692,-1080 698,-1080 704,-1086 704,-1092 704,-1092 704,-1104 704,-1104 704,-1110 698,-1116 692,-1116"/>
<text text-anchor="middle" x="648" y="-1095.5" font-family="sans" font-size="10.00">picard_mark_dupes</text>
</g>
<!-- 7&#45;&gt;21 -->
<g id="edge36" class="edge"><title>7&#45;&gt;21</title>
<path fill="none" stroke="grey" stroke-width="2" d="M637.954,-1223.98C643.272,-1213.89 649.272,-1200.64 652,-1188 656.399,-1167.62 655.057,-1144.03 652.8,-1126.26"/>
<polygon fill="grey" stroke="grey" points="656.252,-1125.68 651.36,-1116.28 649.324,-1126.68 656.252,-1125.68"/>
</g>
<!-- 8 -->
<g id="node9" class="node"><title>8</title>
<path fill="none" stroke="#5663d8" stroke-width="2" d="M688.25,-1332C688.25,-1332 607.75,-1332 607.75,-1332 601.75,-1332 595.75,-1326 595.75,-1320 595.75,-1320 595.75,-1308 595.75,-1308 595.75,-1302 601.75,-1296 607.75,-1296 607.75,-1296 688.25,-1296 688.25,-1296 694.25,-1296 700.25,-1302 700.25,-1308 700.25,-1308 700.25,-1320 700.25,-1320 700.25,-1326 694.25,-1332 688.25,-1332"/>
<text text-anchor="middle" x="648" y="-1311.5" font-family="sans" font-size="10.00">create_bwa_index</text>
</g>
<!-- 8&#45;&gt;7 -->
<g id="edge13" class="edge"><title>8&#45;&gt;7</title>
<path fill="none" stroke="grey" stroke-width="2" d="M643.056,-1295.7C640.828,-1287.9 638.145,-1278.51 635.665,-1269.83"/>
<polygon fill="grey" stroke="grey" points="639,-1268.76 632.887,-1260.1 632.269,-1270.68 639,-1268.76"/>
</g>
<!-- 9 -->
<g id="node10" class="node"><title>9</title>
<path fill="none" stroke="#9fd856" stroke-width="2" d="M843,-1404C843,-1404 797,-1404 797,-1404 791,-1404 785,-1398 785,-1392 785,-1392 785,-1380 785,-1380 785,-1374 791,-1368 797,-1368 797,-1368 843,-1368 843,-1368 849,-1368 855,-1374 855,-1380 855,-1380 855,-1392 855,-1392 855,-1398 849,-1404 843,-1404"/>
<text text-anchor="middle" x="820" y="-1383.5" font-family="sans" font-size="10.00">copy_fasta</text>
</g>
<!-- 9&#45;&gt;8 -->
<g id="edge14" class="edge"><title>9&#45;&gt;8</title>
<path fill="none" stroke="grey" stroke-width="2" d="M784.778,-1370.67C760.161,-1360.65 726.897,-1347.11 699.336,-1335.89"/>
<polygon fill="grey" stroke="grey" points="700.431,-1332.56 689.849,-1332.03 697.792,-1339.04 700.431,-1332.56"/>
</g>
<!-- 17 -->
<g id="node18" class="node"><title>17</title>
<path fill="none" stroke="#70d856" stroke-width="2" d="M809,-756C809,-756 721,-756 721,-756 715,-756 709,-750 709,-744 709,-744 709,-732 709,-732 709,-726 715,-720 721,-720 721,-720 809,-720 809,-720 815,-720 821,-726 821,-732 821,-732 821,-744 821,-744 821,-750 815,-756 809,-756"/>
<text text-anchor="middle" x="765" y="-735.5" font-family="sans" font-size="10.00">gatk_realign_indels</text>
</g>
<!-- 9&#45;&gt;17 -->
<g id="edge25" class="edge"><title>9&#45;&gt;17</title>
<path fill="none" stroke="grey" stroke-width="2" d="M852.469,-1367.94C890.974,-1345.09 950,-1300.66 950,-1243 950,-1243 950,-1243 950,-881 950,-818.933 883.663,-780.281 830.437,-759.257"/>
<polygon fill="grey" stroke="grey" points="831.599,-755.955 821.008,-755.66 829.103,-762.495 831.599,-755.955"/>
</g>
<!-- 18 -->
<g id="node19" class="node"><title>18</title>
<path fill="none" stroke="#56b9d8" stroke-width="2" d="M815.25,-828C815.25,-828 722.75,-828 722.75,-828 716.75,-828 710.75,-822 710.75,-816 710.75,-816 710.75,-804 710.75,-804 710.75,-798 716.75,-792 722.75,-792 722.75,-792 815.25,-792 815.25,-792 821.25,-792 827.25,-798 827.25,-804 827.25,-804 827.25,-816 827.25,-816 827.25,-822 821.25,-828 815.25,-828"/>
<text text-anchor="middle" x="769" y="-807.5" font-family="sans" font-size="10.00">gatk_realign_targets</text>
</g>
<!-- 9&#45;&gt;18 -->
<g id="edge29" class="edge"><title>9&#45;&gt;18</title>
<path fill="none" stroke="grey" stroke-width="2" d="M820.289,-1367.82C821.328,-1305.18 824.867,-1083.15 826,-900 826.099,-884 832.391,-878.668 826,-864 821.067,-852.677 812.389,-842.682 803.271,-834.512"/>
<polygon fill="grey" stroke="grey" points="805.499,-831.812 795.58,-828.088 801.011,-837.185 805.499,-831.812"/>
</g>
<!-- 22 -->
<g id="node23" class="node"><title>22</title>
<path fill="none" stroke="#56c9d8" stroke-width="2" d="M779.25,-1188C779.25,-1188 714.75,-1188 714.75,-1188 708.75,-1188 702.75,-1182 702.75,-1176 702.75,-1176 702.75,-1164 702.75,-1164 702.75,-1158 708.75,-1152 714.75,-1152 714.75,-1152 779.25,-1152 779.25,-1152 785.25,-1152 791.25,-1158 791.25,-1164 791.25,-1164 791.25,-1176 791.25,-1176 791.25,-1182 785.25,-1188 779.25,-1188"/>
<text text-anchor="middle" x="747" y="-1167.5" font-family="sans" font-size="10.00">create_ref_dict</text>
</g>
<!-- 9&#45;&gt;22 -->
<g id="edge39" class="edge"><title>9&#45;&gt;22</title>
<path fill="none" stroke="grey" stroke-width="2" d="M814.15,-1367.85C801.469,-1330.68 771.369,-1242.44 756.149,-1197.82"/>
<polygon fill="grey" stroke="grey" points="759.42,-1196.57 752.878,-1188.23 752.794,-1198.83 759.42,-1196.57"/>
</g>
<!-- 25 -->
<g id="node26" class="node"><title>25</title>
<path fill="none" stroke="#88d856" stroke-width="2" d="M910,-1260C910,-1260 860,-1260 860,-1260 854,-1260 848,-1254 848,-1248 848,-1248 848,-1236 848,-1236 848,-1230 854,-1224 860,-1224 860,-1224 910,-1224 910,-1224 916,-1224 922,-1230 922,-1236 922,-1236 922,-1248 922,-1248 922,-1254 916,-1260 910,-1260"/>
<text text-anchor="middle" x="885" y="-1239.5" font-family="sans" font-size="10.00">index_fasta</text>
</g>
<!-- 9&#45;&gt;25 -->
<g id="edge41" class="edge"><title>9&#45;&gt;25</title>
<path fill="none" stroke="grey" stroke-width="2" d="M827.841,-1367.87C839.016,-1343.46 859.629,-1298.43 872.808,-1269.64"/>
<polygon fill="grey" stroke="grey" points="876.152,-1270.74 877.132,-1260.19 869.787,-1267.83 876.152,-1270.74"/>
</g>
<!-- 10&#45;&gt;6 -->
<g id="edge12" class="edge"><title>10&#45;&gt;6</title>
<path fill="none" stroke="grey" stroke-width="2" d="M563.494,-1151.7C552.537,-1142.88 539.054,-1132.03 527.175,-1122.47"/>
<polygon fill="grey" stroke="grey" points="529.244,-1119.65 519.258,-1116.1 524.855,-1125.1 529.244,-1119.65"/>
</g>
<!-- 10&#45;&gt;21 -->
<g id="edge37" class="edge"><title>10&#45;&gt;21</title>
<path fill="none" stroke="grey" stroke-width="2" d="M600.573,-1151.7C608.202,-1143.22 617.523,-1132.86 625.876,-1123.58"/>
<polygon fill="grey" stroke="grey" points="628.518,-1125.88 632.606,-1116.1 623.315,-1121.2 628.518,-1125.88"/>
</g>
<!-- 11 -->
<g id="node12" class="node"><title>11</title>
<path fill="none" stroke="#78d856" stroke-width="2" d="M864,-180C864,-180 778,-180 778,-180 772,-180 766,-174 766,-168 766,-168 766,-156 766,-156 766,-150 772,-144 778,-144 778,-144 864,-144 864,-144 870,-144 876,-150 876,-156 876,-156 876,-168 876,-168 876,-174 870,-180 864,-180"/>
<text text-anchor="middle" x="821" y="-159.5" font-family="sans" font-size="10.00">annotate_samtools</text>
</g>
<!-- 11&#45;&gt;1 -->
<g id="edge7" class="edge"><title>11&#45;&gt;1</title>
<path fill="none" stroke="grey" stroke-width="2" d="M765.894,-146.14C762.89,-145.4 759.91,-144.681 757,-144 677.607,-125.412 583.742,-107.283 533.018,-97.8009"/>
<polygon fill="grey" stroke="grey" points="533.64,-94.3565 523.168,-95.967 532.358,-101.238 533.64,-94.3565"/>
</g>
<!-- 12 -->
<g id="node13" class="node"><title>12</title>
<path fill="none" stroke="#56a9d8" stroke-width="2" d="M842.25,-252C842.25,-252 777.75,-252 777.75,-252 771.75,-252 765.75,-246 765.75,-240 765.75,-240 765.75,-228 765.75,-228 765.75,-222 771.75,-216 777.75,-216 777.75,-216 842.25,-216 842.25,-216 848.25,-216 854.25,-222 854.25,-228 854.25,-228 854.25,-240 854.25,-240 854.25,-246 848.25,-252 842.25,-252"/>
<text text-anchor="middle" x="810" y="-231.5" font-family="sans" font-size="10.00">filter_samtools</text>
</g>
<!-- 12&#45;&gt;11 -->
<g id="edge16" class="edge"><title>12&#45;&gt;11</title>
<path fill="none" stroke="grey" stroke-width="2" d="M812.719,-215.697C813.931,-207.983 815.388,-198.712 816.739,-190.112"/>
<polygon fill="grey" stroke="grey" points="820.217,-190.526 818.312,-180.104 813.302,-189.44 820.217,-190.526"/>
</g>
<!-- 13 -->
<g id="node14" class="node"><title>13</title>
<path fill="none" stroke="#97d856" stroke-width="2" d="M960,-324C960,-324 850,-324 850,-324 844,-324 838,-318 838,-312 838,-312 838,-300 838,-300 838,-294 844,-288 850,-288 850,-288 960,-288 960,-288 966,-288 972,-294 972,-300 972,-300 972,-312 972,-312 972,-318 966,-324 960,-324"/>
<text text-anchor="middle" x="905" y="-303.5" font-family="sans" font-size="10.00">bcftools_filter_samtools</text>
</g>
<!-- 13&#45;&gt;12 -->
<g id="edge17" class="edge"><title>13&#45;&gt;12</title>
<path fill="none" stroke="grey" stroke-width="2" d="M881.517,-287.697C869.437,-278.796 854.546,-267.823 841.484,-258.199"/>
<polygon fill="grey" stroke="grey" points="843.34,-255.219 833.213,-252.104 839.187,-260.854 843.34,-255.219"/>
</g>
<!-- 14 -->
<g id="node15" class="node"><title>14</title>
<path fill="none" stroke="#d86656" stroke-width="2" d="M949,-396C949,-396 861,-396 861,-396 855,-396 849,-390 849,-384 849,-384 849,-372 849,-372 849,-366 855,-360 861,-360 861,-360 949,-360 949,-360 955,-360 961,-366 961,-372 961,-372 961,-384 961,-384 961,-390 955,-396 949,-396"/>
<text text-anchor="middle" x="905" y="-375.5" font-family="sans" font-size="10.00">anc_filter_samtools</text>
</g>
<!-- 14&#45;&gt;13 -->
<g id="edge20" class="edge"><title>14&#45;&gt;13</title>
<path fill="none" stroke="grey" stroke-width="2" d="M905,-359.697C905,-351.983 905,-342.712 905,-334.112"/>
<polygon fill="grey" stroke="grey" points="908.5,-334.104 905,-324.104 901.5,-334.104 908.5,-334.104"/>
</g>
<!-- 37 -->
<g id="node38" class="node"><title>37</title>
<path fill="none" stroke="#c6d856" stroke-width="2" d="M1135.25,-324C1135.25,-324 1002.75,-324 1002.75,-324 996.75,-324 990.75,-318 990.75,-312 990.75,-312 990.75,-300 990.75,-300 990.75,-294 996.75,-288 1002.75,-288 1002.75,-288 1135.25,-288 1135.25,-288 1141.25,-288 1147.25,-294 1147.25,-300 1147.25,-300 1147.25,-312 1147.25,-312 1147.25,-318 1141.25,-324 1135.25,-324"/>
<text text-anchor="middle" x="1069" y="-303.5" font-family="sans" font-size="10.00">bcftools_filter_samtools_two</text>
</g>
<!-- 14&#45;&gt;37 -->
<g id="edge55" class="edge"><title>14&#45;&gt;37</title>
<path fill="none" stroke="grey" stroke-width="2" d="M945.119,-359.876C967.638,-350.264 995.918,-338.193 1019.77,-328.013"/>
<polygon fill="grey" stroke="grey" points="1021.19,-331.213 1029.01,-324.068 1018.44,-324.775 1021.19,-331.213"/>
</g>
<!-- 15 -->
<g id="node16" class="node"><title>15</title>
<path fill="none" stroke="#61d856" stroke-width="2" d="M923.25,-540C923.25,-540 856.75,-540 856.75,-540 850.75,-540 844.75,-534 844.75,-528 844.75,-528 844.75,-516 844.75,-516 844.75,-510 850.75,-504 856.75,-504 856.75,-504 923.25,-504 923.25,-504 929.25,-504 935.25,-510 935.25,-516 935.25,-516 935.25,-528 935.25,-528 935.25,-534 929.25,-540 923.25,-540"/>
<text text-anchor="middle" x="890" y="-519.5" font-family="sans" font-size="10.00">bcftools_pileup</text>
</g>
<!-- 15&#45;&gt;14 -->
<g id="edge21" class="edge"><title>15&#45;&gt;14</title>
<path fill="none" stroke="grey" stroke-width="2" d="M891.809,-503.871C894.366,-479.67 899.062,-435.211 902.106,-406.393"/>
<polygon fill="grey" stroke="grey" points="905.614,-406.502 903.184,-396.189 898.653,-405.766 905.614,-406.502"/>
</g>
<!-- 16 -->
<g id="node17" class="node"><title>16</title>
<path fill="none" stroke="#d8d356" stroke-width="2" d="M811,-684C811,-684 719,-684 719,-684 713,-684 707,-678 707,-672 707,-672 707,-660 707,-660 707,-654 713,-648 719,-648 719,-648 811,-648 811,-648 817,-648 823,-654 823,-660 823,-660 823,-672 823,-672 823,-678 817,-684 811,-684"/>
<text text-anchor="middle" x="765" y="-663.5" font-family="sans" font-size="10.00">samtools_sort_three</text>
</g>
<!-- 16&#45;&gt;15 -->
<g id="edge22" class="edge"><title>16&#45;&gt;15</title>
<path fill="none" stroke="grey" stroke-width="2" d="M800.979,-647.909C816.942,-638.954 835.01,-626.759 848,-612 863.979,-593.844 875.129,-568.554 881.904,-549.571"/>
<polygon fill="grey" stroke="grey" points="885.244,-550.619 885.136,-540.025 878.614,-548.375 885.244,-550.619"/>
</g>
<!-- 26 -->
<g id="node27" class="node"><title>26</title>
<path fill="none" stroke="#5673d8" stroke-width="2" d="M811.25,-612C811.25,-612 710.75,-612 710.75,-612 704.75,-612 698.75,-606 698.75,-600 698.75,-600 698.75,-588 698.75,-588 698.75,-582 704.75,-576 710.75,-576 710.75,-576 811.25,-576 811.25,-576 817.25,-576 823.25,-582 823.25,-588 823.25,-588 823.25,-600 823.25,-600 823.25,-606 817.25,-612 811.25,-612"/>
<text text-anchor="middle" x="761" y="-591.5" font-family="sans" font-size="10.00">samtools_index_three</text>
</g>
<!-- 16&#45;&gt;26 -->
<g id="edge42" class="edge"><title>16&#45;&gt;26</title>
<path fill="none" stroke="grey" stroke-width="2" d="M764.011,-647.697C763.57,-639.983 763.041,-630.712 762.549,-622.112"/>
<polygon fill="grey" stroke="grey" points="766.042,-621.888 761.977,-612.104 759.054,-622.288 766.042,-621.888"/>
</g>
<!-- 29 -->
<g id="node30" class="node"><title>29</title>
<path fill="none" stroke="#d8a456" stroke-width="2" d="M781.25,-540C781.25,-540 740.75,-540 740.75,-540 734.75,-540 728.75,-534 728.75,-528 728.75,-528 728.75,-516 728.75,-516 728.75,-510 734.75,-504 740.75,-504 740.75,-504 781.25,-504 781.25,-504 787.25,-504 793.25,-510 793.25,-516 793.25,-516 793.25,-528 793.25,-528 793.25,-534 787.25,-540 781.25,-540"/>
<text text-anchor="middle" x="761" y="-519.5" font-family="sans" font-size="10.00">freebayes</text>
</g>
<!-- 16&#45;&gt;29 -->
<g id="edge45" class="edge"><title>16&#45;&gt;29</title>
<path fill="none" stroke="grey" stroke-width="2" d="M797.527,-647.984C810.789,-639.18 824.699,-627.085 832,-612 838.971,-597.598 839.172,-590.303 832,-576 825.453,-562.944 813.995,-552.281 802.17,-544.033"/>
<polygon fill="grey" stroke="grey" points="803.855,-540.955 793.559,-538.454 800.049,-546.829 803.855,-540.955"/>
</g>
<!-- 33 -->
<g id="node34" class="node"><title>33</title>
<path fill="none" stroke="#d89556" stroke-width="2" d="M652,-540C652,-540 622,-540 622,-540 616,-540 610,-534 610,-528 610,-528 610,-516 610,-516 610,-510 616,-504 622,-504 622,-504 652,-504 652,-504 658,-504 664,-510 664,-516 664,-516 664,-528 664,-528 664,-534 658,-540 652,-540"/>
<text text-anchor="middle" x="637" y="-519.5" font-family="sans" font-size="10.00">lofreq</text>
</g>
<!-- 16&#45;&gt;33 -->
<g id="edge50" class="edge"><title>16&#45;&gt;33</title>
<path fill="none" stroke="grey" stroke-width="2" d="M734.988,-647.912C720.282,-638.57 702.991,-626.047 690,-612 672.74,-593.336 658.381,-568.147 648.982,-549.33"/>
<polygon fill="grey" stroke="grey" points="652.04,-547.613 644.53,-540.139 645.74,-550.665 652.04,-547.613"/>
</g>
<!-- 17&#45;&gt;16 -->
<g id="edge24" class="edge"><title>17&#45;&gt;16</title>
<path fill="none" stroke="grey" stroke-width="2" d="M765,-719.697C765,-711.983 765,-702.712 765,-694.112"/>
<polygon fill="grey" stroke="grey" points="768.5,-694.104 765,-684.104 761.5,-694.104 768.5,-694.104"/>
</g>
<!-- 18&#45;&gt;17 -->
<g id="edge26" class="edge"><title>18&#45;&gt;17</title>
<path fill="none" stroke="grey" stroke-width="2" d="M768.011,-791.697C767.57,-783.983 767.041,-774.712 766.549,-766.112"/>
<polygon fill="grey" stroke="grey" points="770.042,-765.888 765.977,-756.104 763.054,-766.288 770.042,-765.888"/>
</g>
<!-- 19 -->
<g id="node20" class="node"><title>19</title>
<path fill="none" stroke="#56d892" stroke-width="2" d="M670.25,-972C670.25,-972 585.75,-972 585.75,-972 579.75,-972 573.75,-966 573.75,-960 573.75,-960 573.75,-948 573.75,-948 573.75,-942 579.75,-936 585.75,-936 585.75,-936 670.25,-936 670.25,-936 676.25,-936 682.25,-942 682.25,-948 682.25,-948 682.25,-960 682.25,-960 682.25,-966 676.25,-972 670.25,-972"/>
<text text-anchor="middle" x="628" y="-951.5" font-family="sans" font-size="10.00">samtools_sort_two</text>
</g>
<!-- 19&#45;&gt;17 -->
<g id="edge27" class="edge"><title>19&#45;&gt;17</title>
<path fill="none" stroke="grey" stroke-width="2" d="M590.609,-935.798C576.456,-927.203 561.872,-915.321 554,-900 546.688,-885.769 546.42,-878.091 554,-864 583.75,-808.694 649.26,-775.624 699.448,-757.526"/>
<polygon fill="grey" stroke="grey" points="700.659,-760.81 708.948,-754.211 698.353,-754.201 700.659,-760.81"/>
</g>
<!-- 19&#45;&gt;18 -->
<g id="edge30" class="edge"><title>19&#45;&gt;18</title>
<path fill="none" stroke="grey" stroke-width="2" d="M648.496,-935.864C660.327,-925.736 675.327,-912.486 688,-900 709.037,-879.273 731.537,-854.301 747.471,-836.091"/>
<polygon fill="grey" stroke="grey" points="750.379,-838.082 754.302,-828.24 745.098,-833.488 750.379,-838.082"/>
</g>
<!-- 23 -->
<g id="node24" class="node"><title>23</title>
<path fill="none" stroke="#56d8b9" stroke-width="2" d="M667.25,-900C667.25,-900 574.75,-900 574.75,-900 568.75,-900 562.75,-894 562.75,-888 562.75,-888 562.75,-876 562.75,-876 562.75,-870 568.75,-864 574.75,-864 574.75,-864 667.25,-864 667.25,-864 673.25,-864 679.25,-870 679.25,-876 679.25,-876 679.25,-888 679.25,-888 679.25,-894 673.25,-900 667.25,-900"/>
<text text-anchor="middle" x="621" y="-879.5" font-family="sans" font-size="10.00">samtools_index_two</text>
</g>
<!-- 19&#45;&gt;23 -->
<g id="edge40" class="edge"><title>19&#45;&gt;23</title>
<path fill="none" stroke="grey" stroke-width="2" d="M626.27,-935.697C625.498,-927.983 624.571,-918.712 623.711,-910.112"/>
<polygon fill="grey" stroke="grey" points="627.188,-909.706 622.71,-900.104 620.223,-910.403 627.188,-909.706"/>
</g>
<!-- 20 -->
<g id="node21" class="node"><title>20</title>
<path fill="none" stroke="#56d873" stroke-width="2" d="M688,-1044C688,-1044 600,-1044 600,-1044 594,-1044 588,-1038 588,-1032 588,-1032 588,-1020 588,-1020 588,-1014 594,-1008 600,-1008 600,-1008 688,-1008 688,-1008 694,-1008 700,-1014 700,-1020 700,-1020 700,-1032 700,-1032 700,-1038 694,-1044 688,-1044"/>
<text text-anchor="middle" x="644" y="-1023.5" font-family="sans" font-size="10.00">picard_read_groups</text>
</g>
<!-- 20&#45;&gt;19 -->
<g id="edge34" class="edge"><title>20&#45;&gt;19</title>
<path fill="none" stroke="grey" stroke-width="2" d="M640.045,-1007.7C638.282,-999.983 636.163,-990.712 634.197,-982.112"/>
<polygon fill="grey" stroke="grey" points="637.55,-981.073 631.91,-972.104 630.726,-982.633 637.55,-981.073"/>
</g>
<!-- 21&#45;&gt;20 -->
<g id="edge35" class="edge"><title>21&#45;&gt;20</title>
<path fill="none" stroke="grey" stroke-width="2" d="M647.011,-1079.7C646.57,-1071.98 646.041,-1062.71 645.549,-1054.11"/>
<polygon fill="grey" stroke="grey" points="649.042,-1053.89 644.977,-1044.1 642.054,-1054.29 649.042,-1053.89"/>
</g>
<!-- 22&#45;&gt;21 -->
<g id="edge38" class="edge"><title>22&#45;&gt;21</title>
<path fill="none" stroke="grey" stroke-width="2" d="M722.782,-1151.88C710.077,-1142.89 694.336,-1131.76 680.577,-1122.03"/>
<polygon fill="grey" stroke="grey" points="682.497,-1119.11 672.311,-1116.19 678.456,-1124.82 682.497,-1119.11"/>
</g>
<!-- 23&#45;&gt;17 -->
<g id="edge28" class="edge"><title>23&#45;&gt;17</title>
<path fill="none" stroke="grey" stroke-width="2" d="M635.296,-863.981C651.008,-845.597 677.304,-815.752 702,-792 712.426,-781.973 724.454,-771.591 735.189,-762.701"/>
<polygon fill="grey" stroke="grey" points="737.578,-765.269 743.097,-756.225 733.143,-759.853 737.578,-765.269"/>
</g>
<!-- 23&#45;&gt;18 -->
<g id="edge31" class="edge"><title>23&#45;&gt;18</title>
<path fill="none" stroke="grey" stroke-width="2" d="M657.205,-863.876C677.258,-854.392 702.372,-842.513 723.714,-832.419"/>
<polygon fill="grey" stroke="grey" points="725.369,-835.508 732.913,-828.068 722.376,-829.18 725.369,-835.508"/>
</g>
<!-- 24 -->
<g id="node25" class="node"><title>24</title>
<path fill="none" stroke="#afd856" stroke-width="2" d="M805.25,-900C805.25,-900 748.75,-900 748.75,-900 742.75,-900 736.75,-894 736.75,-888 736.75,-888 736.75,-876 736.75,-876 736.75,-870 742.75,-864 748.75,-864 748.75,-864 805.25,-864 805.25,-864 811.25,-864 817.25,-870 817.25,-876 817.25,-876 817.25,-888 817.25,-888 817.25,-894 811.25,-900 805.25,-900"/>
<text text-anchor="middle" x="777" y="-879.5" font-family="sans" font-size="10.00">gatk_register</text>
</g>
<!-- 24&#45;&gt;18 -->
<g id="edge32" class="edge"><title>24&#45;&gt;18</title>
<path fill="none" stroke="grey" stroke-width="2" d="M775.022,-863.697C774.141,-855.983 773.081,-846.712 772.099,-838.112"/>
<polygon fill="grey" stroke="grey" points="775.568,-837.642 770.955,-828.104 768.613,-838.437 775.568,-837.642"/>
</g>
<!-- 25&#45;&gt;18 -->
<g id="edge33" class="edge"><title>25&#45;&gt;18</title>
<path fill="none" stroke="grey" stroke-width="2" d="M885,-1223.95C885,-1197.29 885,-1144.11 885,-1099 885,-1099 885,-1099 885,-953 885,-911.914 885.146,-896.493 860,-864 850.087,-851.19 836.136,-840.899 822.13,-832.918"/>
<polygon fill="grey" stroke="grey" points="823.427,-829.642 812.96,-828.003 820.121,-835.812 823.427,-829.642"/>
</g>
<!-- 26&#45;&gt;15 -->
<g id="edge23" class="edge"><title>26&#45;&gt;15</title>
<path fill="none" stroke="grey" stroke-width="2" d="M792.557,-575.876C809.658,-566.596 830.982,-555.025 849.319,-545.075"/>
<polygon fill="grey" stroke="grey" points="851.202,-548.035 858.322,-540.19 847.863,-541.883 851.202,-548.035"/>
</g>
<!-- 26&#45;&gt;29 -->
<g id="edge46" class="edge"><title>26&#45;&gt;29</title>
<path fill="none" stroke="grey" stroke-width="2" d="M761,-575.697C761,-567.983 761,-558.712 761,-550.112"/>
<polygon fill="grey" stroke="grey" points="764.5,-550.104 761,-540.104 757.5,-550.104 764.5,-550.104"/>
</g>
<!-- 26&#45;&gt;33 -->
<g id="edge51" class="edge"><title>26&#45;&gt;33</title>
<path fill="none" stroke="grey" stroke-width="2" d="M730.666,-575.876C713.247,-566.042 691.268,-553.635 672.98,-543.311"/>
<polygon fill="grey" stroke="grey" points="674.495,-540.147 664.066,-538.279 671.054,-546.243 674.495,-540.147"/>
</g>
<!-- 27 -->
<g id="node28" class="node"><title>27</title>
<path fill="none" stroke="#56d0d8" stroke-width="2" d="M807.25,-324C807.25,-324 694.75,-324 694.75,-324 688.75,-324 682.75,-318 682.75,-312 682.75,-312 682.75,-300 682.75,-300 682.75,-294 688.75,-288 694.75,-288 694.75,-288 807.25,-288 807.25,-288 813.25,-288 819.25,-294 819.25,-300 819.25,-300 819.25,-312 819.25,-312 819.25,-318 813.25,-324 807.25,-324"/>
<text text-anchor="middle" x="751" y="-303.5" font-family="sans" font-size="10.00">bcftools_filter_freebayes</text>
</g>
<!-- 27&#45;&gt;12 -->
<g id="edge18" class="edge"><title>27&#45;&gt;12</title>
<path fill="none" stroke="grey" stroke-width="2" d="M765.584,-287.697C772.658,-279.305 781.283,-269.07 789.045,-259.861"/>
<polygon fill="grey" stroke="grey" points="791.815,-262.006 795.583,-252.104 786.463,-257.495 791.815,-262.006"/>
</g>
<!-- 39 -->
<g id="node40" class="node"><title>39</title>
<path fill="none" stroke="#5692d8" stroke-width="2" d="M725.25,-252C725.25,-252 656.75,-252 656.75,-252 650.75,-252 644.75,-246 644.75,-240 644.75,-240 644.75,-228 644.75,-228 644.75,-222 650.75,-216 656.75,-216 656.75,-216 725.25,-216 725.25,-216 731.25,-216 737.25,-222 737.25,-228 737.25,-228 737.25,-240 737.25,-240 737.25,-246 731.25,-252 725.25,-252"/>
<text text-anchor="middle" x="691" y="-231.5" font-family="sans" font-size="10.00">filter_freebayes</text>
</g>
<!-- 27&#45;&gt;39 -->
<g id="edge57" class="edge"><title>27&#45;&gt;39</title>
<path fill="none" stroke="grey" stroke-width="2" d="M736.169,-287.697C728.975,-279.305 720.203,-269.07 712.31,-259.861"/>
<polygon fill="grey" stroke="grey" points="714.826,-257.419 705.661,-252.104 709.511,-261.975 714.826,-257.419"/>
</g>
<!-- 28 -->
<g id="node29" class="node"><title>28</title>
<path fill="none" stroke="#56d88a" stroke-width="2" d="M805,-468C805,-468 713,-468 713,-468 707,-468 701,-462 701,-456 701,-456 701,-444 701,-444 701,-438 707,-432 713,-432 713,-432 805,-432 805,-432 811,-432 817,-438 817,-444 817,-444 817,-456 817,-456 817,-462 811,-468 805,-468"/>
<text text-anchor="middle" x="759" y="-447.5" font-family="sans" font-size="10.00">anc_filter_freebayes</text>
</g>
<!-- 28&#45;&gt;27 -->
<g id="edge43" class="edge"><title>28&#45;&gt;27</title>
<path fill="none" stroke="grey" stroke-width="2" d="M758.035,-431.871C756.672,-407.67 754.167,-363.211 752.543,-334.393"/>
<polygon fill="grey" stroke="grey" points="756.025,-333.977 751.968,-324.189 749.037,-334.37 756.025,-333.977"/>
</g>
<!-- 29&#45;&gt;28 -->
<g id="edge44" class="edge"><title>29&#45;&gt;28</title>
<path fill="none" stroke="grey" stroke-width="2" d="M760.506,-503.697C760.285,-495.983 760.02,-486.712 759.775,-478.112"/>
<polygon fill="grey" stroke="grey" points="763.273,-478 759.489,-468.104 756.276,-478.2 763.273,-478"/>
</g>
<!-- 30 -->
<g id="node31" class="node"><title>30</title>
<path fill="none" stroke="#d87d56" stroke-width="2" d="M652.25,-324C652.25,-324 559.75,-324 559.75,-324 553.75,-324 547.75,-318 547.75,-312 547.75,-312 547.75,-300 547.75,-300 547.75,-294 553.75,-288 559.75,-288 559.75,-288 652.25,-288 652.25,-288 658.25,-288 664.25,-294 664.25,-300 664.25,-300 664.25,-312 664.25,-312 664.25,-318 658.25,-324 652.25,-324"/>
<text text-anchor="middle" x="606" y="-303.5" font-family="sans" font-size="10.00">bcftools_filter_lofreq</text>
</g>
<!-- 30&#45;&gt;12 -->
<g id="edge19" class="edge"><title>30&#45;&gt;12</title>
<path fill="none" stroke="grey" stroke-width="2" d="M655.643,-287.966C685.973,-277.558 724.777,-264.243 755.89,-253.567"/>
<polygon fill="grey" stroke="grey" points="757.378,-256.757 765.701,-250.201 755.107,-250.136 757.378,-256.757"/>
</g>
<!-- 30&#45;&gt;39 -->
<g id="edge58" class="edge"><title>30&#45;&gt;39</title>
<path fill="none" stroke="grey" stroke-width="2" d="M627.011,-287.697C637.716,-278.881 650.89,-268.032 662.496,-258.474"/>
<polygon fill="grey" stroke="grey" points="664.736,-261.163 670.23,-252.104 660.286,-255.76 664.736,-261.163"/>
</g>
<!-- 41 -->
<g id="node42" class="node"><title>41</title>
<path fill="none" stroke="#59d856" stroke-width="2" d="M610,-252C610,-252 540,-252 540,-252 534,-252 528,-246 528,-240 528,-240 528,-228 528,-228 528,-222 534,-216 540,-216 540,-216 610,-216 610,-216 616,-216 622,-222 622,-228 622,-228 622,-240 622,-240 622,-246 616,-252 610,-252"/>
<text text-anchor="middle" x="575" y="-231.5" font-family="sans" font-size="10.00">annotate_lofreq</text>
</g>
<!-- 30&#45;&gt;41 -->
<g id="edge60" class="edge"><title>30&#45;&gt;41</title>
<path fill="none" stroke="grey" stroke-width="2" d="M598.337,-287.697C594.808,-279.728 590.544,-270.1 586.631,-261.264"/>
<polygon fill="grey" stroke="grey" points="589.824,-259.831 582.575,-252.104 583.424,-262.665 589.824,-259.831"/>
</g>
<!-- 31 -->
<g id="node32" class="node"><title>31</title>
<path fill="none" stroke="#d86e56" stroke-width="2" d="M649.25,-396C649.25,-396 578.75,-396 578.75,-396 572.75,-396 566.75,-390 566.75,-384 566.75,-384 566.75,-372 566.75,-372 566.75,-366 572.75,-360 578.75,-360 578.75,-360 649.25,-360 649.25,-360 655.25,-360 661.25,-366 661.25,-372 661.25,-372 661.25,-384 661.25,-384 661.25,-390 655.25,-396 649.25,-396"/>
<text text-anchor="middle" x="614" y="-375.5" font-family="sans" font-size="10.00">anc_filter_lofreq</text>
</g>
<!-- 31&#45;&gt;30 -->
<g id="edge47" class="edge"><title>31&#45;&gt;30</title>
<path fill="none" stroke="grey" stroke-width="2" d="M612.022,-359.697C611.141,-351.983 610.081,-342.712 609.099,-334.112"/>
<polygon fill="grey" stroke="grey" points="612.568,-333.642 607.955,-324.104 605.613,-334.437 612.568,-333.642"/>
</g>
<!-- 32 -->
<g id="node33" class="node"><title>32</title>
<path fill="none" stroke="#568ad8" stroke-width="2" d="M655.25,-468C655.25,-468 602.75,-468 602.75,-468 596.75,-468 590.75,-462 590.75,-456 590.75,-456 590.75,-444 590.75,-444 590.75,-438 596.75,-432 602.75,-432 602.75,-432 655.25,-432 655.25,-432 661.25,-432 667.25,-438 667.25,-444 667.25,-444 667.25,-456 667.25,-456 667.25,-462 661.25,-468 655.25,-468"/>
<text text-anchor="middle" x="629" y="-447.5" font-family="sans" font-size="10.00">unzip_lofreq</text>
</g>
<!-- 32&#45;&gt;31 -->
<g id="edge48" class="edge"><title>32&#45;&gt;31</title>
<path fill="none" stroke="grey" stroke-width="2" d="M625.292,-431.697C623.639,-423.983 621.653,-414.712 619.81,-406.112"/>
<polygon fill="grey" stroke="grey" points="623.183,-405.149 617.665,-396.104 616.338,-406.616 623.183,-405.149"/>
</g>
<!-- 33&#45;&gt;32 -->
<g id="edge49" class="edge"><title>33&#45;&gt;32</title>
<path fill="none" stroke="grey" stroke-width="2" d="M635.022,-503.697C634.141,-495.983 633.081,-486.712 632.099,-478.112"/>
<polygon fill="grey" stroke="grey" points="635.568,-477.642 630.955,-468.104 628.613,-478.437 635.568,-477.642"/>
</g>
<!-- 34 -->
<g id="node35" class="node"><title>34</title>
<path fill="none" stroke="#56d8a9" stroke-width="2" d="M630,-612C630,-612 536,-612 536,-612 530,-612 524,-606 524,-600 524,-600 524,-588 524,-588 524,-582 530,-576 536,-576 536,-576 630,-576 630,-576 636,-576 642,-582 642,-588 642,-588 642,-600 642,-600 642,-606 636,-612 630,-612"/>
<text text-anchor="middle" x="583" y="-591.5" font-family="sans" font-size="10.00">index_ancestor_bam</text>
</g>
<!-- 34&#45;&gt;33 -->
<g id="edge52" class="edge"><title>34&#45;&gt;33</title>
<path fill="none" stroke="grey" stroke-width="2" d="M596.348,-575.697C602.757,-567.389 610.558,-557.277 617.606,-548.141"/>
<polygon fill="grey" stroke="grey" points="620.468,-550.16 623.805,-540.104 614.926,-545.884 620.468,-550.16"/>
</g>
<!-- 35 -->
<g id="node36" class="node"><title>35</title>
<path fill="none" stroke="#56d8a2" stroke-width="2" d="M628,-684C628,-684 538,-684 538,-684 532,-684 526,-678 526,-672 526,-672 526,-660 526,-660 526,-654 532,-648 538,-648 538,-648 628,-648 628,-648 634,-648 640,-654 640,-660 640,-660 640,-672 640,-672 640,-678 634,-684 628,-684"/>
<text text-anchor="middle" x="583" y="-663.5" font-family="sans" font-size="10.00">copy_ancestor_bam</text>
</g>
<!-- 35&#45;&gt;34 -->
<g id="edge53" class="edge"><title>35&#45;&gt;34</title>
<path fill="none" stroke="grey" stroke-width="2" d="M583,-647.697C583,-639.983 583,-630.712 583,-622.112"/>
<polygon fill="grey" stroke="grey" points="586.5,-622.104 583,-612.104 579.5,-622.104 586.5,-622.104"/>
</g>
<!-- 36 -->
<g id="node37" class="node"><title>36</title>
<path fill="none" stroke="#d6d856" stroke-width="2" d="M1059,-252C1059,-252 949,-252 949,-252 943,-252 937,-246 937,-240 937,-240 937,-228 937,-228 937,-222 943,-216 949,-216 949,-216 1059,-216 1059,-216 1065,-216 1071,-222 1071,-228 1071,-228 1071,-240 1071,-240 1071,-246 1065,-252 1059,-252"/>
<text text-anchor="middle" x="1004" y="-231.5" font-family="sans" font-size="10.00">annotate_samtools_two</text>
</g>
<!-- 36&#45;&gt;1 -->
<g id="edge8" class="edge"><title>36&#45;&gt;1</title>
<path fill="none" stroke="grey" stroke-width="2" d="M987.234,-215.975C965.665,-195.214 926.062,-160.82 885,-144 821.566,-118.015 617.658,-100.144 533.188,-93.6782"/>
<polygon fill="grey" stroke="grey" points="533.261,-90.1738 523.026,-92.9114 532.734,-97.1539 533.261,-90.1738"/>
</g>
<!-- 37&#45;&gt;36 -->
<g id="edge54" class="edge"><title>37&#45;&gt;36</title>
<path fill="none" stroke="grey" stroke-width="2" d="M1052.93,-287.697C1045.06,-279.22 1035.44,-268.864 1026.83,-259.583"/>
<polygon fill="grey" stroke="grey" points="1029.25,-257.051 1019.88,-252.104 1024.12,-261.814 1029.25,-257.051"/>
</g>
<!-- 38 -->
<g id="node39" class="node"><title>38</title>
<path fill="none" stroke="#d85656" stroke-width="2" d="M736,-180C736,-180 646,-180 646,-180 640,-180 634,-174 634,-168 634,-168 634,-156 634,-156 634,-150 640,-144 646,-144 646,-144 736,-144 736,-144 742,-144 748,-150 748,-156 748,-156 748,-168 748,-168 748,-174 742,-180 736,-180"/>
<text text-anchor="middle" x="691" y="-159.5" font-family="sans" font-size="10.00">annotate_freebayes</text>
</g>
<!-- 38&#45;&gt;1 -->
<g id="edge9" class="edge"><title>38&#45;&gt;1</title>
<path fill="none" stroke="grey" stroke-width="2" d="M643.298,-143.876C609.214,-131.641 564.032,-115.422 532.738,-104.188"/>
<polygon fill="grey" stroke="grey" points="533.692,-100.812 523.097,-100.727 531.327,-107.4 533.692,-100.812"/>
</g>
<!-- 39&#45;&gt;38 -->
<g id="edge56" class="edge"><title>39&#45;&gt;38</title>
<path fill="none" stroke="grey" stroke-width="2" d="M691,-215.697C691,-207.983 691,-198.712 691,-190.112"/>
<polygon fill="grey" stroke="grey" points="694.5,-190.104 691,-180.104 687.5,-190.104 694.5,-190.104"/>
</g>
<!-- 40 -->
<g id="node41" class="node"><title>40</title>
<path fill="none" stroke="#b6d856" stroke-width="2" d="M604,-180C604,-180 536,-180 536,-180 530,-180 524,-174 524,-168 524,-168 524,-156 524,-156 524,-150 530,-144 536,-144 536,-144 604,-144 604,-144 610,-144 616,-150 616,-156 616,-156 616,-168 616,-168 616,-174 610,-180 604,-180"/>
<text text-anchor="middle" x="570" y="-159.5" font-family="sans" font-size="10.00">lofreq_columns</text>
</g>
<!-- 40&#45;&gt;1 -->
<g id="edge10" class="edge"><title>40&#45;&gt;1</title>
<path fill="none" stroke="grey" stroke-width="2" d="M551.708,-143.697C542.567,-135.05 531.36,-124.449 521.4,-115.027"/>
<polygon fill="grey" stroke="grey" points="523.752,-112.434 514.082,-108.104 518.941,-117.519 523.752,-112.434"/>
</g>
<!-- 41&#45;&gt;40 -->
<g id="edge59" class="edge"><title>41&#45;&gt;40</title>
<path fill="none" stroke="grey" stroke-width="2" d="M573.764,-215.697C573.213,-207.983 572.551,-198.712 571.937,-190.112"/>
<polygon fill="grey" stroke="grey" points="575.425,-189.83 571.222,-180.104 568.443,-190.328 575.425,-189.83"/>
</g>
</g>
</svg>
